<svg width="14" height="14" viewBox="0 0 14 14" fill="none" xmlns="http://www.w3.org/2000/svg">
<rect x="2.16724" y="3.76562" width="8.78907" height="4.18253" rx="1.5" transform="rotate(-20.0761 2.16724 3.76562)" fill="white" stroke="#5C5E63" stroke-width="1.3" stroke-linecap="round" stroke-linejoin="round"/>
<rect x="0.904541" y="4.22083" width="11.8775" height="8.60919" rx="2" fill="white" stroke="#5C5E63" stroke-width="1.3" stroke-linecap="round" stroke-linejoin="round"/>
<path d="M6.3092 10.0735C6.56617 9.82286 6.57127 9.41133 6.3206 9.15436C6.06993 8.89739 5.6584 8.89229 5.40143 9.14296L6.3092 10.0735ZM5.40143 7.90834C5.6584 8.15901 6.06993 8.15391 6.3206 7.89694C6.57127 7.63997 6.56617 7.22844 6.3092 6.97777L5.40143 7.90834ZM5.85531 9.60825L5.40143 9.14296C5.04098 9.49458 4.45005 9.49458 4.0896 9.14296L3.63572 9.60825L3.18184 10.0735C4.04723 10.9177 5.4438 10.9177 6.3092 10.0735L5.85531 9.60825ZM3.63572 7.44305L4.0896 7.90834C4.45005 7.55672 5.04098 7.55672 5.40143 7.90834L5.85531 7.44305L6.3092 6.97777C5.4438 6.13358 4.04723 6.13358 3.18184 6.97777L3.63572 7.44305ZM3.63572 7.44305L3.18184 6.97777C2.30742 7.83075 2.30742 9.22055 3.18184 10.0735L3.63572 9.60825L4.0896 9.14296C3.73817 8.80014 3.73817 8.25116 4.0896 7.90834L3.63572 7.44305Z" fill="#5C5E63"/>
<path d="M7.44946 8.52565C7.44946 7.68009 8.13492 6.99463 8.98048 6.99463C9.82604 6.99463 10.5115 7.68009 10.5115 8.52565C10.5115 9.37121 9.82604 10.0567 8.98048 10.0567C8.13492 10.0567 7.44946 9.37121 7.44946 8.52565Z" stroke="#5C5E63" stroke-width="1.3" stroke-linecap="round" stroke-linejoin="round"/>
</svg>
