<svg width="18" height="18" viewBox="0 0 18 18" fill="none" xmlns="http://www.w3.org/2000/svg">
<rect x="4.16797" y="5.76562" width="8.78907" height="4.18253" rx="1.5" transform="rotate(-20.0761 4.16797 5.76562)" fill="white" stroke="#5C5E63" stroke-linecap="round" stroke-linejoin="round"/>
<rect x="2.9043" y="6.22083" width="11.8775" height="8.60919" rx="2" fill="white" stroke="#5C5E63" stroke-linecap="round" stroke-linejoin="round"/>
<path d="M8.20421 11.9662C8.40188 11.7733 8.40581 11.4568 8.21298 11.2591C8.02016 11.0614 7.7036 11.0575 7.50593 11.2503L8.20421 11.9662ZM7.50593 9.80097C7.7036 9.99379 8.02016 9.98986 8.21298 9.79219C8.40581 9.59453 8.40188 9.27797 8.20421 9.08514L7.50593 9.80097ZM7.85507 11.6082L7.50593 11.2503C7.08722 11.6588 6.40333 11.6588 5.98461 11.2503L5.63547 11.6082L5.28633 11.9662C6.09347 12.7535 7.39707 12.7535 8.20421 11.9662L7.85507 11.6082ZM5.63547 9.44305L5.98461 9.80097C6.40333 9.39252 7.08722 9.39252 7.50593 9.80097L7.85507 9.44305L8.20421 9.08514C7.39707 8.29779 6.09347 8.29779 5.28633 9.08514L5.63547 9.44305ZM5.63547 9.44305L5.28633 9.08514C4.47226 9.87926 4.47226 11.172 5.28633 11.9662L5.63547 11.6082L5.98461 11.2503C5.57284 10.8486 5.57284 10.2027 5.98461 9.80097L5.63547 9.44305Z" fill="#5C5E63"/>
<path d="M9.44922 10.5257C9.44922 9.68009 10.1347 8.99463 10.9802 8.99463C11.8258 8.99463 12.5113 9.68009 12.5113 10.5257C12.5113 11.3712 11.8258 12.0567 10.9802 12.0567C10.1347 12.0567 9.44922 11.3712 9.44922 10.5257Z" stroke="#5C5E63" stroke-linecap="round" stroke-linejoin="round"/>
</svg>
