<svg width="18" height="18" viewBox="0 0 18 18" fill="none" xmlns="http://www.w3.org/2000/svg">
<path d="M3.33789 8.05612C3.33785 7.87306 3.37774 7.69219 3.45479 7.52613C3.53185 7.36007 3.6442 7.21282 3.78402 7.09465L8.18863 3.31927C8.41577 3.1273 8.70356 3.02197 9.00097 3.02197C9.29837 3.02197 9.58616 3.1273 9.8133 3.31927L14.2179 7.09465C14.3577 7.21282 14.4701 7.36007 14.5471 7.52613C14.6242 7.69219 14.6641 7.87306 14.664 8.05612V13.7192C14.664 14.053 14.5315 14.3731 14.2954 14.6091C14.0594 14.8451 13.7393 14.9777 13.4056 14.9777H4.59635C4.26259 14.9777 3.94249 14.8451 3.70649 14.6091C3.47048 14.3731 3.33789 14.053 3.33789 13.7192V8.05612Z" stroke="#1C1D1F" stroke-linecap="round" stroke-linejoin="round"/>
<path d="M7.38867 11.9715C7.38867 11.0806 8.11087 10.3584 9.00174 10.3584C9.89262 10.3584 10.6148 11.0806 10.6148 11.9715V14.9773H7.38867V11.9715Z" stroke="#1C1D1F" stroke-linecap="round" stroke-linejoin="round"/>
</svg>
