<svg width="16" height="17" viewBox="0 0 16 17" fill="none" xmlns="http://www.w3.org/2000/svg">
<path d="M9.902 2.04199H6.09538C5.74498 2.04199 5.46094 2.32604 5.46094 2.67643V3.94531C5.46094 4.2957 5.74498 4.57974 6.09538 4.57974H9.902C10.2524 4.57974 10.5364 4.2957 10.5364 3.94531V2.67643C10.5364 2.32604 10.2524 2.04199 9.902 2.04199Z" stroke="#1C1D1F" stroke-linecap="round" stroke-linejoin="round"/>
<path d="M10.539 3.31152H11.8079C12.1444 3.31152 12.4672 3.44521 12.7051 3.68317C12.9431 3.92113 13.0768 4.24387 13.0768 4.5804V13.4625C13.0768 13.7991 12.9431 14.1218 12.7051 14.3598C12.4672 14.5977 12.1444 14.7314 11.8079 14.7314H4.19466C3.85813 14.7314 3.53539 14.5977 3.29743 14.3598C3.05947 14.1218 2.92578 13.7991 2.92578 13.4625V4.5804C2.92578 4.24387 3.05947 3.92113 3.29743 3.68317C3.53539 3.44521 3.85813 3.31152 4.19466 3.31152H5.46353" stroke="#5C5E63" stroke-width="1.4" stroke-linecap="round" stroke-linejoin="round"/>
</svg>
