<svg width="16" height="16" viewBox="2 2 14 14" fill="none" xmlns="http://www.w3.org/2000/svg">
  <path d="M3.15015 8.99988H5.27543C5.70603 8.99988 6.09967 9.24316 6.29224 9.6283C6.4848 10.0134 6.87844 10.2567 7.30904 10.2567H10.9312C11.3618 10.2567 11.7554 10.0134 11.948 9.6283C12.1406 9.24316 12.5342 8.99988 12.9648 8.99988H15.0901M7.21385 3.97253H11.0264C11.7031 3.97253 12.0415 3.97253 12.3402 4.07557C12.6044 4.16669 12.845 4.3154 13.0446 4.51093C13.2704 4.73204 13.4217 5.03469 13.7243 5.63996L15.0858 8.36298C15.2046 8.60051 15.264 8.71928 15.3059 8.84375C15.3431 8.95429 15.3699 9.06804 15.3861 9.18354C15.4043 9.3136 15.4043 9.44638 15.4043 9.71195V11.0108C15.4043 12.0667 15.4043 12.5946 15.1988 12.9979C15.0181 13.3526 14.7297 13.641 14.3749 13.8217C13.9717 14.0272 13.4437 14.0272 12.3879 14.0272H5.85234C4.7965 14.0272 4.26858 14.0272 3.8653 13.8217C3.51057 13.641 3.22216 13.3526 3.04142 12.9979C2.83594 12.5946 2.83594 12.0667 2.83594 11.0108V9.71195C2.83594 9.44638 2.83594 9.3136 2.85415 9.18354C2.87032 9.06804 2.89717 8.95429 2.93436 8.84375C2.97624 8.71928 3.03562 8.60051 3.15439 8.36298L4.5159 5.63996C4.81854 5.03468 4.96986 4.73204 5.19561 4.51093C5.39525 4.3154 5.63586 4.16669 5.90003 4.07557C6.19876 3.97253 6.53712 3.97253 7.21385 3.97253Z" stroke="#1C1D1F" stroke-linecap="round" stroke-width="1.4" stroke-linejoin="round"/>
</svg>
