<svg width="18" height="18" viewBox="0 0 18 18" fill="none" xmlns="http://www.w3.org/2000/svg">
<path d="M3.03003 8.99988H5.15532C5.58591 8.99988 5.97955 9.24316 6.17212 9.6283C6.36469 10.0134 6.75833 10.2567 7.18892 10.2567H10.8111C11.2417 10.2567 11.6353 10.0134 11.8279 9.6283C12.0204 9.24316 12.4141 8.99988 12.8447 8.99988H14.97M7.09373 3.97253H10.9063C11.583 3.97253 11.9214 3.97253 12.2201 4.07557C12.4843 4.16669 12.7249 4.3154 12.9245 4.51093C13.1503 4.73204 13.3016 5.03469 13.6042 5.63996L14.9657 8.36298C15.0845 8.60051 15.1439 8.71928 15.1858 8.84375C15.2229 8.95429 15.2498 9.06804 15.266 9.18354C15.2842 9.3136 15.2842 9.44638 15.2842 9.71195V11.0108C15.2842 12.0667 15.2842 12.5946 15.0787 12.9979C14.898 13.3526 14.6095 13.641 14.2548 13.8217C13.8515 14.0272 13.3236 14.0272 12.2678 14.0272H5.73223C4.67639 14.0272 4.14846 14.0272 3.74519 13.8217C3.39045 13.641 3.10205 13.3526 2.9213 12.9979C2.71582 12.5946 2.71582 12.0667 2.71582 11.0108V9.71195C2.71582 9.44638 2.71582 9.3136 2.73403 9.18354C2.7502 9.06804 2.77705 8.95429 2.81424 8.84375C2.85612 8.71928 2.91551 8.60051 3.03427 8.36298L4.39578 5.63996C4.69842 5.03468 4.84974 4.73204 5.0755 4.51093C5.27513 4.3154 5.51575 4.16669 5.77992 4.07557C6.07864 3.97253 6.41701 3.97253 7.09373 3.97253Z" stroke="#5C5E63" stroke-linecap="round" stroke-linejoin="round"/>
<path d="M12.917 1.99756C14.1839 1.99764 15.2137 3.02277 15.2139 4.29053C15.2139 5.55846 14.1841 6.58341 12.917 6.5835C11.6498 6.5835 10.6191 5.55851 10.6191 4.29053C10.6193 3.02272 11.65 1.99756 12.917 1.99756Z" fill="#FE4C28" stroke="white" stroke-width="1.3"/>
</svg>
