<svg width="14" height="14" viewBox="0 0 14 14" fill="none" xmlns="http://www.w3.org/2000/svg">
<g clip-path="url(#clip0_399_885)">
<ellipse cx="6.99959" cy="1.71365" rx="1.63362" ry="1.34256" fill="#5C5E63"/>
<ellipse cx="6.99945" cy="10.4717" rx="5.5639" ry="2.52905" stroke="#5C5E63" stroke-width="1.3" stroke-linecap="round" stroke-linejoin="round"/>
<path d="M11.811 9.14333L11.0156 5.6861C10.5845 3.81234 8.91653 2.48456 6.99382 2.48456V2.48456C5.07647 2.48456 3.41167 3.80511 2.97529 5.67215L2.16776 9.12709" stroke="#5C5E63" stroke-width="1.3" stroke-linecap="round" stroke-linejoin="round"/>
<circle cx="7.00005" cy="9.13122" r="1.18853" stroke="#5C5E63" stroke-width="1.3" stroke-linecap="round" stroke-linejoin="round"/>
<path d="M9.65527 1.27887C10.9222 1.27895 11.9519 2.30408 11.9521 3.57184C11.9521 4.83977 10.9223 5.86472 9.65527 5.86481C8.38813 5.86481 7.35742 4.83982 7.35742 3.57184C7.35762 2.30403 8.38825 1.27887 9.65527 1.27887Z" fill="#FE4C28" stroke="#FBFBFB" stroke-width="1.3"/>
</g>
<defs>
<clipPath id="clip0_399_885">
<rect width="14" height="14" fill="white"/>
</clipPath>
</defs>
</svg>
