<svg width="16" height="17" viewBox="0 0 16 17" fill="none" xmlns="http://www.w3.org/2000/svg">
<path d="M8.52023 2.19908C8.35617 2.1242 8.17794 2.08545 7.99761 2.08545C7.81728 2.08545 7.63905 2.1242 7.47499 2.19908L2.07875 4.65621C1.96702 4.70551 1.87202 4.78625 1.80533 4.8886C1.73863 4.99095 1.70312 5.1105 1.70312 5.23269C1.70312 5.35487 1.73863 5.47442 1.80533 5.57678C1.87202 5.67913 1.96702 5.75987 2.07875 5.80917L7.48128 8.2726C7.64535 8.34748 7.82358 8.38623 8.00391 8.38623C8.18424 8.38623 8.36246 8.34748 8.52653 8.2726L13.9291 5.81547C14.0408 5.76617 14.1358 5.68543 14.2025 5.58308C14.2692 5.48072 14.3047 5.36118 14.3047 5.23899C14.3047 5.1168 14.2692 4.99725 14.2025 4.8949C14.1358 4.79255 14.0408 4.71181 13.9291 4.66251L8.52023 2.19908Z" stroke="#1C1D1F" stroke-width="1.4" stroke-linecap="round" stroke-linejoin="round"/>
<path d="M1.70313 8.38623C1.70283 8.50679 1.7371 8.62491 1.80187 8.72657C1.86664 8.82824 1.9592 8.90919 2.06857 8.95982L7.48723 11.4244C7.65055 11.4984 7.82777 11.5366 8.00705 11.5366C8.18633 11.5366 8.36354 11.4984 8.52686 11.4244L13.9329 8.96612C14.0445 8.91598 14.139 8.83445 14.205 8.73148C14.271 8.62851 14.3056 8.50855 14.3047 8.38623" stroke="#1C1D1F" stroke-width="1.4" stroke-linecap="round" stroke-linejoin="round"/>
<path d="M1.70313 11.5366C1.70283 11.6572 1.7371 11.7753 1.80187 11.877C1.86664 11.9786 1.9592 12.0596 2.06857 12.1102L7.48723 14.5748C7.65055 14.6487 7.82777 14.687 8.00705 14.687C8.18633 14.687 8.36354 14.6487 8.52686 14.5748L13.9329 12.1165C14.0445 12.0664 14.139 11.9848 14.205 11.8819C14.271 11.7789 14.3056 11.6589 14.3047 11.5366" stroke="#1C1D1F" stroke-width="1.4" stroke-linecap="round" stroke-linejoin="round"/>
</svg>
