<svg width="14" height="14" viewBox="0 0 14 14" fill="none" xmlns="http://www.w3.org/2000/svg">
<g clip-path="url(#clip0_399_913)">
<path d="M7.00033 8.72596C7.95364 8.72596 8.72645 7.95315 8.72645 6.99984C8.72645 6.04653 7.95364 5.27371 7.00033 5.27371C6.04701 5.27371 5.2742 6.04653 5.2742 6.99984C5.2742 7.95315 6.04701 8.72596 7.00033 8.72596Z" stroke="#5C5E63" stroke-width="1.3" stroke-linecap="round" stroke-linejoin="round"/>
<path d="M10.871 8.56904C10.8014 8.72681 10.7806 8.90181 10.8114 9.07149C10.8422 9.24117 10.9231 9.39775 11.0436 9.52102L11.075 9.55241C11.1723 9.64956 11.2494 9.76494 11.3021 9.89194C11.3547 10.0189 11.3818 10.1551 11.3818 10.2925C11.3818 10.43 11.3547 10.5662 11.3021 10.6932C11.2494 10.8202 11.1723 10.9355 11.075 11.0327C10.9779 11.13 10.8625 11.2071 10.7355 11.2598C10.6085 11.3124 10.4724 11.3395 10.3349 11.3395C10.1974 11.3395 10.0613 11.3124 9.93427 11.2598C9.80728 11.2071 9.6919 11.13 9.59474 11.0327L9.56336 11.0013C9.44008 10.8807 9.28351 10.7998 9.11383 10.7691C8.94415 10.7383 8.76914 10.7591 8.61137 10.8287C8.45667 10.895 8.32472 11.0051 8.23179 11.1454C8.13885 11.2858 8.08898 11.4502 8.08831 11.6185V11.7074C8.08831 11.9849 7.97809 12.251 7.7819 12.4472C7.58571 12.6434 7.31962 12.7536 7.04217 12.7536C6.76472 12.7536 6.49863 12.6434 6.30244 12.4472C6.10625 12.251 5.99604 11.9849 5.99604 11.7074V11.6604C5.99199 11.4872 5.93594 11.3193 5.8352 11.1785C5.73445 11.0376 5.59366 10.9303 5.43112 10.8705C5.27336 10.8009 5.09835 10.7801 4.92867 10.8109C4.75899 10.8417 4.60242 10.9226 4.47914 11.0431L4.44776 11.0745C4.3506 11.1718 4.23522 11.249 4.10822 11.3016C3.98122 11.3543 3.84509 11.3814 3.70761 11.3814C3.57014 11.3814 3.43401 11.3543 3.30701 11.3016C3.18001 11.249 3.06463 11.1718 2.96747 11.0745C2.87021 10.9774 2.79305 10.862 2.7404 10.735C2.68775 10.608 2.66066 10.4719 2.66066 10.3344C2.66066 10.1969 2.68775 10.0608 2.7404 9.93379C2.79305 9.80679 2.87021 9.69141 2.96747 9.59425L2.99886 9.56287C3.11944 9.43959 3.20034 9.28302 3.2311 9.11334C3.26187 8.94366 3.2411 8.76865 3.17147 8.61088C3.10517 8.45618 2.99507 8.32424 2.85474 8.2313C2.7144 8.13836 2.54995 8.08849 2.38164 8.08782H2.29272C2.01526 8.08782 1.74918 7.9776 1.55299 7.78141C1.3568 7.58522 1.24658 7.31913 1.24658 7.04168C1.24658 6.76423 1.3568 6.49814 1.55299 6.30195C1.74918 6.10576 2.01526 5.99555 2.29272 5.99555H2.33979C2.51293 5.9915 2.68084 5.93546 2.82169 5.83471C2.96255 5.73396 3.06985 5.59317 3.12963 5.43063C3.19925 5.27287 3.22002 5.09786 3.18926 4.92818C3.15849 4.7585 3.0776 4.60193 2.95701 4.47865L2.92563 4.44727C2.82836 4.35011 2.7512 4.23473 2.69856 4.10773C2.64591 3.98074 2.61881 3.8446 2.61881 3.70713C2.61881 3.56965 2.64591 3.43352 2.69856 3.30652C2.7512 3.17952 2.82836 3.06414 2.92563 2.96699C3.02279 2.86972 3.13816 2.79256 3.26516 2.73991C3.39216 2.68727 3.52829 2.66017 3.66577 2.66017C3.80325 2.66017 3.93938 2.68727 4.06638 2.73991C4.19338 2.79256 4.30875 2.86972 4.40591 2.96699L4.43729 2.99837C4.56057 3.11896 4.71714 3.19985 4.88682 3.23061C5.0565 3.26138 5.23151 3.24061 5.38928 3.17098H5.43112C5.58583 3.10468 5.71777 2.99458 5.81071 2.85425C5.90365 2.71391 5.95352 2.54947 5.95419 2.38115V2.29223C5.95419 2.01478 6.06441 1.74869 6.2606 1.5525C6.45678 1.35631 6.72287 1.24609 7.00033 1.24609C7.27778 1.24609 7.54387 1.35631 7.74005 1.5525C7.93624 1.74869 8.04646 2.01478 8.04646 2.29223V2.3393C8.04713 2.50762 8.09701 2.67207 8.18994 2.8124C8.28288 2.95274 8.41482 3.06283 8.56953 3.12914C8.72729 3.19877 8.9023 3.21954 9.07198 3.18877C9.24166 3.158 9.39823 3.07711 9.52151 2.95652L9.55289 2.92514C9.65005 2.82787 9.76543 2.75071 9.89243 2.69807C10.0194 2.64542 10.1556 2.61832 10.293 2.61832C10.4305 2.61832 10.5666 2.64542 10.6936 2.69807C10.8206 2.75071 10.936 2.82787 11.0332 2.92514C11.1304 3.0223 11.2076 3.13768 11.2603 3.26467C11.3129 3.39167 11.34 3.5278 11.34 3.66528C11.34 3.80276 11.3129 3.93889 11.2603 4.06589C11.2076 4.19289 11.1304 4.30826 11.0332 4.40542L11.0018 4.43681C10.8812 4.56008 10.8003 4.71666 10.7695 4.88634C10.7388 5.05602 10.7596 5.23102 10.8292 5.38879V5.43063C10.8955 5.58534 11.0056 5.71728 11.1459 5.81022C11.2862 5.90316 11.4507 5.95303 11.619 5.9537H11.7079C11.9854 5.9537 12.2515 6.06392 12.4477 6.26011C12.6439 6.4563 12.7541 6.72238 12.7541 6.99984C12.7541 7.27729 12.6439 7.54338 12.4477 7.73957C12.2515 7.93575 11.9854 8.04597 11.7079 8.04597H11.6609C11.4925 8.04664 11.3281 8.09652 11.1878 8.18945C11.0474 8.28239 10.9373 8.41433 10.871 8.56904Z" stroke="#5C5E63" stroke-width="1.3" stroke-linecap="round" stroke-linejoin="round"/>
</g>
<defs>
<clipPath id="clip0_399_913">
<rect width="14" height="14" fill="white"/>
</clipPath>
</defs>
</svg>
