<svg width="18" height="18" viewBox="0 0 18 18" fill="none" xmlns="http://www.w3.org/2000/svg">
<path d="M8.99984 10.7535C9.96836 10.7535 10.7535 9.96836 10.7535 8.99984C10.7535 8.03132 9.96836 7.24617 8.99984 7.24617C8.03132 7.24617 7.24617 8.03132 7.24617 8.99984C7.24617 9.96836 8.03132 10.7535 8.99984 10.7535Z" stroke="#5C5E63" stroke-width="1.3" stroke-linecap="round" stroke-linejoin="round"/>
<path d="M12.9323 10.5941C12.8616 10.7544 12.8405 10.9322 12.8717 11.1045C12.903 11.2769 12.9851 11.436 13.1077 11.5612L13.1395 11.5931C13.2384 11.6918 13.3168 11.8091 13.3702 11.9381C13.4237 12.0671 13.4513 12.2054 13.4513 12.3451C13.4513 12.4848 13.4237 12.6231 13.3702 12.7521C13.3168 12.8811 13.2384 12.9983 13.1395 13.097C13.0408 13.1958 12.9236 13.2742 12.7946 13.3277C12.6656 13.3812 12.5273 13.4087 12.3876 13.4087C12.2479 13.4087 12.1096 13.3812 11.9806 13.3277C11.8516 13.2742 11.7344 13.1958 11.6356 13.097L11.6038 13.0651C11.4785 12.9426 11.3194 12.8605 11.1471 12.8292C10.9747 12.7979 10.7969 12.819 10.6366 12.8898C10.4794 12.9571 10.3454 13.069 10.2509 13.2116C10.1565 13.3541 10.1059 13.5212 10.1052 13.6922V13.7826C10.1052 14.0644 9.9932 14.3348 9.79388 14.5341C9.59456 14.7334 9.32423 14.8454 9.04235 14.8454C8.76047 14.8454 8.49014 14.7334 8.29082 14.5341C8.0915 14.3348 7.97952 14.0644 7.97952 13.7826V13.7347C7.97541 13.5588 7.91848 13.3882 7.81612 13.2451C7.71377 13.102 7.57073 12.993 7.4056 12.9323C7.24532 12.8616 7.06752 12.8405 6.89513 12.8717C6.72274 12.903 6.56367 12.9851 6.43843 13.1077L6.40654 13.1395C6.30783 13.2384 6.19062 13.3168 6.06159 13.3702C5.93257 13.4237 5.79427 13.4513 5.65459 13.4513C5.51492 13.4513 5.37662 13.4237 5.2476 13.3702C5.11857 13.3168 5.00135 13.2384 4.90264 13.1395C4.80383 13.0408 4.72543 12.9236 4.67195 12.7946C4.61846 12.6656 4.59093 12.5273 4.59093 12.3876C4.59093 12.2479 4.61846 12.1096 4.67195 11.9806C4.72543 11.8516 4.80383 11.7344 4.90264 11.6356L4.93453 11.6038C5.05704 11.4785 5.13922 11.3194 5.17048 11.1471C5.20174 10.9747 5.18063 10.7969 5.1099 10.6366C5.04253 10.4794 4.93068 10.3454 4.78811 10.2509C4.64553 10.1565 4.47846 10.1059 4.30746 10.1052H4.21712C3.93524 10.1052 3.66491 9.9932 3.46559 9.79388C3.26627 9.59456 3.1543 9.32423 3.1543 9.04235C3.1543 8.76047 3.26627 8.49014 3.46559 8.29082C3.66491 8.0915 3.93524 7.97952 4.21712 7.97952H4.26495C4.44084 7.97541 4.61143 7.91848 4.75454 7.81612C4.89765 7.71377 5.00665 7.57073 5.06738 7.4056C5.13812 7.24532 5.15922 7.06752 5.12797 6.89513C5.09671 6.72274 5.01453 6.56367 4.89202 6.43843L4.86013 6.40654C4.76131 6.30783 4.68292 6.19062 4.62944 6.06159C4.57595 5.93257 4.54842 5.79427 4.54842 5.65459C4.54842 5.51492 4.57595 5.37662 4.62944 5.2476C4.68292 5.11857 4.76131 5.00135 4.86013 4.90264C4.95884 4.80383 5.07606 4.72543 5.20508 4.67195C5.33411 4.61846 5.47241 4.59093 5.61208 4.59093C5.75175 4.59093 5.89005 4.61846 6.01908 4.67195C6.1481 4.72543 6.26532 4.80383 6.36403 4.90264L6.39591 4.93453C6.52116 5.05704 6.68023 5.13922 6.85262 5.17048C7.025 5.20174 7.2028 5.18063 7.36309 5.1099H7.4056C7.56277 5.04253 7.69682 4.93068 7.79124 4.78811C7.88566 4.64553 7.93633 4.47846 7.93701 4.30746V4.21712C7.93701 3.93524 8.04899 3.66491 8.24831 3.46559C8.44762 3.26627 8.71796 3.1543 8.99984 3.1543C9.28172 3.1543 9.55205 3.26627 9.75137 3.46559C9.95069 3.66491 10.0627 3.93524 10.0627 4.21712V4.26495C10.0633 4.43595 10.114 4.60302 10.2084 4.74559C10.3029 4.88817 10.4369 5.00002 10.5941 5.06738C10.7544 5.13812 10.9322 5.15922 11.1045 5.12797C11.2769 5.09671 11.436 5.01453 11.5612 4.89202L11.5931 4.86013C11.6918 4.76131 11.8091 4.68292 11.9381 4.62944C12.0671 4.57595 12.2054 4.54842 12.3451 4.54842C12.4848 4.54842 12.6231 4.57595 12.7521 4.62944C12.8811 4.68292 12.9983 4.76131 13.097 4.86013C13.1958 4.95884 13.2742 5.07606 13.3277 5.20508C13.3812 5.33411 13.4087 5.47241 13.4087 5.61208C13.4087 5.75175 13.3812 5.89005 13.3277 6.01908C13.2742 6.1481 13.1958 6.26532 13.097 6.36403L13.0651 6.39591C12.9426 6.52116 12.8605 6.68023 12.8292 6.85262C12.7979 7.025 12.819 7.2028 12.8898 7.36309V7.4056C12.9571 7.56277 13.069 7.69682 13.2116 7.79124C13.3541 7.88566 13.5212 7.93633 13.6922 7.93701H13.7826C14.0644 7.93701 14.3348 8.04899 14.5341 8.24831C14.7334 8.44762 14.8454 8.71796 14.8454 8.99984C14.8454 9.28172 14.7334 9.55205 14.5341 9.75137C14.3348 9.95069 14.0644 10.0627 13.7826 10.0627H13.7347C13.5637 10.0633 13.3967 10.114 13.2541 10.2084C13.1115 10.3029 12.9997 10.4369 12.9323 10.5941Z" stroke="#5C5E63" stroke-width="1.3" stroke-linecap="round" stroke-linejoin="round"/>
</svg>
