<svg width="16" height="17" viewBox="0 0 16 17" fill="none" xmlns="http://www.w3.org/2000/svg">
<path d="M10.6615 14.3867V13.0534C10.6615 12.3461 10.3805 11.6679 9.88041 11.1678C9.38031 10.6677 8.70204 10.3867 7.99479 10.3867H3.99479C3.28755 10.3867 2.60927 10.6677 2.10917 11.1678C1.60908 11.6679 1.32813 12.3461 1.32812 13.0534V14.3867" stroke="#1C1D1F" stroke-width="1.4" stroke-linecap="round" stroke-linejoin="round"/>
<path d="M10.6719 2.47217C11.2437 2.62041 11.7501 2.95434 12.1117 3.42154C12.4732 3.88874 12.6693 4.46276 12.6693 5.0535C12.6693 5.64424 12.4732 6.21826 12.1117 6.68546C11.7501 7.15266 11.2437 7.48659 10.6719 7.63483" stroke="#1C1D1F" stroke-width="1.4" stroke-linecap="round" stroke-linejoin="round"/>
<path d="M14.6719 14.3865V13.0531C14.6714 12.4623 14.4748 11.8883 14.1128 11.4214C13.7508 10.9544 13.244 10.6209 12.6719 10.4731" stroke="#1C1D1F" stroke-width="1.4" stroke-linecap="round" stroke-linejoin="round"/>
<path d="M5.99479 7.72005C7.46755 7.72005 8.66146 6.52614 8.66146 5.05339C8.66146 3.58063 7.46755 2.38672 5.99479 2.38672C4.52203 2.38672 3.32812 3.58063 3.32812 5.05339C3.32812 6.52614 4.52203 7.72005 5.99479 7.72005Z" stroke="#1C1D1F" stroke-width="1.4" stroke-linecap="round" stroke-linejoin="round"/>
</svg>
