<svg width="14" height="15" viewBox="0 0 14 15" fill="none" xmlns="http://www.w3.org/2000/svg">
<path d="M9.33341 12.4176V11.7176C9.33341 10.7376 9.33341 10.2475 9.14268 9.87316C8.9749 9.54388 8.70718 9.27616 8.3779 9.10838C8.00355 8.91764 7.51351 8.91764 6.53341 8.91764H3.96675C2.98666 8.91764 2.49661 8.91764 2.12226 9.10838C1.79298 9.27616 1.52527 9.54388 1.35749 9.87316C1.16675 10.2475 1.16675 10.7376 1.16675 11.7176V12.4176M9.33341 3.66764L10.5001 4.83431L12.8334 2.50098M7.29175 4.54264C7.29175 5.67022 6.37766 6.58431 5.25008 6.58431C4.1225 6.58431 3.20841 5.67022 3.20841 4.54264C3.20841 3.41506 4.1225 2.50098 5.25008 2.50098C6.37766 2.50098 7.29175 3.41506 7.29175 4.54264Z" stroke="#5C5E63" stroke-linecap="round" stroke-linejoin="round"/>
</svg>
