<svg width="14" height="14" viewBox="0 0 14 14" fill="none" xmlns="http://www.w3.org/2000/svg">
<path d="M11.8125 5.93049H2.1875M9.13889 1.65271V3.7916M4.86111 1.65271V3.7916M4.75417 12.3472H9.24583C10.1443 12.3472 10.5935 12.3472 10.9366 12.1723C11.2385 12.0185 11.4839 11.7731 11.6377 11.4713C11.8125 11.1281 11.8125 10.6789 11.8125 9.78049V5.28882C11.8125 4.3904 11.8125 3.94119 11.6377 3.59804C11.4839 3.2962 11.2385 3.0508 10.9366 2.897C10.5935 2.72215 10.1443 2.72215 9.24583 2.72215H4.75417C3.85575 2.72215 3.40654 2.72215 3.06339 2.897C2.76155 3.0508 2.51614 3.2962 2.36234 3.59804C2.1875 3.94119 2.1875 4.3904 2.1875 5.28882V9.78049C2.1875 10.6789 2.1875 11.1281 2.36234 11.4713C2.51614 11.7731 2.76155 12.0185 3.06339 12.1723C3.40654 12.3472 3.85575 12.3472 4.75417 12.3472Z" stroke="#5C5E63" stroke-linecap="round" stroke-linejoin="round"/>
</svg>
