<svg width="14" height="14" viewBox="0 0 14 14" fill="none" xmlns="http://www.w3.org/2000/svg">
<path d="M1.49023 7.00033H12.5104M1.49023 7.00033C1.49023 10.0435 3.95719 12.5104 7.00033 12.5104M1.49023 7.00033C1.49023 3.95719 3.95719 1.49023 7.00033 1.49023M12.5104 7.00033C12.5104 10.0435 10.0435 12.5104 7.00033 12.5104M12.5104 7.00033C12.5104 3.95719 10.0435 1.49023 7.00033 1.49023M7.00033 1.49023C8.37855 2.99909 9.1618 4.9572 9.20436 7.00033C9.1618 9.04345 8.37855 11.0016 7.00033 12.5104M7.00033 1.49023C5.6221 2.99909 4.83885 4.9572 4.79629 7.00033C4.83885 9.04345 5.6221 11.0016 7.00033 12.5104" stroke="#5C5E63" stroke-width="1.3" stroke-linecap="round" stroke-linejoin="round"/>
</svg>
