<svg width="14" height="14" viewBox="0 0 14 14" fill="none" xmlns="http://www.w3.org/2000/svg">
<path d="M12.1814 7.36237C12.3272 7.2374 12.4001 7.17491 12.4268 7.10055C12.4502 7.03529 12.4502 6.9639 12.4268 6.89864C12.4001 6.82428 12.3272 6.76179 12.1814 6.63682L7.12219 2.3004C6.87121 2.08527 6.74572 1.9777 6.63947 1.97507C6.54714 1.97278 6.45894 2.01334 6.40058 2.08494C6.33344 2.16732 6.33344 2.33261 6.33344 2.66317V5.22852C5.0585 5.45157 3.89163 6.0976 3.02449 7.0676C2.07911 8.12513 1.55616 9.49369 1.55542 10.9122V11.2777C2.18214 10.5227 2.96464 9.91211 3.84932 9.4877C4.6293 9.11353 5.47245 8.89188 6.33344 8.83348V11.336C6.33344 11.6666 6.33344 11.8319 6.40058 11.9143C6.45894 11.9858 6.54714 12.0264 6.63947 12.0241C6.74572 12.0215 6.87121 11.9139 7.12219 11.6988L12.1814 7.36237Z" stroke="#5C5E63" stroke-width="1.3" stroke-linecap="round" stroke-linejoin="round"/>
</svg>
