<svg width="18" height="18" viewBox="0 0 18 18" fill="none" xmlns="http://www.w3.org/2000/svg">
<g clip-path="url(#clip0_7526_107942)">
<rect width="18" height="18" rx="6" fill="url(#paint0_radial_7526_107942)"/>
<rect width="18" height="18" rx="6" fill="url(#paint1_radial_7526_107942)"/>
<rect width="18" height="18" rx="6" fill="url(#paint2_radial_7526_107942)"/>
<path d="M12.9001 5.93513C12.9001 6.39673 12.5259 6.77093 12.0643 6.77093C11.6027 6.77093 11.2285 6.39673 11.2285 5.93513C11.2285 5.47353 11.6027 5.09933 12.0643 5.09933C12.5259 5.09933 12.9001 5.47353 12.9001 5.93513Z" fill="white"/>
<path fill-rule="evenodd" clip-rule="evenodd" d="M8.99973 11.7857C10.5384 11.7857 11.7857 10.5384 11.7857 8.99973C11.7857 7.46106 10.5384 6.21373 8.99973 6.21373C7.46106 6.21373 6.21373 7.46106 6.21373 8.99973C6.21373 10.5384 7.46106 11.7857 8.99973 11.7857ZM8.99973 10.6713C9.92292 10.6713 10.6713 9.92292 10.6713 8.99973C10.6713 8.07653 9.92292 7.32813 8.99973 7.32813C8.07653 7.32813 7.32813 8.07653 7.32813 8.99973C7.32813 9.92292 8.07653 10.6713 8.99973 10.6713Z" fill="white"/>
<path fill-rule="evenodd" clip-rule="evenodd" d="M3.42773 8.77685C3.42773 6.90448 3.42773 5.9683 3.79212 5.25315C4.11264 4.62409 4.62409 4.11264 5.25315 3.79212C5.9683 3.42773 6.90448 3.42773 8.77685 3.42773H9.22261C11.095 3.42773 12.0312 3.42773 12.7463 3.79212C13.3754 4.11264 13.8868 4.62409 14.2073 5.25315C14.5717 5.9683 14.5717 6.90448 14.5717 8.77685V9.22261C14.5717 11.095 14.5717 12.0312 14.2073 12.7463C13.8868 13.3754 13.3754 13.8868 12.7463 14.2073C12.0312 14.5717 11.095 14.5717 9.22261 14.5717H8.77685C6.90448 14.5717 5.9683 14.5717 5.25315 14.2073C4.62409 13.8868 4.11264 13.3754 3.79212 12.7463C3.42773 12.0312 3.42773 11.095 3.42773 9.22261V8.77685ZM8.77685 4.54213H9.22261C10.1772 4.54213 10.8261 4.543 11.3277 4.58398C11.8162 4.6239 12.0661 4.69625 12.2404 4.78506C12.6597 4.99874 13.0007 5.3397 13.2144 5.75908C13.3032 5.93337 13.3756 6.18322 13.4155 6.67179C13.4565 7.17337 13.4573 7.82228 13.4573 8.77685V9.22261C13.4573 10.1772 13.4565 10.8261 13.4155 11.3277C13.3756 11.8162 13.3032 12.0661 13.2144 12.2404C13.0007 12.6597 12.6597 13.0007 12.2404 13.2144C12.0661 13.3032 11.8162 13.3756 11.3277 13.4155C10.8261 13.4565 10.1772 13.4573 9.22261 13.4573H8.77685C7.82228 13.4573 7.17337 13.4565 6.67179 13.4155C6.18322 13.3756 5.93337 13.3032 5.75908 13.2144C5.3397 13.0007 4.99874 12.6597 4.78506 12.2404C4.69625 12.0661 4.6239 11.8162 4.58398 11.3277C4.543 10.8261 4.54213 10.1772 4.54213 9.22261V8.77685C4.54213 7.82228 4.543 7.17337 4.58398 6.67179C4.6239 6.18322 4.69625 5.93337 4.78506 5.75908C4.99874 5.3397 5.3397 4.99874 5.75908 4.78506C5.93337 4.69625 6.18322 4.6239 6.67179 4.58398C7.17337 4.543 7.82228 4.54213 8.77685 4.54213Z" fill="white"/>
</g>
<defs>
<radialGradient id="paint0_radial_7526_107942" cx="0" cy="0" r="1" gradientUnits="userSpaceOnUse" gradientTransform="translate(6.42857 13.5) rotate(-55.3758) scale(16.4055)">
<stop stop-color="#B13589"/>
<stop offset="0.79309" stop-color="#C62F94"/>
<stop offset="1" stop-color="#8A3AC8"/>
</radialGradient>
<radialGradient id="paint1_radial_7526_107942" cx="0" cy="0" r="1" gradientUnits="userSpaceOnUse" gradientTransform="translate(5.78571 18.6429) rotate(-65.1363) scale(14.5249)">
<stop stop-color="#E0E8B7"/>
<stop offset="0.444662" stop-color="#FB8A2E"/>
<stop offset="0.71474" stop-color="#E2425C"/>
<stop offset="1" stop-color="#E2425C" stop-opacity="0"/>
</radialGradient>
<radialGradient id="paint2_radial_7526_107942" cx="0" cy="0" r="1" gradientUnits="userSpaceOnUse" gradientTransform="translate(-0.964285 0.642857) rotate(-8.1301) scale(25.0013 5.34751)">
<stop offset="0.156701" stop-color="#406ADC"/>
<stop offset="0.467799" stop-color="#6A45BE"/>
<stop offset="1" stop-color="#6A45BE" stop-opacity="0"/>
</radialGradient>
<clipPath id="clip0_7526_107942">
<rect width="18" height="18" rx="9" fill="white"/>
</clipPath>
</defs>
</svg>
