<svg width="18" height="18" viewBox="0 0 18 18" fill="none" xmlns="http://www.w3.org/2000/svg">
<rect width="18" height="18" rx="9" fill="#060A13"/>
<path d="M5.35976 10.8283C5.4351 10.2044 5.69096 9.85515 6.17312 9.49709C6.863 9.01215 7.72476 9.28647 7.72476 9.28647V7.65915C7.93426 7.6538 8.14384 7.66622 8.35106 7.69626V9.79046C8.35106 9.79046 7.48956 9.51614 6.79969 10.0013C6.31779 10.3591 6.06141 10.7087 5.98633 11.3325C5.98397 11.6713 6.04754 12.1141 6.34029 12.497C6.26791 12.4598 6.19414 12.4176 6.11896 12.3701C5.47408 11.9371 5.35662 11.2874 5.35976 10.8283ZM11.9093 4.65026C11.4347 4.13022 11.2552 3.60517 11.1904 3.23633H11.7874C11.7874 3.23633 11.6683 4.20344 12.5359 5.1545L12.5479 5.16729C12.3141 5.02021 12.0997 4.84661 11.9093 4.65026ZM14.7852 6.12462V8.17668C14.7852 8.17668 14.0234 8.14685 13.4596 8.00342C12.6724 7.80283 12.1665 7.49517 12.1665 7.49517C12.1665 7.49517 11.8169 7.27577 11.7887 7.26048V11.498C11.7887 11.734 11.7241 12.3232 11.5271 12.8146C11.2699 13.4575 10.873 13.8795 10.8 13.9658C10.8 13.9658 10.3174 14.5362 9.4658 14.9204C8.69822 15.2669 8.0243 15.2581 7.82286 15.2669C7.82286 15.2669 6.65789 15.313 5.6096 14.6318C5.38291 14.4816 5.17131 14.3115 4.97754 14.1238L4.98277 14.1275C6.03132 14.8088 7.19603 14.7627 7.19603 14.7627C7.39774 14.7539 8.07166 14.7627 8.83897 14.4161C9.68974 14.032 10.1732 13.4616 10.1732 13.4616C10.2454 13.3753 10.6441 12.9533 10.9002 12.3102C11.0967 11.819 11.1618 11.2295 11.1618 10.9935V6.75649C11.1901 6.77203 11.5394 6.99143 11.5394 6.99143C11.5394 6.99143 12.0456 7.29934 12.8328 7.49968C13.3968 7.64311 14.1584 7.67294 14.1584 7.67294V6.06494C14.419 6.12336 14.6411 6.13916 14.7852 6.12462Z" fill="#EE1D52"/>
<path d="M14.1586 6.06494V7.67244C14.1586 7.67244 13.3971 7.6426 12.833 7.49918C12.0458 7.29859 11.5396 6.99093 11.5396 6.99093C11.5396 6.99093 11.1904 6.77153 11.1621 6.75598V10.994C11.1621 11.23 11.0975 11.8195 10.9005 12.3107C10.6433 12.9538 10.2465 13.3758 10.1735 13.4621C10.1735 13.4621 9.69053 14.0325 8.83923 14.4166C8.07192 14.7632 7.398 14.7544 7.19629 14.7632C7.19629 14.7632 6.03158 14.8093 4.98303 14.128L4.9778 14.1243C4.86709 14.0171 4.76289 13.9039 4.66569 13.7853C4.33109 13.3773 4.12598 12.8949 4.07444 12.7572C4.07435 12.7566 4.07435 12.7561 4.07444 12.7555C3.99151 12.5163 3.81727 11.9418 3.84108 11.3854C3.8832 10.4038 4.22853 9.80124 4.31984 9.65029C4.56165 9.23866 4.87615 8.87038 5.24935 8.56182C5.57868 8.29557 5.95196 8.08372 6.35389 7.93497C6.78839 7.76032 7.25366 7.66671 7.72475 7.65915V9.28646C7.72475 9.28646 6.86299 9.01316 6.17338 9.49709C5.69122 9.85514 5.43536 10.2044 5.36002 10.8283C5.35688 11.2874 5.47434 11.9371 6.1187 12.3703C6.19387 12.418 6.26764 12.4603 6.34003 12.4972C6.45259 12.6435 6.58961 12.771 6.74553 12.8746C7.37497 13.273 7.90239 13.3008 8.57683 13.0421C9.02655 12.8691 9.36508 12.4792 9.52205 12.0471C9.62068 11.7773 9.61937 11.5058 9.61937 11.2249V3.23633H11.1891C11.2539 3.60517 11.4334 4.13022 11.908 4.65026C12.0983 4.84661 12.3128 5.02021 12.5466 5.16729C12.6156 5.23875 12.9688 5.59204 13.4222 5.80893C13.6566 5.92104 13.9037 6.00694 14.1586 6.06494Z" fill="white"/>
<path d="M3.44922 12.2573V12.2586L3.48817 12.3641C3.48369 12.3519 3.46922 12.3145 3.44922 12.2573Z" fill="#69C9D0"/>
<path d="M6.35398 7.93489C5.95205 8.08364 5.57877 8.29549 5.24944 8.56175C4.87612 8.871 4.56169 9.24006 4.32018 9.65247C4.22888 9.80291 3.88355 10.4059 3.84143 11.3876C3.81762 11.944 3.99186 12.5184 4.07479 12.7576C4.0747 12.7582 4.0747 12.7588 4.07479 12.7594C4.12711 12.8958 4.33143 13.3782 4.66604 13.7874C4.76323 13.9061 4.86744 14.0193 4.97814 14.1264C4.62344 13.8913 4.30711 13.6071 4.03947 13.283C3.70774 12.8785 3.50316 12.4011 3.44979 12.2602C3.44973 12.2592 3.44973 12.2582 3.44979 12.2572V12.2554C3.3666 12.0165 3.19184 11.4418 3.21617 10.8846C3.25829 9.90296 3.60362 9.30043 3.69492 9.14948C3.93636 8.73703 4.2508 8.36795 4.62418 8.05876C4.95344 7.79241 5.32674 7.58055 5.72872 7.4319C5.97945 7.3322 6.24065 7.25864 6.50781 7.21251C6.91042 7.14515 7.32162 7.13931 7.72615 7.19521V7.65908C7.25461 7.66647 6.78888 7.76008 6.35398 7.93489Z" fill="#69C9D0"/>
<path d="M11.1909 3.23594H9.62121V11.2248C9.62121 11.5056 9.62121 11.7764 9.52389 12.047C9.36535 12.4788 9.02813 12.8687 8.57867 13.0417C7.90397 13.3014 7.37655 13.2726 6.74737 12.8742C6.59118 12.7711 6.45381 12.644 6.34082 12.4981C6.87687 12.7721 7.35667 12.7674 7.95106 12.5387C8.40025 12.3657 8.738 11.9758 8.89601 11.5437C8.9949 11.2739 8.99359 11.0024 8.99359 10.7218V2.73145H11.1611C11.1611 2.73145 11.1367 2.93003 11.1909 3.23594ZM14.1592 5.61998V6.06455C13.9047 6.00646 13.6581 5.92056 13.424 5.80854C12.9707 5.59165 12.6175 5.23836 12.5484 5.1669C12.6286 5.21733 12.7117 5.26321 12.7975 5.3043C13.3487 5.56808 13.8915 5.64681 14.1592 5.61998Z" fill="#69C9D0"/>
</svg>
