<svg width="14" height="15" viewBox="0 0 14 15" fill="none" xmlns="http://www.w3.org/2000/svg">
<path d="M1.16602 7.49996C1.16602 10.7216 3.77769 13.3333 6.99935 13.3333C7.96585 13.3333 8.74935 12.5498 8.74935 11.5833V11.2916C8.74935 11.0207 8.74935 10.8853 8.76432 10.7715C8.8677 9.98625 9.48564 9.36832 10.2709 9.26493C10.3846 9.24996 10.5201 9.24996 10.791 9.24996H11.0827C12.0492 9.24996 12.8327 8.46646 12.8327 7.49996C12.8327 4.2783 10.221 1.66663 6.99935 1.66663C3.77769 1.66663 1.16602 4.2783 1.16602 7.49996Z" stroke="#838488" stroke-width="1.3" stroke-linecap="round" stroke-linejoin="round"/>
<path d="M4.08268 8.08329C4.40485 8.08329 4.66602 7.82213 4.66602 7.49996C4.66602 7.17779 4.40485 6.91663 4.08268 6.91663C3.76052 6.91663 3.49935 7.17779 3.49935 7.49996C3.49935 7.82213 3.76052 8.08329 4.08268 8.08329Z" stroke="#838488" stroke-width="1.3" stroke-linecap="round" stroke-linejoin="round"/>
<path d="M9.33268 5.74996C9.65485 5.74996 9.91602 5.48879 9.91602 5.16663C9.91602 4.84446 9.65485 4.58329 9.33268 4.58329C9.01052 4.58329 8.74935 4.84446 8.74935 5.16663C8.74935 5.48879 9.01052 5.74996 9.33268 5.74996Z" stroke="#838488" stroke-width="1.3" stroke-linecap="round" stroke-linejoin="round"/>
<path d="M5.83268 5.16663C6.15485 5.16663 6.41602 4.90546 6.41602 4.58329C6.41602 4.26113 6.15485 3.99996 5.83268 3.99996C5.51052 3.99996 5.24935 4.26113 5.24935 4.58329C5.24935 4.90546 5.51052 5.16663 5.83268 5.16663Z" stroke="#838488" stroke-width="1.3" stroke-linecap="round" stroke-linejoin="round"/>
</svg>
