<svg width="15" height="10" viewBox="0 0 15 10" fill="none" xmlns="http://www.w3.org/2000/svg">
<path d="M2.19884 9.5H0.801108L3.94173 0.772727H5.46304L8.60367 9.5H7.20594L4.73861 2.35795H4.67043L2.19884 9.5ZM2.43321 6.08239H6.9673V7.19034H2.43321V6.08239ZM11.4265 9.64489C11.0117 9.64489 10.6367 9.56818 10.3015 9.41477C9.96629 9.25852 9.70067 9.03267 9.50465 8.73722C9.31146 8.44176 9.21487 8.07955 9.21487 7.65057C9.21487 7.28125 9.2859 6.97727 9.42794 6.73864C9.56999 6.5 9.76175 6.31108 10.0032 6.17188C10.2447 6.03267 10.5146 5.92756 10.8129 5.85653C11.1112 5.78551 11.4152 5.73153 11.7248 5.6946C12.1169 5.64915 12.435 5.61222 12.6794 5.58381C12.9237 5.55256 13.1012 5.50284 13.212 5.43466C13.3228 5.36648 13.3782 5.25568 13.3782 5.10227V5.07244C13.3782 4.70028 13.2731 4.41193 13.0629 4.20739C12.8555 4.00284 12.5458 3.90057 12.1339 3.90057C11.7049 3.90057 11.3669 3.99574 11.1197 4.18608C10.8754 4.37358 10.7063 4.58239 10.6126 4.8125L9.41516 4.53977C9.5572 4.14205 9.76459 3.82102 10.0373 3.5767C10.3129 3.32955 10.6296 3.15057 10.9876 3.03977C11.3456 2.92614 11.722 2.86932 12.1169 2.86932C12.3782 2.86932 12.6552 2.90057 12.9478 2.96307C13.2433 3.02273 13.5188 3.13352 13.7745 3.29545C14.0331 3.45739 14.2447 3.68892 14.4095 3.99006C14.5742 4.28835 14.6566 4.67614 14.6566 5.15341V9.5H13.4123V8.60511H13.3612C13.2788 8.76989 13.1552 8.93182 12.9904 9.09091C12.8257 9.25 12.614 9.3821 12.3555 9.48722C12.097 9.59233 11.7873 9.64489 11.4265 9.64489ZM11.7035 8.62216C12.0558 8.62216 12.3569 8.55256 12.6069 8.41335C12.8598 8.27415 13.0515 8.09233 13.1822 7.8679C13.3157 7.64062 13.3825 7.39773 13.3825 7.1392V6.29545C13.337 6.34091 13.249 6.38352 13.1183 6.4233C12.9904 6.46023 12.8441 6.4929 12.6794 6.52131C12.5146 6.54687 12.3541 6.57102 12.1978 6.59375C12.0416 6.61364 11.9109 6.63068 11.8058 6.64489C11.5586 6.67614 11.3328 6.72869 11.1282 6.80256C10.9265 6.87642 10.7646 6.98295 10.6424 7.12216C10.5231 7.25852 10.4635 7.44034 10.4635 7.66761C10.4635 7.98295 10.5799 8.22159 10.8129 8.38352C11.0458 8.54261 11.3427 8.62216 11.7035 8.62216Z" fill="#1C1D1F"/>
</svg>
