<svg width="14" height="15" viewBox="0 0 14 15" fill="none" xmlns="http://www.w3.org/2000/svg">
<path d="M1.80859 12.6904L4.8438 11.5231C5.03793 11.4484 5.135 11.4111 5.22582 11.3623C5.30648 11.319 5.38339 11.269 5.45572 11.2129C5.53715 11.1497 5.61069 11.0762 5.75777 10.9291L11.9273 4.75959C12.5314 4.15544 12.5314 3.17592 11.9273 2.57177C11.3231 1.96762 10.3436 1.96761 9.73946 2.57176L3.56995 8.74127C3.42287 8.88835 3.34933 8.96189 3.28614 9.04332C3.23001 9.11565 3.18003 9.19255 3.13673 9.27322C3.08798 9.36404 3.05065 9.46111 2.97598 9.65524L1.80859 12.6904ZM1.80859 12.6904L2.93429 9.76366C3.01485 9.55422 3.05512 9.4495 3.12421 9.40154C3.18458 9.35962 3.25929 9.34376 3.33148 9.35755C3.41409 9.37333 3.49343 9.45266 3.6521 9.61133L4.88772 10.847C5.04639 11.0056 5.12573 11.085 5.1415 11.1676C5.15529 11.2398 5.13944 11.3145 5.09752 11.3748C5.04955 11.4439 4.94483 11.4842 4.73539 11.5648L1.80859 12.6904Z" stroke="#838488" stroke-width="1.3" stroke-linecap="round" stroke-linejoin="round"/>
</svg>
