<svg width="14" height="15" viewBox="0 0 14 15" fill="none" xmlns="http://www.w3.org/2000/svg">
<path d="M2.91667 5.75005V10.4167M5.54167 5.75005V10.4167M8.45833 5.75005V10.4167M11.0833 5.75005V10.4167M1.75 11.3501L1.75 11.8167C1.75 12.1434 1.75 12.3068 1.81358 12.4315C1.86951 12.5413 1.95874 12.6305 2.06851 12.6865C2.19329 12.7501 2.35664 12.7501 2.68333 12.7501H11.3167C11.6434 12.7501 11.8067 12.7501 11.9315 12.6865C12.0413 12.6305 12.1305 12.5413 12.1864 12.4315C12.25 12.3068 12.25 12.1434 12.25 11.8167V11.3501C12.25 11.0234 12.25 10.86 12.1864 10.7352C12.1305 10.6255 12.0413 10.5362 11.9315 10.4803C11.8067 10.4167 11.6434 10.4167 11.3167 10.4167H2.68333C2.35664 10.4167 2.19329 10.4167 2.06851 10.4803C1.95874 10.5362 1.86951 10.6255 1.81358 10.7352C1.75 10.86 1.75 11.0234 1.75 11.3501ZM6.79753 2.29505L2.48086 3.2543C2.22008 3.31226 2.08969 3.34123 1.99235 3.41135C1.9065 3.4732 1.83909 3.55724 1.79734 3.65447C1.75 3.76469 1.75 3.89827 1.75 4.16541L1.75 4.81672C1.75 5.14342 1.75 5.30676 1.81358 5.43155C1.86951 5.54131 1.95874 5.63055 2.06851 5.68647C2.19329 5.75005 2.35664 5.75005 2.68333 5.75005H11.3167C11.6434 5.75005 11.8067 5.75005 11.9315 5.68647C12.0413 5.63055 12.1305 5.54131 12.1864 5.43155C12.25 5.30676 12.25 5.14342 12.25 4.81672V4.16541C12.25 3.89827 12.25 3.76469 12.2027 3.65447C12.1609 3.55724 12.0935 3.4732 12.0076 3.41135C11.9103 3.34123 11.7799 3.31226 11.5191 3.2543L7.20247 2.29505C7.12691 2.27826 7.08913 2.26986 7.05096 2.26651C7.01705 2.26354 6.98295 2.26354 6.94904 2.26651C6.91087 2.26986 6.87309 2.27826 6.79753 2.29505Z" stroke="#1C1D1F" stroke-width="1.3" stroke-linecap="round" stroke-linejoin="round"/>
</svg>
