<svg width="14" height="15" viewBox="0 0 14 15" fill="none" xmlns="http://www.w3.org/2000/svg">
<path d="M11.0827 5.1665V1.6665M9.33268 3.4165H12.8327M12.8327 7.49984V10.5332C12.8327 11.5133 12.8327 12.0033 12.6419 12.3777C12.4742 12.7069 12.2065 12.9747 11.8772 13.1424C11.5028 13.3332 11.0128 13.3332 10.0327 13.3332H3.96602C2.98592 13.3332 2.49588 13.3332 2.12153 13.1424C1.79225 12.9747 1.52453 12.7069 1.35675 12.3777C1.16602 12.0033 1.16602 11.5133 1.16602 10.5332V4.4665C1.16602 3.48641 1.16602 2.99637 1.35675 2.62202C1.52453 2.29274 1.79225 2.02502 2.12153 1.85724C2.49588 1.6665 2.98592 1.6665 3.96602 1.6665H6.99935M1.25103 12.1235C1.5247 11.139 2.42765 10.4165 3.49935 10.4165H7.58268C8.12478 10.4165 8.39583 10.4165 8.62123 10.4613C9.54684 10.6455 10.2704 11.369 10.4545 12.2946C10.4993 12.52 10.4993 12.7911 10.4993 13.3332M8.16602 6.0415C8.16602 7.33017 7.12135 8.37484 5.83268 8.37484C4.54402 8.37484 3.49935 7.33017 3.49935 6.0415C3.49935 4.75284 4.54402 3.70817 5.83268 3.70817C7.12135 3.70817 8.16602 4.75284 8.16602 6.0415Z" stroke="#1C1D1F" stroke-width="1.3" stroke-linecap="round" stroke-linejoin="round"/>
</svg>
