<svg width="14" height="15" viewBox="0 0 14 15" fill="none" xmlns="http://www.w3.org/2000/svg">
<path d="M1.16602 7.49996H12.8327M1.16602 7.49996C1.16602 10.7216 3.77769 13.3333 6.99935 13.3333M1.16602 7.49996C1.16602 4.2783 3.77769 1.66663 6.99935 1.66663M12.8327 7.49996C12.8327 10.7216 10.221 13.3333 6.99935 13.3333M12.8327 7.49996C12.8327 4.2783 10.221 1.66663 6.99935 1.66663M6.99935 1.66663C8.45843 3.264 9.28762 5.33698 9.33268 7.49996C9.28762 9.66294 8.45843 11.7359 6.99935 13.3333M6.99935 1.66663C5.54027 3.264 4.71108 5.33698 4.66602 7.49996C4.71108 9.66294 5.54027 11.7359 6.99935 13.3333" stroke="#838488" stroke-width="1.3" stroke-linecap="round" stroke-linejoin="round"/>
</svg>
