<svg width="14" height="15" viewBox="0 0 14 15" fill="none" xmlns="http://www.w3.org/2000/svg">
<path d="M12.8327 6.33329H1.16602M1.16602 5.28329L1.16602 9.71663C1.16602 10.37 1.16602 10.6967 1.29317 10.9463C1.40503 11.1658 1.5835 11.3443 1.80303 11.4561C2.05259 11.5833 2.37929 11.5833 3.03268 11.5833L10.966 11.5833C11.6194 11.5833 11.9461 11.5833 12.1957 11.4561C12.4152 11.3443 12.5937 11.1658 12.7055 10.9463C12.8327 10.6967 12.8327 10.37 12.8327 9.71663V5.28329C12.8327 4.6299 12.8327 4.3032 12.7055 4.05364C12.5937 3.83412 12.4152 3.65564 12.1957 3.54379C11.9461 3.41663 11.6194 3.41663 10.966 3.41663L3.03268 3.41663C2.37929 3.41663 2.05259 3.41663 1.80303 3.54378C1.5835 3.65564 1.40503 3.83411 1.29317 4.05364C1.16602 4.3032 1.16602 4.6299 1.16602 5.28329Z" stroke="#838488" stroke-width="1.3" stroke-linecap="round" stroke-linejoin="round"/>
</svg>
