<svg width="14" height="15" viewBox="0 0 14 15" fill="none" xmlns="http://www.w3.org/2000/svg">
<path d="M6.99935 12.75L6.94098 12.6625C6.53578 12.0546 6.33317 11.7507 6.06549 11.5307C5.82852 11.336 5.55546 11.1898 5.26195 11.1007C4.93041 11 4.56516 11 3.83466 11H3.03268C2.37929 11 2.05259 11 1.80303 10.8728C1.5835 10.761 1.40503 10.5825 1.29317 10.363C1.16602 10.1134 1.16602 9.78673 1.16602 9.13333V4.11667C1.16602 3.46327 1.16602 3.13657 1.29317 2.88701C1.40503 2.66749 1.5835 2.48901 1.80303 2.37716C2.05259 2.25 2.37929 2.25 3.03268 2.25H3.26602C4.5728 2.25 5.2262 2.25 5.72533 2.50432C6.16437 2.72802 6.52133 3.08498 6.74503 3.52402C6.99935 4.02315 6.99935 4.67654 6.99935 5.98333M6.99935 12.75V5.98333M6.99935 12.75L7.05771 12.6625C7.46292 12.0546 7.66553 11.7507 7.93321 11.5307C8.17018 11.336 8.44324 11.1898 8.73675 11.1007C9.06829 11 9.43354 11 10.164 11H10.966C11.6194 11 11.9461 11 12.1957 10.8728C12.4152 10.761 12.5937 10.5825 12.7055 10.363C12.8327 10.1134 12.8327 9.78673 12.8327 9.13333V4.11667C12.8327 3.46327 12.8327 3.13657 12.7055 2.88701C12.5937 2.66749 12.4152 2.48901 12.1957 2.37716C11.9461 2.25 11.6194 2.25 10.966 2.25H10.7327C9.42589 2.25 8.7725 2.25 8.27337 2.50432C7.83433 2.72802 7.47737 3.08498 7.25367 3.52402C6.99935 4.02315 6.99935 4.67654 6.99935 5.98333" stroke="#1C1D1F" stroke-width="1.3" stroke-linecap="round" stroke-linejoin="round"/>
</svg>
