<svg width="14" height="15" viewBox="0 0 14 15" fill="none" xmlns="http://www.w3.org/2000/svg">
<path d="M5.24935 2.25L4.66602 5.16667M9.33268 2.25L8.74935 5.16667M12.8327 5.16667H1.16602M3.96602 12.75H10.0327C11.0128 12.75 11.5028 12.75 11.8772 12.5593C12.2064 12.3915 12.4742 12.1238 12.6419 11.7945C12.8327 11.4201 12.8327 10.9301 12.8327 9.95V5.05C12.8327 4.06991 12.8327 3.57986 12.6419 3.20552C12.4742 2.87623 12.2064 2.60852 11.8772 2.44074C11.5028 2.25 11.0128 2.25 10.0327 2.25H3.96602C2.98592 2.25 2.49588 2.25 2.12153 2.44074C1.79225 2.60852 1.52453 2.87623 1.35675 3.20552C1.16602 3.57986 1.16602 4.06991 1.16602 5.05V9.95C1.16602 10.9301 1.16602 11.4201 1.35675 11.7945C1.52453 12.1238 1.79225 12.3915 2.12153 12.5593C2.49588 12.75 2.98592 12.75 3.96602 12.75Z" stroke="#1C1D1F" stroke-width="1.3" stroke-linecap="round" stroke-linejoin="round"/>
<path d="M8.57699 8.72634L5.71289 10.3799L5.71289 7.07275L8.57699 8.72634Z" stroke="#1C1D1F" stroke-width="1.3" stroke-linecap="round" stroke-linejoin="round"/>
</svg>
