<svg width="14" height="15" viewBox="0 0 14 15" fill="none" xmlns="http://www.w3.org/2000/svg">
<path d="M4.66602 12.75H9.33268M6.99935 10.4167V12.75M3.96602 10.4167H10.0327C11.0128 10.4167 11.5028 10.4167 11.8772 10.2259C12.2064 10.0581 12.4742 9.79043 12.6419 9.46115C12.8327 9.0868 12.8327 8.59676 12.8327 7.61667V5.05C12.8327 4.06991 12.8327 3.57986 12.6419 3.20552C12.4742 2.87623 12.2064 2.60852 11.8772 2.44074C11.5028 2.25 11.0128 2.25 10.0327 2.25H3.96602C2.98592 2.25 2.49588 2.25 2.12153 2.44074C1.79225 2.60852 1.52453 2.87623 1.35675 3.20552C1.16602 3.57986 1.16602 4.06991 1.16602 5.05V7.61667C1.16602 8.59676 1.16602 9.0868 1.35675 9.46115C1.52453 9.79043 1.79225 10.0581 2.12153 10.2259C2.49588 10.4167 2.98592 10.4167 3.96602 10.4167Z" stroke="#838488" stroke-width="1.3" stroke-linecap="round" stroke-linejoin="round"/>
</svg>
