<svg width="12" height="12" viewBox="0 0 12 12" fill="none" xmlns="http://www.w3.org/2000/svg">
<g clip-path="url(#clip0_2161_112554)">
<path d="M1.92559 10.6021L5.40387 7.12385C5.61269 6.91503 5.7171 6.81063 5.83749 6.77151C5.94339 6.7371 6.05747 6.7371 6.16338 6.77151C6.28377 6.81063 6.38818 6.91504 6.59699 7.12385L10.0521 10.5789M7.05501 7.58187L8.56761 6.06927C8.77643 5.86045 8.88083 5.75605 9.00123 5.71693C9.10713 5.68252 9.22121 5.68252 9.32711 5.71693C9.44751 5.75605 9.55191 5.86045 9.76073 6.06927L11.2733 7.58187M4.94585 4.41813C4.94585 5.00056 4.4737 5.47271 3.89128 5.47271C3.30885 5.47271 2.8367 5.00056 2.8367 4.41813C2.8367 3.8357 3.30885 3.36355 3.89128 3.36355C4.4737 3.36355 4.94585 3.8357 4.94585 4.41813ZM3.25853 10.7456H8.74234C9.62827 10.7456 10.0712 10.7456 10.4096 10.5732C10.7073 10.4215 10.9493 10.1795 11.1009 9.88189C11.2733 9.54351 11.2733 9.10055 11.2733 8.21462V3.78538C11.2733 2.89945 11.2733 2.45649 11.1009 2.11811C10.9493 1.82046 10.7073 1.57847 10.4096 1.42681C10.0712 1.25439 9.62827 1.25439 8.74234 1.25439H3.25853C2.3726 1.25439 1.92963 1.25439 1.59125 1.42681C1.29361 1.57847 1.05161 1.82046 0.899952 2.11811C0.727539 2.45649 0.727539 2.89945 0.727539 3.78538V8.21462C0.727539 9.10055 0.727539 9.54351 0.899952 9.88189C1.05161 10.1795 1.29361 10.4215 1.59125 10.5732C1.92963 10.7456 2.3726 10.7456 3.25853 10.7456Z" stroke="#1C1D1F" stroke-linecap="round" stroke-linejoin="round"/>
</g>
<defs>
<clipPath id="clip0_2161_112554">
<rect width="12" height="12" fill="white"/>
</clipPath>
</defs>
</svg>
