<svg width="10" height="10" viewBox="0 0 10 10" fill="none" xmlns="http://www.w3.org/2000/svg">
<g clip-path="url(#clip0_2161_112554)">
<path d="M1.60384 8.8351L4.50242 5.93653C4.67643 5.76252 4.76343 5.67551 4.86376 5.64291C4.95202 5.61424 5.04708 5.61424 5.13533 5.64291C5.23566 5.67551 5.32267 5.76252 5.49668 5.93653L8.37592 8.81577M5.87836 6.31821L7.13886 5.05772C7.31287 4.8837 7.39988 4.7967 7.50021 4.7641C7.58846 4.73542 7.68353 4.73542 7.77178 4.7641C7.87211 4.7967 7.95912 4.8837 8.13313 5.05771L9.39363 6.31821M4.12073 3.68177C4.12073 4.16712 3.72727 4.56058 3.24192 4.56058C2.75656 4.56058 2.3631 4.16712 2.3631 3.68177C2.3631 3.19641 2.75656 2.80295 3.24192 2.80295C3.72727 2.80295 4.12073 3.19641 4.12073 3.68177ZM2.71463 8.95466H7.28447C8.02274 8.95466 8.39188 8.95466 8.67386 8.81098C8.9219 8.6846 9.12357 8.48294 9.24995 8.2349C9.39363 7.95291 9.39363 7.58378 9.39363 6.8455V3.15448C9.39363 2.4162 9.39363 2.04706 9.24995 1.76508C9.12357 1.51704 8.9219 1.31538 8.67386 1.189C8.39188 1.04532 8.02274 1.04532 7.28447 1.04532H2.71463C1.97635 1.04532 1.60721 1.04532 1.32523 1.189C1.07719 1.31538 0.875529 1.51704 0.749147 1.76508C0.605469 2.04706 0.605469 2.4162 0.605469 3.15448V6.8455C0.605469 7.58378 0.605469 7.95291 0.749147 8.2349C0.875529 8.48294 1.07719 8.6846 1.32523 8.81098C1.60721 8.95466 1.97635 8.95466 2.71463 8.95466Z" stroke="#1C1D1F" stroke-width="0.8" stroke-linecap="round" stroke-linejoin="round"/>
</g>
<defs>
<clipPath id="clip0_2161_112554">
<rect width="10" height="10" fill="white"/>
</clipPath>
</defs>
</svg>
