<svg width="14" height="14" viewBox="0 0 14 14" fill="none" xmlns="http://www.w3.org/2000/svg">
<g clip-path="url(#clip0_315_45049)">
<path d="M9.33342 4.66663V7.5833C9.33342 8.04743 9.5178 8.49255 9.84598 8.82073C10.1742 9.14892 10.6193 9.3333 11.0834 9.3333C11.5475 9.3333 11.9927 9.14892 12.3209 8.82073C12.649 8.49255 12.8334 8.04743 12.8334 7.5833V6.99996C12.8333 5.6834 12.3879 4.40558 11.5695 3.37427C10.7511 2.34297 9.60791 1.61884 8.32579 1.31964C7.04368 1.02043 5.69805 1.16374 4.50771 1.72626C3.31736 2.28878 2.35232 3.23744 1.76949 4.41797C1.18666 5.5985 1.02032 6.94148 1.29752 8.22853C1.57472 9.51558 2.27916 10.671 3.29629 11.507C4.31342 12.3429 5.58342 12.8102 6.89979 12.8328C8.21617 12.8554 9.50148 12.4321 10.5468 11.6316M9.33342 6.99996C9.33342 8.28863 8.28875 9.3333 7.00009 9.3333C5.71142 9.3333 4.66675 8.28863 4.66675 6.99996C4.66675 5.7113 5.71142 4.66663 7.00009 4.66663C8.28875 4.66663 9.33342 5.7113 9.33342 6.99996Z" stroke="#737C8B" stroke-width="1.3" stroke-miterlimit="10" stroke-linecap="round" stroke-linejoin="round"/>
</g>
<defs>
<clipPath id="clip0_315_45049">
<rect width="14" height="14" fill="white"/>
</clipPath>
</defs>
</svg>
