<svg width="15" height="14" viewBox="0 0 15 14" fill="none" xmlns="http://www.w3.org/2000/svg">
<path d="M12.1654 12.25C12.1654 11.4359 12.1654 11.0289 12.0649 10.6977C11.8387 9.95193 11.2551 9.36835 10.5094 9.14214C10.1782 9.04166 9.77111 9.04166 8.95703 9.04166H6.04037C5.22629 9.04166 4.81925 9.04166 4.48803 9.14214C3.7423 9.36835 3.15872 9.95193 2.9325 10.6977C2.83203 11.0289 2.83203 11.4359 2.83203 12.25M10.1237 4.375C10.1237 5.82475 8.94845 7 7.4987 7C6.04895 7 4.8737 5.82475 4.8737 4.375C4.8737 2.92525 6.04895 1.75 7.4987 1.75C8.94845 1.75 10.1237 2.92525 10.1237 4.375Z" stroke="#1C1D1F" stroke-linecap="round" stroke-linejoin="round"/>
</svg>
