<svg width="18" height="18" viewBox="0 0 18 18" fill="none" xmlns="http://www.w3.org/2000/svg">
<path d="M15.5626 8.37485C16.4255 8.37485 17.125 7.67536 17.125 6.81249C17.125 5.94962 16.4254 5.25012 15.5626 5.25012C14.6996 5.25012 14 5.94968 14 6.81262V8.37485H15.5626ZM11.1875 8.37485C12.0504 8.37485 12.75 7.6753 12.75 6.81235V2.43762C12.75 1.57468 12.0504 0.875122 11.1875 0.875122C10.3246 0.875122 9.625 1.57468 9.625 2.43762V6.81235C9.625 7.6753 10.3246 8.37485 11.1875 8.37485Z" fill="#2EB67D"/>
<path d="M2.43737 9.62515C1.5745 9.62515 0.875001 10.3246 0.875001 11.1875C0.875001 12.0504 1.57456 12.7499 2.43743 12.7499C3.30038 12.7499 4 12.0503 4 11.1874V9.62515H2.43737ZM6.8125 9.62515C5.94956 9.62515 5.25 10.3247 5.25 11.1876V15.5624C5.25 16.4253 5.94956 17.1249 6.8125 17.1249C7.67544 17.1249 8.375 16.4253 8.375 15.5624V11.1876C8.375 10.3247 7.67544 9.62515 6.8125 9.62515Z" fill="#E01E5A"/>
<path d="M9.62527 15.5626C9.62527 16.4255 10.3248 17.125 11.1876 17.125C12.0505 17.125 12.75 16.4254 12.75 15.5626C12.75 14.6996 12.0504 14 11.1875 14L9.62527 14L9.62527 15.5626ZM9.62527 11.1875C9.62527 12.0504 10.3248 12.75 11.1878 12.75L15.5625 12.75C16.4254 12.75 17.125 12.0504 17.125 11.1875C17.125 10.3246 16.4254 9.625 15.5625 9.625L11.1878 9.625C10.3248 9.625 9.62527 10.3246 9.62527 11.1875Z" fill="#ECB22E"/>
<path d="M8.37473 2.43737C8.37473 1.5745 7.67524 0.875002 6.81237 0.875002C5.9495 0.875002 5.25 1.57456 5.25 2.43743C5.25 3.30038 5.94956 4 6.8125 4L8.37473 4L8.37473 2.43737ZM8.37473 6.8125C8.37473 5.94956 7.67518 5.25 6.81223 5.25L2.4375 5.25C1.57456 5.25 0.875 5.94956 0.875 6.8125C0.875 7.67544 1.57456 8.375 2.4375 8.375L6.81223 8.375C7.67518 8.375 8.37473 7.67545 8.37473 6.8125Z" fill="#36C5F0"/>
</svg>
