<svg width="15" height="14" viewBox="0 0 15 14" fill="none" xmlns="http://www.w3.org/2000/svg">
<g clip-path="url(#clip0_4802_137102)">
<path d="M11.5879 9.33333C12.7155 9.33333 13.6296 7.63575 13.6296 5.54167C13.6296 3.44759 12.7155 1.75 11.5879 1.75M11.5879 9.33333C10.4603 9.33333 9.54622 7.63575 9.54622 5.54167C9.54622 3.44759 10.4603 1.75 11.5879 1.75M11.5879 9.33333L3.97163 7.94856C3.43059 7.85019 3.16007 7.801 2.94133 7.69355C2.49633 7.47497 2.16493 7.07788 2.02948 6.60096C1.96289 6.36653 1.96289 6.09157 1.96289 5.54167C1.96289 4.99176 1.96289 4.71681 2.02948 4.48237C2.16493 4.00545 2.49633 3.60837 2.94133 3.38978C3.16007 3.28233 3.43059 3.23315 3.97162 3.13478L11.5879 1.75M3.71289 8.16667L3.94264 11.3832C3.96446 11.6886 3.97537 11.8414 4.04182 11.9571C4.10032 12.059 4.18824 12.1409 4.29406 12.192C4.41425 12.25 4.56736 12.25 4.8736 12.25H5.91334C6.26342 12.25 6.43847 12.25 6.56802 12.1802C6.68186 12.1188 6.77209 12.0214 6.82452 11.9032C6.8842 11.7687 6.87077 11.5941 6.84392 11.2451L6.62956 8.45833" stroke="#4670F9" stroke-linecap="round" stroke-linejoin="round"/>
</g>
<defs>
<clipPath id="clip0_4802_137102">
<rect width="14" height="14" fill="white" transform="translate(0.796875)"/>
</clipPath>
</defs>
</svg>
