<svg width="15" height="15" viewBox="0 0 15 15" fill="none" xmlns="http://www.w3.org/2000/svg">
<path d="M2.55078 5.14998C2.55078 4.16988 2.55078 3.67984 2.74152 3.30549C2.9093 2.97621 3.17701 2.70849 3.5063 2.54071C3.88064 2.34998 4.37069 2.34998 5.35078 2.34998H10.2508C11.2309 2.34998 11.7209 2.34998 12.0953 2.54071C12.4245 2.70849 12.6923 2.97621 12.86 3.30549C13.0508 3.67984 13.0508 4.16988 13.0508 5.14998V8.29998C13.0508 9.28007 13.0508 9.77011 12.86 10.1445C12.6923 10.4737 12.4245 10.7415 12.0953 10.9092C11.7209 11.1 11.2309 11.1 10.2508 11.1H8.78297C8.41894 11.1 8.23692 11.1 8.06282 11.1357C7.90836 11.1674 7.7589 11.2198 7.61848 11.2916C7.46021 11.3724 7.31808 11.4861 7.03382 11.7135L5.64231 12.8268C5.39959 13.0209 5.27823 13.118 5.1761 13.1181C5.08727 13.1182 5.00324 13.0778 4.94783 13.0084C4.88411 12.9286 4.88411 12.7732 4.88411 12.4624V11.1C4.34163 11.1 4.07039 11.1 3.84785 11.0403C3.24394 10.8785 2.77223 10.4068 2.61041 9.80291C2.55078 9.58037 2.55078 9.30913 2.55078 8.76664V5.14998Z" stroke="#5C5E63" stroke-linecap="round" stroke-linejoin="round"/>
</svg>
