<svg width="16" height="16" viewBox="0 0 16 16" fill="none" xmlns="http://www.w3.org/2000/svg">
<path d="M9.16602 12.108H10.208C11.3626 12.108 11.9399 12.108 12.3809 11.8833C12.7688 11.6857 13.0842 11.3703 13.2818 10.9824C13.5065 10.5414 13.5065 9.96408 13.5065 8.80949V8.67205V5.6873C13.5065 4.5672 13.5065 4.00715 13.2885 3.57932C13.0968 3.203 12.7908 2.89704 12.4145 2.70529C11.9867 2.4873 11.4266 2.4873 10.3065 2.4873H7.32177H5.12275C3.96815 2.4873 3.39086 2.4873 2.94986 2.712C2.56195 2.90965 2.24657 3.22504 2.04892 3.61295C1.82422 4.05394 1.82422 4.63124 1.82422 5.78583V9.35924C1.82422 9.99831 1.82422 10.3178 1.89447 10.58C2.08509 11.2914 2.64079 11.8471 3.35222 12.0378C4.00616 12.213 4.57299 12.6568 4.57299 13.3338V13.713C4.57299 14.0791 4.57299 14.2622 4.64805 14.3562C4.71333 14.438 4.81232 14.4856 4.91696 14.4855C5.03728 14.4854 5.18025 14.371 5.46618 14.1422L7.10545 12.8308C7.44032 12.5629 7.60776 12.429 7.7942 12.3337C7.95962 12.2492 8.1357 12.1875 8.31766 12.1501C8.52276 12.108 8.73718 12.108 9.16602 12.108Z" stroke="#838488" stroke-linecap="round" stroke-linejoin="round"/>
</svg>
