<svg width="15" height="15" viewBox="0 0 15 15" fill="none" xmlns="http://www.w3.org/2000/svg">
<g clip-path="url(#clip0_6698_23451)">
<path fill-rule="evenodd" clip-rule="evenodd" d="M7.26293 3.59587C6.09664 2.23238 4.15178 1.8656 2.6905 3.11415C1.22922 4.3627 1.02349 6.45021 2.17104 7.92688C3.12515 9.15462 6.01263 11.744 6.95899 12.5821C7.06486 12.6759 7.1178 12.7228 7.17955 12.7412C7.23345 12.7573 7.29242 12.7573 7.34631 12.7412C7.40806 12.7228 7.461 12.6759 7.56688 12.5821C8.51324 11.744 11.4007 9.15462 12.3548 7.92688C13.5024 6.45021 13.3218 4.34957 11.8354 3.11415C10.349 1.87873 8.42922 2.23238 7.26293 3.59587Z" stroke="#5C5E63" stroke-linecap="round" stroke-linejoin="round"/>
</g>
<defs>
<clipPath id="clip0_6698_23451">
<rect width="14" height="14" fill="white" transform="translate(0.267578 0.599976)"/>
</clipPath>
</defs>
</svg>
