<svg width="16" height="16" viewBox="0 0 16 16" fill="none" xmlns="http://www.w3.org/2000/svg">
<path d="M13.6907 8.44518C13.849 8.30955 13.9281 8.24173 13.9571 8.16103C13.9825 8.0902 13.9825 8.01272 13.9571 7.94189C13.9281 7.86119 13.849 7.79337 13.6907 7.65773L8.19993 2.95133C7.92753 2.71785 7.79133 2.6011 7.67602 2.59824C7.57581 2.59576 7.48008 2.63979 7.41675 2.71749C7.34388 2.8069 7.34388 2.98629 7.34388 3.34505V6.12928C5.96016 6.37136 4.69374 7.0725 3.75261 8.12527C2.72657 9.27302 2.159 10.7583 2.1582 12.2979V12.6946C2.8384 11.8752 3.68766 11.2125 4.64782 10.7518C5.49434 10.3458 6.40943 10.1052 7.34388 10.0418V12.7579C7.34388 13.1166 7.34388 13.296 7.41675 13.3854C7.48008 13.4631 7.57581 13.5072 7.67602 13.5047C7.79133 13.5018 7.92753 13.3851 8.19993 13.1516L13.6907 8.44518Z" stroke="#1C1D1F" stroke-linecap="round" stroke-linejoin="round"/>
</svg>
