<svg width="15" height="15" viewBox="0 0 15 15" fill="none" xmlns="http://www.w3.org/2000/svg">
<path d="M12.4623 7.95434C12.6047 7.83228 12.6759 7.77125 12.702 7.69863C12.7249 7.63489 12.7249 7.56516 12.702 7.50142C12.6759 7.42879 12.6047 7.36776 12.4623 7.2457L7.52102 3.01034C7.27589 2.80023 7.15332 2.69517 7.04955 2.69259C6.95937 2.69036 6.87322 2.72998 6.81623 2.79991C6.75065 2.88037 6.75065 3.0418 6.75065 3.36466V5.87023C5.50542 6.08807 4.36575 6.71905 3.51881 7.66645C2.59547 8.69932 2.0847 10.036 2.08398 11.4214V11.7784C2.6961 11.041 3.46036 10.4447 4.32443 10.0301C5.08622 9.66469 5.90973 9.44821 6.75065 9.39116V11.8354C6.75065 12.1582 6.75065 12.3197 6.81623 12.4001C6.87322 12.4701 6.95937 12.5097 7.04955 12.5075C7.15332 12.5049 7.27589 12.3998 7.52102 12.1897L12.4623 7.95434Z" stroke="#5C5E63" stroke-linecap="round" stroke-linejoin="round"/>
</svg>
