<svg width="13" height="13" viewBox="0 0 13 13" fill="none" xmlns="http://www.w3.org/2000/svg">
<g clip-path="url(#clip0_2161_79663)">
<path d="M10.2246 5.19328H1.97461M7.93294 1.52661V3.35994M4.26628 1.52661V3.35994M4.17461 10.6933H8.02461C8.79468 10.6933 9.17972 10.6933 9.47385 10.5434C9.73257 10.4116 9.94292 10.2012 10.0747 9.94252C10.2246 9.64839 10.2246 9.26335 10.2246 8.49328V4.64328C10.2246 3.87321 10.2246 3.48817 10.0747 3.19404C9.94292 2.93532 9.73257 2.72497 9.47385 2.59314C9.17972 2.44328 8.79468 2.44328 8.02461 2.44328H4.17461C3.40454 2.44328 3.0195 2.44328 2.72537 2.59314C2.46665 2.72497 2.2563 2.93532 2.12448 3.19404C1.97461 3.48817 1.97461 3.87321 1.97461 4.64328V8.49328C1.97461 9.26335 1.97461 9.64839 2.12448 9.94252C2.2563 10.2012 2.46665 10.4116 2.72537 10.5434C3.0195 10.6933 3.40454 10.6933 4.17461 10.6933Z" stroke="white" stroke-width="1.2" stroke-linecap="round" stroke-linejoin="round"/>
<path d="M4.72827 8.03L5.63821 8.93994L7.68557 6.89258" stroke="white" stroke-width="1.2" stroke-linecap="round" stroke-linejoin="round"/>
</g>
<defs>
<clipPath id="clip0_2161_79663">
<rect width="12" height="12" fill="white" transform="translate(0.0996094 0.347168)"/>
</clipPath>
</defs>
</svg>
