<svg width="15" height="15" viewBox="0 0 15 15" fill="none" xmlns="http://www.w3.org/2000/svg">
<path d="M1.26562 7.34719H12.9323M1.26562 7.34719C1.26562 10.5689 3.8773 13.1805 7.09896 13.1805M1.26562 7.34719C1.26562 4.12553 3.8773 1.51385 7.09896 1.51385M12.9323 7.34719C12.9323 10.5689 10.3206 13.1805 7.09896 13.1805M12.9323 7.34719C12.9323 4.12553 10.3206 1.51385 7.09896 1.51385M7.09896 1.51385C8.55804 3.11123 9.38723 5.18421 9.43229 7.34719C9.38723 9.51017 8.55804 11.5831 7.09896 13.1805M7.09896 1.51385C5.63988 3.11123 4.81069 5.18421 4.76563 7.34719C4.81069 9.51017 5.63988 11.5831 7.09896 13.1805" stroke="#838488" stroke-width="1.3" stroke-linecap="round" stroke-linejoin="round"/>
</svg>
