<svg width="12" height="12" viewBox="0 0 12 12" fill="none" xmlns="http://www.w3.org/2000/svg">
<path d="M11.4014 8.04443C11.4014 8.44773 11.4019 8.78105 11.3799 9.05127C11.3573 9.32716 11.3084 9.58246 11.1865 9.82178C10.9975 10.1925 10.6959 10.4952 10.3252 10.6841C10.0858 10.806 9.8307 10.8539 9.55469 10.8765C9.2844 10.8985 8.95132 10.8989 8.54785 10.8989H3.44727C3.0437 10.8989 2.71076 10.8985 2.44043 10.8765C2.16439 10.8539 1.90935 10.806 1.66992 10.6841C1.29916 10.4952 0.997583 10.1925 0.808594 9.82178C0.686719 9.58244 0.63781 9.32719 0.615234 9.05127C0.59318 8.78105 0.59375 8.44774 0.59375 8.04443V4.0542H11.4014V8.04443ZM4.95215 5.77002C4.86764 5.77894 4.79116 5.82334 4.74121 5.89209C4.68405 5.97094 4.68359 6.10696 4.68359 6.37939V8.15967C4.68359 8.4325 4.68392 8.56909 4.74121 8.64795C4.79117 8.71669 4.86765 8.76111 4.95215 8.77002C5.04906 8.78021 5.16717 8.71202 5.40332 8.57568L6.94531 7.68604C7.18158 7.54963 7.30019 7.48113 7.33984 7.39209C7.37439 7.3145 7.37432 7.22557 7.33984 7.14795C7.3002 7.0589 7.18159 6.99042 6.94531 6.854L5.40332 5.96436C5.16709 5.82797 5.04908 5.75983 4.95215 5.77002ZM8.54785 1.07178C8.95134 1.07178 9.2844 1.07118 9.55469 1.09326C9.83077 1.11584 10.0857 1.16461 10.3252 1.28662C10.6959 1.47561 10.9976 1.7772 11.1865 2.14795C11.3084 2.38737 11.3573 2.64243 11.3799 2.91846C11.3834 2.962 11.3833 3.00735 11.3857 3.0542H8.0791L8.4502 1.19971C8.45876 1.15673 8.45952 1.11357 8.45703 1.07178H8.54785ZM3.62695 3.0542H0.609375C0.61185 3.00735 0.611682 2.962 0.615234 2.91846C0.637796 2.64243 0.686688 2.38737 0.808594 2.14795C0.997529 1.77717 1.29917 1.4756 1.66992 1.28662C1.90945 1.16458 2.16427 1.11584 2.44043 1.09326C2.71076 1.07117 3.04369 1.07178 3.44727 1.07178H4.02344L3.62695 3.0542ZM7.05957 3.0542H4.64648L5.01758 1.19971C5.02614 1.15673 5.02688 1.11357 5.02441 1.07178H7.45605L7.05957 3.0542Z" fill="white"/>
</svg>
