<svg width="16" height="17" viewBox="0 0 16 17" fill="none" xmlns="http://www.w3.org/2000/svg">
<rect y="0.0136719" width="16" height="16" rx="8" fill="#0FC27B"/>
<path d="M10.1096 12.5342H5.45414C5.14985 12.5342 4.9977 12.5342 4.92725 12.474C4.86612 12.4218 4.83368 12.3435 4.83999 12.2633C4.84726 12.171 4.95484 12.0634 5.17 11.8482L9.44085 7.57738C9.63976 7.37847 9.73922 7.27901 9.8539 7.24175C9.95478 7.20897 10.0634 7.20897 10.1643 7.24175C10.279 7.27901 10.3785 7.37847 10.5774 7.57738L12.5205 9.52051V10.1232M10.1096 12.5342C10.9535 12.5342 11.3754 12.5342 11.6978 12.3699C11.9813 12.2255 12.2118 11.995 12.3563 11.7114C12.5205 11.3891 12.5205 10.9671 12.5205 10.1232M10.1096 12.5342H5.89043C5.04652 12.5342 4.62457 12.5342 4.30224 12.3699C4.01871 12.2255 3.78819 11.995 3.64373 11.7114C3.47949 11.3891 3.47949 10.9671 3.47949 10.1232V5.9041C3.47949 5.06019 3.47949 4.63824 3.64373 4.31591C3.78819 4.03238 4.01871 3.80186 4.30224 3.6574C4.62457 3.49316 5.04652 3.49316 5.89043 3.49316H10.1096C10.9535 3.49316 11.3754 3.49316 11.6978 3.6574C11.9813 3.80186 12.2118 4.03238 12.3563 4.31591C12.5205 4.63824 12.5205 5.06019 12.5205 5.9041V10.1232M7.24658 6.2557C7.24658 6.8105 6.79683 7.26025 6.24202 7.26025C5.68722 7.26025 5.23747 6.8105 5.23747 6.2557C5.23747 5.70089 5.68722 5.25114 6.24202 5.25114C6.79683 5.25114 7.24658 5.70089 7.24658 6.2557Z" stroke="white" stroke-width="1.2" stroke-linecap="round" stroke-linejoin="round"/>
</svg>
