<svg width="22" height="22" viewBox="0 0 22 22" fill="none" xmlns="http://www.w3.org/2000/svg">
<path d="M0 5.65714C0 3.67696 0 2.68686 0.399643 1.93053C0.751178 1.26525 1.31211 0.724351 2.00203 0.38537C2.78638 0 3.81314 0 5.86667 0H16.1333C18.1869 0 19.2136 0 19.998 0.38537C20.6879 0.724351 21.2488 1.26525 21.6004 1.93053C22 2.68686 22 3.67696 22 5.65714V12.375C22 14.0224 22 14.8462 21.7209 15.4959C21.3487 16.3623 20.6349 17.0506 19.7365 17.4094C19.0627 17.6786 18.2085 17.6786 16.5 17.6786C15.9028 17.6786 15.6043 17.6786 15.3273 17.7416C14.9579 17.8257 14.614 17.9915 14.3226 18.226C14.1041 18.4019 13.925 18.6322 13.5667 19.0929L11.7822 21.3871C11.5169 21.7283 11.3842 21.8989 11.2215 21.9599C11.079 22.0134 10.921 22.0134 10.7785 21.9599C10.6158 21.8989 10.4831 21.7283 10.2178 21.3871L8.43333 19.0929C8.07504 18.6322 7.8959 18.4019 7.67738 18.226C7.38603 17.9915 7.04207 17.8257 6.67273 17.7416C6.39573 17.6786 6.09715 17.6786 5.5 17.6786C3.79155 17.6786 2.93732 17.6786 2.26349 17.4094C1.36506 17.0506 0.651253 16.3623 0.279108 15.4959C0 14.8462 0 14.0224 0 12.375V5.65714Z" fill="#E7EEFF"/>
</svg>
