<svg width="20" height="20" viewBox="0 0 20 20" fill="none" xmlns="http://www.w3.org/2000/svg">
<rect x="0.75" y="0.75" width="18.5" height="18.5" rx="9.25" fill="#0A66C2"/>
<rect x="0.75" y="0.75" width="18.5" height="18.5" rx="9.25" stroke="white" stroke-width="0.5"/>
<path fill-rule="evenodd" clip-rule="evenodd" d="M7.24309 14.3765V7.8638H5.0784V14.3765H7.24309ZM6.16074 6.97461C6.91561 6.97461 7.38545 6.47451 7.38545 5.84953C7.37139 5.21048 6.91561 4.72426 6.17506 4.72426C5.43458 4.72426 4.95044 5.21048 4.95044 5.84953C4.95044 6.47451 5.42018 6.97461 6.14663 6.97461H6.16074Z" fill="#FAFAFB"/>
<path fill-rule="evenodd" clip-rule="evenodd" d="M8.44141 14.3765H10.6061V10.7395C10.6061 10.5449 10.6201 10.3504 10.6773 10.2113C10.8338 9.82238 11.19 9.4196 11.788 9.4196C12.5713 9.4196 12.8846 10.0168 12.8846 10.8923V14.3765H15.0491V10.6422C15.0491 8.6418 13.9812 7.71097 12.557 7.71097C11.3892 7.71097 10.8765 8.36371 10.5917 8.8083H10.6061V7.8638H8.44147C8.46987 8.4749 8.44141 14.3765 8.44141 14.3765Z" fill="#FAFAFB"/>
</svg>
