<svg width="20" height="20" viewBox="0 0 20 20" fill="none" xmlns="http://www.w3.org/2000/svg">
<g clip-path="url(#clip0_776_26959)">
<rect x="1" y="1" width="18" height="18" rx="9" fill="white"/>
<path d="M6.655 18.3625C6.555 17.3375 6.62 16.355 6.85 15.415L7.75 11.53C7.58496 11.0286 7.49646 10.5053 7.4875 9.9775C7.4875 8.7175 8.095 7.8175 9.055 7.8175C9.715 7.8175 10.2025 8.2825 10.2025 9.1675C10.2025 9.4525 10.145 9.7725 10.03 10.1275L9.64 11.4175C9.565 11.6675 9.5275 11.8975 9.5275 12.1075C9.5275 13.0075 10.21 13.51 11.0875 13.51C12.655 13.51 13.765 11.89 13.765 9.79C13.765 7.45 12.235 5.95 9.9775 5.95C7.4575 5.95 5.86 7.5925 5.86 9.88C5.86 10.795 6.145 11.65 6.6925 12.235C6.5125 12.5425 6.3175 12.595 6.0325 12.595C5.1325 12.595 4.2775 11.3275 4.2775 9.595C4.2775 6.595 6.6775 4.2175 10.0375 4.2175C13.5625 4.2175 15.7825 6.685 15.7825 9.715C15.7825 12.745 13.6225 15.0775 11.2975 15.0775C10.8551 15.0833 10.4173 14.9861 10.019 14.7934C9.62063 14.6008 9.27262 14.318 9.0025 13.9675L8.5375 15.8425C8.30465 16.8267 7.8928 17.7597 7.3225 18.595C8.67001 19.0183 10.0983 19.1179 11.4915 18.8858C12.8847 18.6537 14.2036 18.0964 15.3411 17.2592C16.4786 16.4219 17.4027 15.3283 18.0385 14.067C18.6742 12.8058 19.0036 11.4124 19 10C19 7.61305 18.0518 5.32387 16.364 3.63604C14.6761 1.94821 12.387 1 10 1C7.61305 1 5.32387 1.94821 3.63604 3.63604C1.94821 5.32387 1 7.61305 1 10C0.998563 11.7995 1.53659 13.5581 2.54463 15.0488C3.55266 16.5394 4.98441 17.6937 6.655 18.3625Z" fill="#E13138"/>
</g>
<rect x="0.75" y="0.75" width="18.5" height="18.5" rx="9.25" stroke="white" stroke-width="0.5"/>
<defs>
<clipPath id="clip0_776_26959">
<rect x="1" y="1" width="18" height="18" rx="9" fill="white"/>
</clipPath>
</defs>
</svg>
