<svg width="20" height="20" viewBox="0 0 20 20" fill="none" xmlns="http://www.w3.org/2000/svg">
<rect x="0.75" y="0.75" width="18.5" height="18.5" rx="9.25" fill="#FF0000"/>
<rect x="0.75" y="0.75" width="18.5" height="18.5" rx="9.25" stroke="white" stroke-width="0.5"/>
<path fill-rule="evenodd" clip-rule="evenodd" d="M14.6045 6.13287C15.1085 6.26856 15.5059 6.66596 15.6416 7.16997C15.8936 8.09076 15.8839 10.0099 15.8839 10.0099C15.8839 10.0099 15.8839 11.9193 15.6416 12.8401C15.5059 13.3441 15.1085 13.7415 14.6045 13.8772C13.6837 14.1195 10.0006 14.1195 10.0006 14.1195C10.0006 14.1195 6.32709 14.1195 5.3966 13.8675C4.89259 13.7318 4.4952 13.3344 4.3595 12.8304C4.11719 11.9193 4.11719 10.0002 4.11719 10.0002C4.11719 10.0002 4.11719 8.09076 4.3595 7.16997C4.4952 6.66596 4.90228 6.25887 5.3966 6.12317C6.31739 5.88086 10.0006 5.88086 10.0006 5.88086C10.0006 5.88086 13.6837 5.88086 14.6045 6.13287ZM11.8906 9.93289L8.82775 11.6969V8.16885L11.8906 9.93289Z" fill="#FAFAFB"/>
</svg>
