<svg width="14" height="14" viewBox="0 0 14 14" fill="none" xmlns="http://www.w3.org/2000/svg">
<path d="M2.33398 3.96699C2.33398 2.9869 2.33398 2.49685 2.52472 2.12251C2.6925 1.79323 2.96022 1.52551 3.2895 1.35773C3.66385 1.16699 4.15389 1.16699 5.13398 1.16699H8.86732C9.84741 1.16699 10.3375 1.16699 10.7118 1.35773C11.0411 1.52551 11.3088 1.79323 11.4766 2.12251C11.6673 2.49685 11.6673 2.9869 11.6673 3.96699V10.0337C11.6673 11.0138 11.6673 11.5038 11.4766 11.8781C11.3088 12.2074 11.0411 12.4751 10.7118 12.6429C10.3375 12.8337 9.84741 12.8337 8.86732 12.8337H5.13398C4.15389 12.8337 3.66385 12.8337 3.2895 12.6429C2.96022 12.4751 2.6925 12.2074 2.52472 11.8781C2.33398 11.5038 2.33398 11.0138 2.33398 10.0337V3.96699Z" stroke="#5C5E63" stroke-linecap="round" stroke-linejoin="round"/>
</svg>
