<svg width="14" height="14" viewBox="0 0 14 14" fill="none" xmlns="http://www.w3.org/2000/svg">
<path d="M2.33398 3.96663C2.33398 2.98653 2.33398 2.49649 2.52472 2.12214C2.6925 1.79286 2.96022 1.52514 3.2895 1.35736C3.66385 1.16663 4.15389 1.16663 5.13398 1.16663H8.86732C9.84741 1.16663 10.3375 1.16663 10.7118 1.35736C11.0411 1.52514 11.3088 1.79286 11.4766 2.12214C11.6673 2.49649 11.6673 2.98653 11.6673 3.96663V10.0333C11.6673 11.0134 11.6673 11.5034 11.4766 11.8778C11.3088 12.2071 11.0411 12.4748 10.7118 12.6426C10.3375 12.8333 9.84741 12.8333 8.86732 12.8333H5.13398C4.15389 12.8333 3.66385 12.8333 3.2895 12.6426C2.96022 12.4748 2.6925 12.2071 2.52472 11.8778C2.33398 11.5034 2.33398 11.0134 2.33398 10.0333V3.96663Z" stroke="#5C5E63" stroke-width="1.3" stroke-linecap="round" stroke-linejoin="round"/>
</svg>
