<svg width="14" height="14" viewBox="0 0 14 14" fill="none" xmlns="http://www.w3.org/2000/svg">
<g clip-path="url(#clip0_2725_120715)">
<path d="M1.49023 6.99984H12.5104M1.49023 6.99984C1.49023 10.043 3.95719 12.5099 7.00033 12.5099M1.49023 6.99984C1.49023 3.9567 3.95719 1.48975 7.00033 1.48975M12.5104 6.99984C12.5104 10.043 10.0435 12.5099 7.00033 12.5099M12.5104 6.99984C12.5104 3.9567 10.0435 1.48975 7.00033 1.48975M7.00033 1.48975C8.37855 2.9986 9.1618 4.95671 9.20436 6.99984C9.1618 9.04296 8.37855 11.0011 7.00033 12.5099M7.00033 1.48975C5.6221 2.9986 4.83885 4.95671 4.79629 6.99984C4.83885 9.04296 5.6221 11.0011 7.00033 12.5099" stroke="#1C1D1F" stroke-width="1.3" stroke-linecap="round" stroke-linejoin="round"/>
</g>
<defs>
<clipPath id="clip0_2725_120715">
<rect width="14" height="14" fill="white"/>
</clipPath>
</defs>
</svg>
