<svg width="12" height="12" viewBox="0 0 12 12" fill="none" xmlns="http://www.w3.org/2000/svg">
<path d="M5.86663 10.5957H2.20541C1.61393 10.5957 1.31819 10.5957 1.09228 10.4805C0.893554 10.3793 0.731989 10.2177 0.630735 10.019C0.515625 9.79309 0.515625 9.49735 0.515625 8.90586V5.94873" stroke="white" stroke-linecap="round" stroke-linejoin="round"/>
<path d="M10.1982 1.40479C10.9096 1.40493 11.4863 1.98245 11.4863 2.69385V7.84619C11.4863 8.55759 10.9096 9.13511 10.1982 9.13525H3.1123C2.40095 9.1351 1.82422 8.55758 1.82422 7.84619V2.69385C1.82422 1.98246 2.40095 1.40493 3.1123 1.40479H10.1982ZM10.3477 3.34424C10.197 3.11288 9.88765 3.04725 9.65625 3.19775L6.85547 5.021L6.80859 5.04639C6.76044 5.06832 6.70761 5.08045 6.6543 5.08057C6.60083 5.08057 6.54733 5.06833 6.49902 5.04639L6.45215 5.021L3.65137 3.19775C3.41997 3.04726 3.11058 3.11289 2.95996 3.34424C2.80954 3.57563 2.87512 3.88504 3.10645 4.03564L5.90918 5.86084L5.91113 5.86182C6.13246 6.00387 6.39129 6.08057 6.6543 6.08057C6.91721 6.08041 7.17528 6.00393 7.39648 5.86182L7.39844 5.86084L10.2021 4.03564C10.433 3.885 10.4977 3.57544 10.3477 3.34424Z" fill="white"/>
</svg>
