<svg width="14" height="14" viewBox="0 0 14 14" fill="none" xmlns="http://www.w3.org/2000/svg">
<path d="M11.6673 7.29163V3.96663C11.6673 2.98653 11.6673 2.49649 11.4766 2.12214C11.3088 1.79286 11.0411 1.52514 10.7118 1.35736C10.3375 1.16663 9.84741 1.16663 8.86732 1.16663H5.13398C4.15389 1.16663 3.66385 1.16663 3.2895 1.35736C2.96022 1.52514 2.6925 1.79286 2.52472 2.12214C2.33398 2.49649 2.33398 2.98653 2.33398 3.96663V10.0333C2.33398 11.0134 2.33398 11.5034 2.52472 11.8778C2.6925 12.2071 2.96022 12.4748 3.2895 12.6426C3.66385 12.8333 4.15389 12.8333 5.13398 12.8333H7.00065M8.16732 6.41663H4.66732M5.83398 8.74996H4.66732M9.33398 4.08329H4.66732M8.45898 11.0833L9.62565 12.25L12.2507 9.62496" stroke="#5C5E63" stroke-width="1.3" stroke-linecap="round" stroke-linejoin="round"/>
</svg>
