<svg width="14" height="14" viewBox="0 0 14 14" fill="none" xmlns="http://www.w3.org/2000/svg">
<path d="M12.25 6.70829V5.13329C12.25 4.1532 12.25 3.66315 12.0593 3.28881C11.8915 2.95953 11.6238 2.69181 11.2945 2.52403C10.9201 2.33329 10.4301 2.33329 9.45 2.33329H4.55C3.56991 2.33329 3.07986 2.33329 2.70552 2.52403C2.37623 2.69181 2.10852 2.95953 1.94074 3.28881C1.75 3.66315 1.75 4.1532 1.75 5.13329V10.0333C1.75 11.0134 1.75 11.5034 1.94074 11.8778C2.10852 12.2071 2.37623 12.4748 2.70552 12.6426C3.07986 12.8333 3.56991 12.8333 4.55 12.8333H7.29167M12.25 5.83329H1.75M9.33333 1.16663V3.49996M4.66667 1.16663V3.49996M10.5 12.25V8.74996M8.75 10.5H12.25" stroke="#1C1D1F" stroke-width="1.3" stroke-linecap="round" stroke-linejoin="round"/>
</svg>
