<svg width="14" height="14" viewBox="0 0 14 14" fill="none" xmlns="http://www.w3.org/2000/svg">
<path d="M12.4945 10.4709L8.65267 7.00079M5.34784 7.00079L1.50599 10.4709M1.2168 4.10906L5.93894 7.41456C6.32133 7.68223 6.51252 7.81607 6.72048 7.8679C6.90418 7.9137 7.09632 7.9137 7.28002 7.8679C7.48798 7.81607 7.67918 7.68223 8.06156 7.41456L12.7837 4.10906M3.99285 11.6276H10.0076C10.9794 11.6276 11.4652 11.6276 11.8364 11.4384C12.1628 11.2721 12.4283 11.0067 12.5946 10.6802C12.7837 10.3091 12.7837 9.8232 12.7837 8.85149V5.15008C12.7837 4.17837 12.7837 3.69251 12.5946 3.32137C12.4283 2.9949 12.1628 2.72947 11.8364 2.56313C11.4652 2.37402 10.9794 2.37402 10.0076 2.37402H3.99285C3.02114 2.37402 2.53529 2.37402 2.16414 2.56313C1.83768 2.72947 1.57225 2.9949 1.4059 3.32137C1.2168 3.69251 1.2168 4.17837 1.2168 5.15008V8.85149C1.2168 9.8232 1.2168 10.3091 1.4059 10.6802C1.57225 11.0067 1.83768 11.2721 2.16414 11.4384C2.53529 11.6276 3.02114 11.6276 3.99285 11.6276Z" stroke="#5C5E63" stroke-linecap="round" stroke-linejoin="round"/>
</svg>
