<svg width="12" height="12" viewBox="0 0 12 12" fill="none" xmlns="http://www.w3.org/2000/svg">
  <!-- Create a mask with the exact shape of the interior line -->
  <mask id="gapMask">
      <rect width="12" height="12" fill="white"/>
      <!-- This path creates the gap with the exact shape of the interior line -->
      <path d="M9.98573 5.31152L6.40982 7.58384C6.28675 7.66095 6.14445 7.70184 5.99921 7.70184C5.85398 7.70184 5.71167 7.66095 5.5886 7.58384L2.0127 5.31152" stroke="black" stroke-width="1" stroke-linecap="round" stroke-linejoin="round"/>
  </mask>
  <!-- Apply the mask to create the gap in the envelope -->
  <path d="M11.1537 3.90529C11.4337 4.10565 11.6017 4.41674 11.6017 4.74893V10.0216C11.6017 10.3013 11.4837 10.5695 11.2737 10.7673C11.0636 10.9651 10.7788 11.0762 10.4817 11.0762H1.52141C1.22435 11.0762 0.939467 10.9651 0.729419 10.7673C0.519371 10.5695 0.401367 10.3013 0.401367 10.0216V4.74893C0.401367 4.58521 0.441851 4.42375 0.519613 4.27732C0.597374 4.13089 0.710278 4.00352 0.849382 3.90529L5.32953 0.74167C5.52341 0.604767 5.75921 0.530762 6.00156 0.530762C6.2439 0.530762 6.47971 0.604767 6.67358 0.74167L11.1537 3.90529Z" fill="white" mask="url(#gapMask)"/>
</svg>