<svg width="14" height="14" viewBox="0 0 14 14" fill="none" xmlns="http://www.w3.org/2000/svg">
<path d="M1.81055 12.1909L4.84575 11.0235C5.03989 10.9489 5.13696 10.9115 5.22777 10.8628C5.30844 10.8195 5.38534 10.7695 5.45767 10.7134C5.5391 10.6502 5.61264 10.5767 5.75972 10.4296L11.9292 4.26008C12.5334 3.65593 12.5334 2.6764 11.9292 2.07225C11.3251 1.4681 10.3456 1.4681 9.74142 2.07225L3.5719 8.24176C3.42482 8.38884 3.35128 8.46238 3.28809 8.54381C3.23196 8.61614 3.18198 8.69304 3.13868 8.77371C3.08993 8.86453 3.0526 8.96159 2.97793 9.15573L1.81055 12.1909ZM1.81055 12.1909L2.93625 9.26415C3.0168 9.05471 3.05708 8.94999 3.12616 8.90202C3.18653 8.86011 3.26124 8.84425 3.33343 8.85804C3.41604 8.87381 3.49538 8.95315 3.65405 9.11182L4.88967 10.3474C5.04834 10.5061 5.12768 10.5855 5.14346 10.6681C5.15724 10.7403 5.14139 10.815 5.09947 10.8753C5.0515 10.9444 4.94678 10.9847 4.73734 11.0652L1.81055 12.1909Z" stroke="#5C5E63" stroke-linecap="round" stroke-linejoin="round"/>
</svg>
