<svg width="14" height="14" viewBox="0 0 14 14" fill="none" xmlns="http://www.w3.org/2000/svg">
<path d="M12.8327 12.25V11.0833C12.8327 9.99609 12.0891 9.08253 11.0827 8.82351M9.04102 1.91961C9.89613 2.26575 10.4993 3.1041 10.4993 4.08333C10.4993 5.06257 9.89613 5.90091 9.04102 6.24706M9.91602 12.25C9.91602 11.1628 9.91602 10.6192 9.7384 10.1904C9.50158 9.61867 9.04734 9.16443 8.47561 8.92761C8.04681 8.75 7.50321 8.75 6.41602 8.75H4.66602C3.57882 8.75 3.03522 8.75 2.60642 8.92761C2.03469 9.16443 1.58045 9.61867 1.34363 10.1904C1.16602 10.6192 1.16602 11.1628 1.16602 12.25M7.87435 4.08333C7.87435 5.372 6.82968 6.41667 5.54102 6.41667C4.25235 6.41667 3.20768 5.372 3.20768 4.08333C3.20768 2.79467 4.25235 1.75 5.54102 1.75C6.82968 1.75 7.87435 2.79467 7.87435 4.08333Z" stroke="#1C1D1F" stroke-width="1.3" stroke-linecap="round" stroke-linejoin="round"/>
</svg>
