<svg width="14" height="14" viewBox="0 0 14 14" fill="none" xmlns="http://www.w3.org/2000/svg">
<path d="M8.21941 3.92134H11.6924C11.9678 3.92134 12.1056 3.92134 12.1861 3.97924C12.2564 4.02977 12.3021 4.10753 12.3122 4.19349C12.3237 4.29201 12.2568 4.41239 12.123 4.65315L11.2942 6.14508C11.2457 6.23239 11.2214 6.27605 11.2119 6.32228C11.2035 6.3632 11.2035 6.4054 11.2119 6.44632C11.2214 6.49255 11.2457 6.53621 11.2942 6.62352L12.123 8.11545C12.2568 8.3562 12.3237 8.47659 12.3122 8.57511C12.3021 8.66107 12.2564 8.73884 12.1861 8.78936C12.1056 8.84726 11.9678 8.84726 11.6924 8.84726H7.35737C7.01252 8.84726 6.8401 8.84726 6.70838 8.78015C6.59252 8.72112 6.49833 8.62692 6.43929 8.51106C6.37218 8.37935 6.37218 8.20692 6.37218 7.86208V6.3843M4.21709 12.5417L1.75413 2.68986M2.67776 6.3843H7.23422C7.57907 6.3843 7.75149 6.3843 7.8832 6.31719C7.99906 6.25816 8.09326 6.16396 8.15229 6.0481C8.2194 5.91639 8.2194 5.74396 8.2194 5.39912V2.44356C8.2194 2.09871 8.2194 1.92629 8.15229 1.79457C8.09326 1.67872 7.99906 1.58452 7.8832 1.52549C7.75149 1.45837 7.57907 1.45837 7.23422 1.45837H2.70805C2.27794 1.45837 2.06289 1.45837 1.9158 1.54749C1.78688 1.6256 1.69109 1.74829 1.64658 1.8923C1.5958 2.05661 1.64796 2.26525 1.75228 2.68251L2.67776 6.3843Z" stroke="#1C1D1F" stroke-width="1.3" stroke-linecap="round" stroke-linejoin="round"/>
</svg>
