<svg width="14" height="14" viewBox="0 0 14 14" fill="none" xmlns="http://www.w3.org/2000/svg">
<g clip-path="url(#clip0_2725_120746)">
<path d="M3.79102 7.58329L4.24862 8.49849C4.40348 8.80823 4.48092 8.9631 4.58437 9.0973C4.67616 9.21639 4.78292 9.32315 4.902 9.41494C5.03621 9.51839 5.19108 9.59582 5.50081 9.75069L6.41602 10.2083L5.50081 10.6659C5.19108 10.8208 5.03621 10.8982 4.902 11.0016C4.78292 11.0934 4.67616 11.2002 4.58437 11.3193C4.48092 11.4535 4.40348 11.6084 4.24862 11.9181L3.79102 12.8333L3.33341 11.9181C3.17855 11.6084 3.10111 11.4535 2.99766 11.3193C2.90587 11.2002 2.79911 11.0934 2.68003 11.0016C2.54582 10.8982 2.39095 10.8208 2.08122 10.6659L1.16602 10.2083L2.08122 9.75069C2.39095 9.59582 2.54582 9.51839 2.68003 9.41494C2.79911 9.32315 2.90587 9.21639 2.99766 9.0973C3.10111 8.9631 3.17855 8.80823 3.33341 8.49849L3.79102 7.58329Z" stroke="#1C1D1F" stroke-width="1.3" stroke-linecap="round" stroke-linejoin="round"/>
<path d="M8.74935 1.16663L9.43688 2.9542C9.60139 3.38192 9.68364 3.59578 9.81155 3.77567C9.92491 3.9351 10.0642 4.07439 10.2236 4.18776C10.4035 4.31567 10.6174 4.39792 11.0451 4.56243L12.8327 5.24996L11.0451 5.93749C10.6174 6.102 10.4035 6.18425 10.2236 6.31216C10.0642 6.42552 9.92491 6.56482 9.81155 6.72425C9.68364 6.90414 9.60139 7.118 9.43688 7.54572L8.74935 9.33329L8.06182 7.54571C7.89731 7.118 7.81506 6.90414 7.68715 6.72425C7.57378 6.56482 7.43449 6.42552 7.27506 6.31216C7.09517 6.18425 6.88131 6.102 6.45359 5.93749L4.66602 5.24996L6.45359 4.56243C6.88131 4.39792 7.09517 4.31567 7.27506 4.18776C7.43449 4.07439 7.57378 3.9351 7.68715 3.77567C7.81506 3.59578 7.89731 3.38192 8.06182 2.9542L8.74935 1.16663Z" stroke="#1C1D1F" stroke-width="1.3" stroke-linecap="round" stroke-linejoin="round"/>
</g>
<defs>
<clipPath id="clip0_2725_120746">
<rect width="14" height="14" fill="white"/>
</clipPath>
</defs>
</svg>
