<svg width="14" height="14" viewBox="0 0 14 14" fill="none" xmlns="http://www.w3.org/2000/svg">
<path d="M12.25 4.66663H1.75M9.33333 1.16663V2.91663M4.66667 1.16663V2.91663M4.55 12.8333H9.45C10.4301 12.8333 10.9201 12.8333 11.2945 12.6426C11.6238 12.4748 11.8915 12.2071 12.0593 11.8778C12.25 11.5034 12.25 11.0134 12.25 10.0333V5.13329C12.25 4.1532 12.25 3.66315 12.0593 3.28881C11.8915 2.95953 11.6238 2.69181 11.2945 2.52403C10.9201 2.33329 10.4301 2.33329 9.45 2.33329H4.55C3.56991 2.33329 3.07986 2.33329 2.70552 2.52403C2.37623 2.69181 2.10852 2.95953 1.94074 3.28881C1.75 3.66315 1.75 4.1532 1.75 5.13329V10.0333C1.75 11.0134 1.75 11.5034 1.94074 11.8778C2.10852 12.2071 2.37623 12.4748 2.70552 12.6426C3.07986 12.8333 3.56991 12.8333 4.55 12.8333ZM6.9984 7.19281C6.53189 6.66256 5.75394 6.51992 5.16943 7.00547C4.58492 7.49102 4.50263 8.30283 4.96165 8.87709C5.29492 9.29402 6.21791 10.1148 6.69861 10.5332C6.80282 10.6239 6.85493 10.6692 6.91598 10.6872C6.96887 10.7028 7.02793 10.7028 7.08082 10.6872C7.14188 10.6692 7.19398 10.6239 7.29819 10.5332C7.7789 10.1148 8.70189 9.29402 9.03516 8.87709C9.49418 8.30283 9.42193 7.48591 8.82737 7.00547C8.23282 6.52503 7.46492 6.66256 6.9984 7.19281Z" stroke="#1C1D1F" stroke-width="1.3" stroke-linecap="round" stroke-linejoin="round"/>
</svg>
