<svg width="14" height="14" viewBox="0 0 14 14" fill="none" xmlns="http://www.w3.org/2000/svg">
<path d="M2.4914 12.0913L6.33938 8.2433C6.57039 8.01229 6.6859 7.89678 6.81909 7.85351C6.93625 7.81544 7.06245 7.81544 7.17961 7.85351C7.3128 7.89678 7.42831 8.01229 7.65931 8.2433L11.4816 12.0656M8.16602 8.75L9.83938 7.07663C10.0704 6.84562 10.1859 6.73012 10.3191 6.68684C10.4362 6.64877 10.5624 6.64877 10.6796 6.68684C10.8128 6.73012 10.9283 6.84562 11.1593 7.07663L12.8327 8.75M3.96602 12.25H10.0327C11.0128 12.25 11.5028 12.25 11.8772 12.0593C12.2064 11.8915 12.4742 11.6238 12.6419 11.2945C12.8327 10.9201 12.8327 10.4301 12.8327 9.45V4.55C12.8327 3.56991 12.8327 3.07986 12.6419 2.70552C12.4742 2.37623 12.2064 2.10852 11.8772 1.94074C11.5028 1.75 11.0128 1.75 10.0327 1.75H3.96602C2.98592 1.75 2.49588 1.75 2.12153 1.94074C1.79225 2.10852 1.52453 2.37623 1.35675 2.70552C1.16602 3.07986 1.16602 3.56991 1.16602 4.55V9.45C1.16602 10.4301 1.16602 10.9201 1.35675 11.2945C1.52453 11.6238 1.79225 11.8915 2.12153 12.0593C2.49588 12.25 2.98592 12.25 3.96602 12.25Z" stroke="#5C5E63" stroke-linecap="round" stroke-linejoin="round"/>
<path d="M5.04822 3.88901H3.84133C3.4414 3.88901 3.11719 4.21322 3.11719 4.61315C3.11719 5.01308 3.4414 5.33728 3.84133 5.33728H4.32408C4.72401 5.33728 5.04822 5.66149 5.04822 6.06142C5.04822 6.46135 4.72401 6.78556 4.32408 6.78556H3.11719M4.0827 3.40625V3.88901M4.0827 6.78556V7.26832" stroke="#5C5E63" stroke-linecap="round" stroke-linejoin="round"/>
</svg>
