<svg width="14" height="14" viewBox="0 0 14 14" fill="none" xmlns="http://www.w3.org/2000/svg">
<g clip-path="url(#clip0_2725_120758)">
<path d="M9.33266 4.66675V2.91675L11.0827 1.16675L11.666 2.33341L12.8327 2.91675L11.0827 4.66675H9.33266ZM9.33266 4.66675L6.99933 7.00005M12.8327 7.00008C12.8327 10.2217 10.221 12.8334 6.99935 12.8334C3.77769 12.8334 1.16602 10.2217 1.16602 7.00008C1.16602 3.77842 3.77769 1.16675 6.99935 1.16675M9.91602 7.00008C9.91602 8.61091 8.61018 9.91675 6.99935 9.91675C5.38852 9.91675 4.08268 8.61091 4.08268 7.00008C4.08268 5.38925 5.38852 4.08341 6.99935 4.08341" stroke="#1C1D1F" stroke-width="1.3" stroke-linecap="round" stroke-linejoin="round"/>
</g>
<defs>
<clipPath id="clip0_2725_120758">
<rect width="14" height="14" fill="white"/>
</clipPath>
</defs>
</svg>
