<svg width="14" height="14" viewBox="0 0 14 14" fill="none" xmlns="http://www.w3.org/2000/svg">
<g clip-path="url(#clip0_2725_120764)">
<path d="M4.66602 8.16675C4.66602 8.16675 5.54102 9.33341 6.99935 9.33341C8.45768 9.33341 9.33268 8.16675 9.33268 8.16675M8.74935 5.25008H8.75518M5.24935 5.25008H5.25518M12.8327 7.00008C12.8327 10.2217 10.221 12.8334 6.99935 12.8334C3.77769 12.8334 1.16602 10.2217 1.16602 7.00008C1.16602 3.77842 3.77769 1.16675 6.99935 1.16675C10.221 1.16675 12.8327 3.77842 12.8327 7.00008ZM9.04102 5.25008C9.04102 5.41116 8.91043 5.54175 8.74935 5.54175C8.58827 5.54175 8.45768 5.41116 8.45768 5.25008C8.45768 5.089 8.58827 4.95841 8.74935 4.95841C8.91043 4.95841 9.04102 5.089 9.04102 5.25008ZM5.54102 5.25008C5.54102 5.41116 5.41043 5.54175 5.24935 5.54175C5.08827 5.54175 4.95768 5.41116 4.95768 5.25008C4.95768 5.089 5.08827 4.95841 5.24935 4.95841C5.41043 4.95841 5.54102 5.089 5.54102 5.25008Z" stroke="#1C1D1F" stroke-width="1.3" stroke-linecap="round" stroke-linejoin="round"/>
</g>
<defs>
<clipPath id="clip0_2725_120764">
<rect width="14" height="14" fill="white"/>
</clipPath>
</defs>
</svg>
