<svg width="12" height="12" viewBox="0 0 12 12" fill="none" xmlns="http://www.w3.org/2000/svg">
<path d="M5.08215 6.4589C5.27919 6.72232 5.53057 6.94028 5.81926 7.098C6.10794 7.25572 6.42717 7.34951 6.75529 7.37301C7.08341 7.39651 7.41275 7.34917 7.72097 7.2342C8.02918 7.11922 8.30906 6.93931 8.54163 6.70666L9.91809 5.3302C10.336 4.89753 10.5672 4.31804 10.562 3.71654C10.5568 3.11504 10.3155 2.53965 9.89014 2.11431C9.4648 1.68896 8.88941 1.4477 8.28791 1.44247C7.68641 1.43724 7.10691 1.66847 6.67424 2.08636L5.88508 2.87094M6.91742 5.54126C6.72038 5.27784 6.46899 5.05988 6.1803 4.90215C5.89162 4.74443 5.57239 4.65064 5.24427 4.62714C4.91615 4.60364 4.58681 4.65098 4.2786 4.76596C3.97038 4.88093 3.6905 5.06084 3.45793 5.2935L2.08148 6.66995C1.66359 7.10262 1.43236 7.68211 1.43759 8.28362C1.44281 8.88512 1.68408 9.46051 2.10942 9.88585C2.53477 10.3112 3.11015 10.5525 3.71165 10.5577C4.31316 10.5629 4.89265 10.3317 5.32532 9.91379L6.1099 9.12922" stroke="white" stroke-linecap="round" stroke-linejoin="round"/>
</svg>
