<?xml version="1.0" encoding="UTF-8"?>
<svg id="Layer_2" xmlns="http://www.w3.org/2000/svg" viewBox="0 0 172.18 172.18">
  <defs>
    <style>
      .cls-1 {
        fill: #135aff;
      }

      .cls-2 {
        fill: #e2e8f0;
      }
    </style>
  </defs>
  <g id="Calque_1">
    <g>
      <path class="cls-1" d="M73.79,13.85H0c1.35,14.21,13.34,25.36,27.9,25.36h46.99c30.12,0,54.62,24.5,54.62,54.62v46.99c0,14.55,11.15,26.55,25.36,27.9v-73.79c0-44.71-36.37-81.08-81.08-81.08Z"/>
      <path class="cls-1" d="M69.96,59.61H22.47c1.35,14.21,13.34,25.36,27.9,25.36h20.69c7.01,0,12.71,5.7,12.71,12.71v20.67c0,14.55,11.15,26.55,25.36,27.9v-47.47c0-21.59-17.57-39.16-39.16-39.16Z"/>
      <path class="cls-1" d="M124.14,8.53c14.61,9.07,26.98,21.43,36.05,36.05,3.98-4.6,6.22-10.53,6.22-16.7V2.31h-25.56c-6.21,0-12.08,2.19-16.71,6.21Z"/>
    </g>
  </g>
</svg>