<svg width="127" height="21" viewBox="0 0 127 21" fill="none" xmlns="http://www.w3.org/2000/svg">
<g clip-path="url(#clip0_6692_197953)">
<path d="M26.3887 20.1409V5.53416C26.3887 2.97561 28.4628 0.901489 31.0213 0.901489H37.7848V1.61599C37.7848 2.76288 36.8541 3.69358 35.7072 3.69358H31.0445C30.0155 3.69358 29.1819 4.52715 29.1819 5.55612V9.11704H35.6829V9.84541C35.6829 10.9923 34.7522 11.923 33.6053 11.923H29.1819V20.1397H26.3898L26.3887 20.1409Z" fill="#2D333C"/>
<path d="M44.6196 20.5408C43.186 20.5408 41.9281 20.2264 40.8448 19.5986C39.7626 18.9708 38.921 18.0933 38.3198 16.9672C37.7186 15.8411 37.418 14.5335 37.418 13.0456C37.418 11.4686 37.7139 10.102 38.3059 8.94473C38.8978 7.78743 39.7245 6.89142 40.7847 6.25901C41.8448 5.6266 43.0784 5.31097 44.4855 5.31097C45.8925 5.31097 47.2059 5.65204 48.2395 6.333C49.2731 7.01397 50.0454 7.98282 50.5575 9.23839C51.0697 10.494 51.272 11.9865 51.1657 13.7138H48.3736V12.6987C48.3551 11.0246 48.0371 9.7864 47.4186 8.9852C46.7989 8.18399 45.8578 7.78281 44.593 7.78281C43.1941 7.78281 42.1431 8.2233 41.4402 9.10543C40.7361 9.98757 40.3846 11.2605 40.3846 12.9265C40.3846 14.5925 40.7361 15.7382 41.4402 16.6076C42.1431 17.4759 43.1594 17.9106 44.4866 17.9106C45.3595 17.9106 46.1145 17.7129 46.7515 17.3164C47.3885 16.9198 47.8845 16.3521 48.2406 15.6134L50.9795 16.4816C50.4188 17.773 49.5679 18.7731 48.4279 19.4807C47.288 20.1894 46.0185 20.5432 44.6207 20.5432L44.6196 20.5408ZM39.4759 13.7138V11.5356H49.776V13.7138H39.4759Z" fill="#2D333C"/>
<path d="M60.1547 20.5408C58.7211 20.5408 57.4632 20.2264 56.3799 19.5986C55.2978 18.9708 54.4561 18.0933 53.8549 16.9672C53.2537 15.8411 52.9531 14.5335 52.9531 13.0456C52.9531 11.4686 53.2491 10.102 53.841 8.94473C54.433 7.78743 55.2596 6.89142 56.3198 6.25901C57.38 5.6266 58.6136 5.31097 60.0206 5.31097C61.4277 5.31097 62.741 5.65204 63.7746 6.333C64.8082 7.01397 65.5805 7.98282 66.0927 9.23839C66.6049 10.494 66.8072 11.9865 66.7008 13.7138H63.9087V12.6987C63.8902 11.0246 63.5723 9.7864 62.9538 8.9852C62.3341 8.18399 61.393 7.78281 60.1282 7.78281C58.7292 7.78281 57.6783 8.2233 56.9753 9.10543C56.2713 9.98757 55.9198 11.2605 55.9198 12.9265C55.9198 14.5925 56.2713 15.7382 56.9753 16.6076C57.6783 17.4759 58.6945 17.9106 60.0218 17.9106C60.8947 17.9106 61.6496 17.7129 62.2867 17.3164C62.9237 16.9198 63.4197 16.3521 63.7758 15.6134L66.5147 16.4816C65.954 17.773 65.103 18.7731 63.9631 19.4807C62.8231 20.1894 61.5537 20.5432 60.1559 20.5432L60.1547 20.5408ZM55.0111 13.7138V11.5356H65.3111V13.7138H55.0111Z" fill="#2D333C"/>
<path d="M74.8576 20.5407C73.513 20.5407 72.3522 20.2066 71.3776 19.5383C70.4018 18.8701 69.6492 17.9602 69.1196 16.8064C68.5901 15.6525 68.3242 14.3553 68.3242 12.9125C68.3242 11.4696 68.5913 10.162 69.1254 9.01743C69.6596 7.87285 70.4192 6.96874 71.403 6.30512C72.3869 5.64149 73.5558 5.30968 74.9096 5.30968C76.2634 5.30968 77.4184 5.64149 78.3503 6.30512C79.281 6.96874 79.9851 7.87516 80.4614 9.02437C80.9377 10.1736 81.1759 11.4696 81.1759 12.9125C81.1759 14.3553 80.9354 15.6514 80.4545 16.8006C79.9735 17.9498 79.266 18.8608 78.3306 19.5326C77.3953 20.2054 76.238 20.5407 74.8576 20.5407ZM75.2449 18.0157C76.1617 18.0157 76.9097 17.7972 77.489 17.3613C78.0682 16.9254 78.4913 16.3243 78.7584 15.5577C79.0255 14.7912 79.1596 13.9102 79.1596 12.9125C79.1596 11.9147 79.0232 11.0337 78.7515 10.2672C78.4798 9.50185 78.0612 8.90413 77.4959 8.47751C76.9305 8.04974 76.2114 7.83585 75.3385 7.83585C74.4125 7.83585 73.6506 8.06246 73.054 8.51682C72.4574 8.97119 72.0135 9.58163 71.7244 10.347C71.4354 11.1135 71.2897 11.9679 71.2897 12.9125C71.2897 13.857 71.4342 14.7276 71.7244 15.4976C72.0135 16.2676 72.4505 16.8804 73.0332 17.3347C73.617 17.7891 74.3535 18.0157 75.2449 18.0157ZM79.1596 20.1407V9.75968H78.8393V0.901306H80.5261C81.1435 0.901306 81.6453 1.40192 81.6453 2.02045V20.1395H79.1607L79.1596 20.1407Z" fill="#2D333C"/>
<path d="M84.3027 20.1407V0.901306H85.9895C86.6069 0.901306 87.1087 1.40192 87.1087 2.02045V9.75968H86.7884V20.1407H84.3039H84.3027ZM91.0893 20.5407C89.7089 20.5407 88.5504 20.2043 87.6151 19.5326C86.6798 18.8597 85.9722 17.9498 85.4913 16.8006C85.0103 15.6514 84.7698 14.3553 84.7698 12.9125C84.7698 11.4696 85.008 10.1736 85.4843 9.02437C85.9606 7.87516 86.6647 6.96874 87.5954 6.30512C88.5261 5.64149 89.673 5.30968 91.0361 5.30968C92.3992 5.30968 93.5588 5.64149 94.5427 6.30512C95.5266 6.96874 96.2862 7.87285 96.8203 9.01743C97.3544 10.162 97.6215 11.4604 97.6215 12.9125C97.6215 14.3646 97.3567 15.6537 96.8261 16.8064C96.2954 17.9602 95.5439 18.8701 94.5681 19.5383C93.5923 20.2066 92.4327 20.5407 91.0881 20.5407H91.0893ZM90.702 18.0157C91.5922 18.0157 92.3298 17.7891 92.9125 17.3347C93.4952 16.8804 93.9323 16.2688 94.2213 15.4976C94.5103 14.7276 94.656 13.8651 94.656 12.9125C94.656 11.9598 94.5115 11.1135 94.2213 10.347C93.9323 9.58163 93.4883 8.97119 92.8917 8.51682C92.2952 8.06246 91.5333 7.83585 90.6072 7.83585C89.7343 7.83585 89.0152 8.04974 88.4498 8.47751C87.8845 8.90528 87.4659 9.50185 87.1942 10.2672C86.9226 11.0337 86.7861 11.9147 86.7861 12.9125C86.7861 13.9102 86.9202 14.7912 87.1873 15.5577C87.4544 16.3243 87.8775 16.9254 88.4568 17.3613C89.036 17.7983 89.784 18.0157 90.7008 18.0157H90.702Z" fill="#2D333C"/>
<path d="M102.552 5.71283H99.7598V20.1415H102.552V5.71283Z" fill="#2D333C"/>
<path d="M102.552 1.75848V3.34702H99.7598V0.634705H101.429C102.05 0.634705 102.552 1.13763 102.552 1.75848Z" fill="#2D333C"/>
<path d="M105.49 20.1411V5.71245H107.975V9.21325L107.628 8.75888C107.806 8.29527 108.037 7.87096 108.323 7.4825C108.608 7.09519 108.938 6.77725 109.311 6.52753C109.677 6.26046 110.084 6.05351 110.533 5.90668C110.983 5.75985 111.444 5.67082 111.916 5.63961C112.388 5.60839 112.842 5.63267 113.279 5.7136V8.33227C112.807 8.2074 112.284 8.17156 111.709 8.2259C111.135 8.27908 110.607 8.46175 110.126 8.77391C109.672 9.06757 109.314 9.42482 109.051 9.84334C108.789 10.2619 108.599 10.7278 108.483 11.24C108.368 11.7521 108.31 12.2932 108.31 12.8632V20.1446H105.491L105.49 20.1411Z" fill="#2D333C"/>
<path d="M120.213 20.5407C118.868 20.5407 117.708 20.2066 116.733 19.5383C115.757 18.8701 115.005 17.9602 114.475 16.8064C113.944 15.6525 113.68 14.3553 113.68 12.9125C113.68 11.4696 113.947 10.162 114.481 9.01743C115.015 7.87285 115.775 6.96874 116.758 6.30512C117.742 5.64149 118.911 5.30968 120.265 5.30968C121.619 5.30968 122.774 5.64149 123.706 6.30512C124.636 6.96874 125.341 7.87516 125.817 9.02437C126.293 10.1736 126.531 11.4696 126.531 12.9125C126.531 14.3553 126.291 15.6514 125.81 16.8006C125.329 17.9498 124.621 18.8608 123.686 19.5326C122.751 20.2054 121.593 20.5407 120.212 20.5407H120.213ZM120.6 18.0157C121.517 18.0157 122.266 17.7972 122.844 17.3613C123.424 16.9254 123.847 16.3243 124.114 15.5577C124.381 14.7912 124.515 13.9102 124.515 12.9125C124.515 11.9147 124.379 11.0337 124.107 10.2672C123.835 9.50185 123.417 8.90413 122.851 8.47751C122.286 8.04974 121.567 7.83585 120.694 7.83585C119.768 7.83585 119.006 8.06246 118.409 8.51682C117.813 8.97119 117.37 9.58163 117.08 10.347C116.791 11.1135 116.645 11.9679 116.645 12.9125C116.645 13.857 116.79 14.7276 117.08 15.4976C117.369 16.2676 117.806 16.8804 118.389 17.3347C118.973 17.7891 119.709 18.0157 120.599 18.0157H120.6ZM124.515 20.1407V9.75968H124.195V0.901306H127.001V20.1395H124.516L124.515 20.1407Z" fill="#2D333C"/>
<path d="M8.53118 2.23547H0C0.156079 3.87835 1.54229 5.16745 3.22564 5.16745H8.65836C12.1407 5.16745 14.9732 8 14.9732 11.4823V16.915C14.9732 18.5972 16.2623 19.9846 17.9052 20.1407V11.6095C17.9052 6.44037 13.7003 2.23547 8.53118 2.23547Z" fill="#145AFF"/>
<path d="M8.08818 7.52655H2.59766C2.75374 9.16943 4.13995 10.4585 5.82329 10.4585H8.21535C9.02581 10.4585 9.68481 11.1175 9.68481 11.928V14.3177C9.68481 15.9999 10.9739 17.3873 12.6168 17.5434V12.0552C12.6168 9.55905 10.5854 7.52771 8.08933 7.52771L8.08818 7.52655Z" fill="#145AFF"/>
<path d="M14.3535 1.62043C16.0426 2.66905 17.4728 4.09804 18.5214 5.78832C18.9816 5.2565 19.2405 4.5709 19.2405 3.85756V0.901306H16.2854C15.5675 0.901306 14.8888 1.1545 14.3535 1.61927V1.62043Z" fill="#145AFF"/>
</g>
<defs>
<clipPath id="clip0_6692_197953">
<rect width="127" height="19.9065" fill="white" transform="translate(0 0.635254)"/>
</clipPath>
</defs>
</svg>
