<svg width="18" height="19" viewBox="0 0 18 19" fill="none" xmlns="http://www.w3.org/2000/svg">
<path d="M0 3.11572C0 1.45887 1.34315 0.115723 3 0.115723H15C16.6569 0.115723 18 1.45887 18 3.11572V15.1157C18 16.7726 16.6569 18.1157 15 18.1157H3C1.34315 18.1157 0 16.7726 0 15.1157V3.11572Z" fill="#266DF0"/>
<path d="M3 0.365723H15C16.5188 0.365723 17.75 1.59694 17.75 3.11572V15.1157C17.75 16.6345 16.5188 17.8657 15 17.8657H3C1.48122 17.8657 0.25 16.6345 0.25 15.1157V3.11572C0.25 1.59694 1.48122 0.365723 3 0.365723Z" stroke="#1C1D1F" stroke-opacity="0.05" stroke-width="0.5"/>
<path d="M13.7096 12.0907L10.4166 9.1164M7.58386 9.1164L4.29085 12.0907M4.04297 6.63778L8.09052 9.47106C8.41828 9.7005 8.58216 9.81521 8.76042 9.85965C8.91787 9.89889 9.08256 9.89889 9.24001 9.85965C9.41827 9.81521 9.58215 9.7005 9.90991 9.47106L13.9575 6.63778M6.42245 13.0822H11.578C12.4109 13.0822 12.8273 13.0822 13.1454 12.9201C13.4253 12.7775 13.6528 12.55 13.7954 12.2702C13.9575 11.9521 13.9575 11.5356 13.9575 10.7027V7.53008C13.9575 6.69719 13.9575 6.28074 13.7954 5.96262C13.6528 5.68279 13.4253 5.45528 13.1454 5.3127C12.8273 5.1506 12.4109 5.1506 11.578 5.1506H6.42245C5.58955 5.1506 5.1731 5.1506 4.85498 5.3127C4.57515 5.45528 4.34764 5.68279 4.20506 5.96262C4.04297 6.28074 4.04297 6.69719 4.04297 7.53008V10.7027C4.04297 11.5356 4.04297 11.9521 4.20506 12.2702C4.34764 12.55 4.57515 12.7775 4.85498 12.9201C5.1731 13.0822 5.58955 13.0822 6.42245 13.0822Z" stroke="white" stroke-width="1.3" stroke-linecap="round" stroke-linejoin="round"/>
</svg>
