<svg width="12" height="12" viewBox="0 0 12 12" fill="none" xmlns="http://www.w3.org/2000/svg">
<path d="M10.7096 8.97506L7.41657 6.00071M4.58386 6.00071L1.29085 8.97506M1.04297 3.52209L5.09052 6.35537C5.41828 6.5848 5.58216 6.69952 5.76042 6.74395C5.91787 6.7832 6.08256 6.7832 6.24001 6.74395C6.41827 6.69952 6.58215 6.5848 6.90991 6.35537L10.9575 3.52209M3.42245 9.96651H8.57798C9.41088 9.96651 9.82733 9.96651 10.1454 9.80441C10.4253 9.66183 10.6528 9.43433 10.7954 9.1545C10.9575 8.83637 10.9575 8.41992 10.9575 7.58703V4.41439C10.9575 3.58149 10.9575 3.16505 10.7954 2.84692C10.6528 2.56709 10.4253 2.33958 10.1454 2.197C9.82733 2.03491 9.41088 2.03491 8.57798 2.03491H3.42245C2.58955 2.03491 2.1731 2.03491 1.85498 2.197C1.57515 2.33958 1.34764 2.56709 1.20506 2.84692C1.04297 3.16505 1.04297 3.58149 1.04297 4.41439V7.58703C1.04297 8.41992 1.04297 8.83637 1.20506 9.1545C1.34764 9.43433 1.57515 9.66183 1.85498 9.80441C2.1731 9.96651 2.58955 9.96651 3.42245 9.96651Z" stroke="#5C5E63" stroke-width="1.3" stroke-linecap="round" stroke-linejoin="round"/>
</svg>
