<svg width="14" height="14" viewBox="0 0 14 14" fill="none" xmlns="http://www.w3.org/2000/svg">
<path d="M0 3C0 1.34315 1.34315 0 3 0H11C12.6569 0 14 1.34315 14 3V11C14 12.6569 12.6569 14 11 14H3C1.34315 14 0 12.6569 0 11V3Z" fill="#FD9038"/>
<path d="M3 0.5H11C12.3807 0.5 13.5 1.61929 13.5 3V11C13.5 12.3807 12.3807 13.5 11 13.5H3C1.61929 13.5 0.5 12.3807 0.5 11V3C0.5 1.61929 1.61929 0.5 3 0.5Z" stroke="#1C1D1F" stroke-opacity="0.1"/>
<g clip-path="url(#clip0_399_942)">
<path d="M9 5H5V9H9V5Z" fill="white"/>
<path d="M2 10.5C2 11.325 2.675 12 3.5 12C4.325 12 5 11.325 5 10.5V9H3.5C2.675 9 2 9.675 2 10.5Z" fill="white"/>
<path d="M3.5 2C2.675 2 2 2.675 2 3.5C2 4.325 2.675 5 3.5 5H5V3.5C5 2.675 4.325 2 3.5 2Z" fill="white"/>
<path d="M12 3.5C12 2.675 11.325 2 10.5 2C9.675 2 9 2.675 9 3.5V5H10.5C11.325 5 12 4.325 12 3.5Z" fill="white"/>
<path d="M10.5 9H9V10.5C9 11.325 9.675 12 10.5 12C11.325 12 12 11.325 12 10.5C12 9.675 11.325 9 10.5 9Z" fill="white"/>
</g>
<defs>
<clipPath id="clip0_399_942">
<rect width="12" height="12" fill="white" transform="translate(1 1)"/>
</clipPath>
</defs>
</svg>
