<svg width="14" height="15" viewBox="0 0 14 15" fill="none" xmlns="http://www.w3.org/2000/svg">
<path d="M6.58157 2.34181C6.71602 2.06943 6.78324 1.93323 6.8745 1.88972C6.95391 1.85186 7.04615 1.85186 7.12556 1.88972C7.21682 1.93323 7.28404 2.06943 7.41849 2.34181L8.69406 4.92595C8.73375 5.00637 8.75359 5.04657 8.7826 5.07779C8.80828 5.10543 8.83908 5.12783 8.87329 5.14373C8.91193 5.1617 8.95629 5.16819 9.04503 5.18116L11.8983 5.5982C12.1987 5.64212 12.349 5.66408 12.4185 5.73746C12.479 5.80131 12.5074 5.88905 12.4959 5.97624C12.4827 6.07646 12.3739 6.18239 12.1564 6.39426L10.0925 8.40445C10.0282 8.46711 9.99603 8.49845 9.97527 8.53573C9.95689 8.56873 9.9451 8.605 9.94055 8.6425C9.93542 8.68486 9.94301 8.72912 9.95819 8.81764L10.4452 11.6569C10.4965 11.9564 10.5222 12.1061 10.4739 12.195C10.432 12.2723 10.3573 12.3265 10.2708 12.3426C10.1714 12.361 10.0369 12.2903 9.768 12.1489L7.21724 10.8074C7.13776 10.7656 7.09803 10.7447 7.05616 10.7365C7.01909 10.7293 6.98097 10.7293 6.9439 10.7365C6.90203 10.7447 6.8623 10.7656 6.78282 10.8074L4.23206 12.1489C3.96314 12.2903 3.82868 12.361 3.72925 12.3426C3.64275 12.3265 3.56811 12.2723 3.52612 12.195C3.47785 12.1061 3.50353 11.9564 3.5549 11.6569L4.04187 8.81764C4.05705 8.72912 4.06464 8.68486 4.05951 8.6425C4.05496 8.605 4.04317 8.56873 4.02479 8.53573C4.00403 8.49845 3.97186 8.46711 3.90753 8.40445L1.84368 6.39426C1.62616 6.18239 1.5174 6.07646 1.50416 5.97624C1.49265 5.88905 1.52109 5.80131 1.58158 5.73746C1.65111 5.66408 1.80134 5.64212 2.1018 5.5982L4.95503 5.18116C5.04377 5.16819 5.08813 5.1617 5.12677 5.14373C5.16098 5.12783 5.19178 5.10543 5.21746 5.07779C5.24647 5.04657 5.26631 5.00637 5.306 4.92595L6.58157 2.34181Z" stroke="#9099A6" stroke-width="1.3" stroke-linecap="round" stroke-linejoin="round"/>
</svg>
