<svg width="14" height="15" viewBox="0 0 14 15" fill="none" xmlns="http://www.w3.org/2000/svg">
<path d="M6.24145 3.49678C6.48684 3.4605 6.74 3.44104 7.00073 3.44104C10.0832 3.44104 12.1059 6.16114 12.7855 7.23714C12.8677 7.36737 12.9089 7.43248 12.9319 7.53292C12.9492 7.60834 12.9491 7.72734 12.9318 7.80276C12.9088 7.9032 12.8674 7.96874 12.7846 8.09984C12.6035 8.3864 12.3275 8.78912 11.9618 9.22589M3.81493 4.47661C2.50943 5.36221 1.62314 6.59259 1.21657 7.23621C1.13395 7.36699 1.09264 7.43238 1.06962 7.5328C1.05232 7.60823 1.05231 7.72721 1.0696 7.80263C1.09262 7.90306 1.13374 7.96817 1.21598 8.0984C1.89552 9.17439 3.91823 11.8945 7.00073 11.8945C8.24364 11.8945 9.31424 11.4523 10.194 10.8539M1.56636 2.2334L12.4351 13.1021M5.71984 6.38687C5.39203 6.71468 5.18927 7.16755 5.18927 7.66777C5.18927 8.66821 6.00029 9.47922 7.00073 9.47922C7.50095 9.47922 7.95381 9.27647 8.28162 8.94866" stroke="#838488" stroke-linecap="round" stroke-linejoin="round"/>
</svg>
