<svg width="14" height="14" viewBox="0 0 14 14" fill="none" xmlns="http://www.w3.org/2000/svg">
<path d="M12.2512 6.70833C12.2512 9.44675 10.0312 11.6667 7.29283 11.6667C6.66471 11.6667 6.06387 11.5499 5.51084 11.3368C5.40973 11.2979 5.35917 11.2784 5.31897 11.2691C5.27942 11.26 5.2508 11.2562 5.21025 11.2546C5.16902 11.2531 5.12379 11.2577 5.03333 11.2671L2.04606 11.5759C1.76126 11.6053 1.61885 11.62 1.53485 11.5688C1.46168 11.5242 1.41185 11.4496 1.39859 11.365C1.38336 11.2677 1.4514 11.1418 1.5875 10.8899L2.54164 9.12381C2.62021 8.97837 2.6595 8.90565 2.6773 8.83572C2.69487 8.76667 2.69912 8.71687 2.6935 8.64583C2.68781 8.57391 2.65625 8.48028 2.59313 8.29302C2.42541 7.79543 2.3345 7.2625 2.3345 6.70833C2.3345 3.96992 4.55442 1.75 7.29283 1.75C10.0312 1.75 12.2512 3.96992 12.2512 6.70833Z" stroke="#838488" stroke-linecap="round" stroke-linejoin="round"/>
</svg>
