<svg width="16" height="16" viewBox="0 0 16 16" fill="none" xmlns="http://www.w3.org/2000/svg">
<path d="M10.9472 3.36035H9.85081C9.64897 3.36035 9.48535 3.59115 9.48535 3.87585V12.1239C9.48535 12.4086 9.64897 12.6394 9.85081 12.6394H10.9472C11.149 12.6394 11.3127 12.4086 11.3127 12.1239V3.87585C11.3127 3.59115 11.149 3.36035 10.9472 3.36035Z" fill="#838488"/>
<path d="M6.14753 3.36035H5.05251C4.85092 3.36035 4.6875 3.59115 4.6875 3.87585V12.1239C4.6875 12.4086 4.85092 12.6394 5.05251 12.6394H6.14753C6.34912 12.6394 6.51254 12.4086 6.51254 12.1239V3.87585C6.51254 3.59115 6.34912 3.36035 6.14753 3.36035Z" fill="#838488"/>
</svg>
