<svg width="14" height="15" viewBox="0 0 14 15" fill="none" xmlns="http://www.w3.org/2000/svg">
<g clip-path="url(#clip0_1213_55399)">
<path d="M6.41669 2.66072H3.96669C2.9866 2.66072 2.49655 2.66072 2.1222 2.85145C1.79292 3.01923 1.5252 3.28695 1.35743 3.61623C1.16669 3.99058 1.16669 4.48062 1.16669 5.46072V10.3607C1.16669 11.3408 1.16669 11.8309 1.35743 12.2052C1.5252 12.5345 1.79292 12.8022 2.1222 12.97C2.49655 13.1607 2.98659 13.1607 3.96669 13.1607H8.86669C9.84678 13.1607 10.3368 13.1607 10.7112 12.97C11.0405 12.8022 11.3082 12.5345 11.4759 12.2052C11.6667 11.8309 11.6667 11.3408 11.6667 10.3607V7.91072M4.66667 9.66072H5.64349C5.92884 9.66072 6.07152 9.66072 6.20579 9.62848C6.32483 9.5999 6.43863 9.55276 6.54302 9.4888C6.66076 9.41665 6.76164 9.31576 6.96342 9.11398L12.5417 3.53572C13.0249 3.05247 13.0249 2.26897 12.5417 1.78572C12.0584 1.30247 11.2749 1.30247 10.7917 1.78571L5.21341 7.36398C5.01163 7.56576 4.91074 7.66665 4.83859 7.78438C4.77462 7.88877 4.72749 8.00257 4.69891 8.12161C4.66667 8.25588 4.66667 8.39856 4.66667 8.68392V9.66072Z" stroke="#9099A6" stroke-width="1.3" stroke-linecap="round" stroke-linejoin="round"/>
</g>
<defs>
<clipPath id="clip0_1213_55399">
<rect width="14" height="14" fill="white" transform="translate(0 0.327393)"/>
</clipPath>
</defs>
</svg>
