<svg width="14" height="14" viewBox="0 0 14 14" fill="none" xmlns="http://www.w3.org/2000/svg">
<path d="M0 3C0 1.34315 1.34315 0 3 0H11C12.6569 0 14 1.34315 14 3V11C14 12.6569 12.6569 14 11 14H3C1.34315 14 0 12.6569 0 11V3Z" fill="#17BDE9"/>
<path d="M3 0.5H11C12.3807 0.5 13.5 1.61929 13.5 3V11C13.5 12.3807 12.3807 13.5 11 13.5H3C1.61929 13.5 0.5 12.3807 0.5 11V3C0.5 1.61929 1.61929 0.5 3 0.5Z" stroke="#1C1D1F" stroke-opacity="0.1"/>
<path d="M11.7651 8.965C11.6851 8.83 11.4601 8.62 10.9001 8.72C10.5901 8.775 10.2751 8.8 9.9601 8.785C8.7951 8.735 7.7401 8.2 7.0051 7.375C6.3551 6.65 5.9551 5.705 5.9501 4.685C5.9501 4.115 6.0601 3.565 6.2851 3.045C6.5051 2.54 6.3501 2.275 6.2401 2.165C6.1251 2.05 5.8551 1.89 5.3251 2.11C3.2801 2.97 2.0151 5.02 2.1651 7.215C2.3151 9.28 3.7651 11.045 5.6851 11.71C6.1451 11.87 6.6301 11.965 7.1301 11.985C7.2101 11.99 7.2901 11.995 7.3701 11.995C9.0451 11.995 10.6151 11.205 11.6051 9.86C11.9401 9.395 11.8501 9.1 11.7651 8.965Z" fill="white"/>
</svg>
