<svg width="14" height="14" viewBox="0 0 14 14" fill="none" xmlns="http://www.w3.org/2000/svg">
<rect width="14" height="14" rx="3" fill="#266DF0"/>
<rect x="0.5" y="0.5" width="13" height="13" rx="2.5" stroke="#1C1D1F" stroke-opacity="0.1"/>
<path d="M7 2C5.69 2 4.625 3.065 4.625 4.375C4.625 5.66 5.63 6.7 6.94 6.745C6.98 6.74 7.02 6.74 7.05 6.745C7.06 6.745 7.065 6.745 7.075 6.745C7.08 6.745 7.08 6.745 7.085 6.745C8.365 6.7 9.37 5.66 9.375 4.375C9.375 3.065 8.31 2 7 2Z" fill="white"/>
<path d="M9.53998 8.075C8.14498 7.145 5.86998 7.145 4.46498 8.075C3.82998 8.5 3.47998 9.075 3.47998 9.69C3.47998 10.305 3.82998 10.875 4.45998 11.295C5.15998 11.765 6.07998 12 6.99998 12C7.91998 12 8.83998 11.765 9.53998 11.295C10.17 10.87 10.52 10.3 10.52 9.68C10.515 9.065 10.17 8.495 9.53998 8.075Z" fill="white"/>
</svg>
