<svg width="18" height="19" viewBox="0 0 18 19" fill="none" xmlns="http://www.w3.org/2000/svg">
<path d="M0 3.11572C0 1.45887 1.34315 0.115723 3 0.115723H15C16.6569 0.115723 18 1.45887 18 3.11572V15.1157C18 16.7726 16.6569 18.1157 15 18.1157H3C1.34315 18.1157 0 16.7726 0 15.1157V3.11572Z" fill="#266DF0"/>
<path d="M3 0.365723H15C16.5188 0.365723 17.75 1.59694 17.75 3.11572V15.1157C17.75 16.6345 16.5188 17.8657 15 17.8657H3C1.48122 17.8657 0.25 16.6345 0.25 15.1157V3.11572C0.25 1.59694 1.48122 0.365723 3 0.365723Z" stroke="#1C1D1F" stroke-opacity="0.05" stroke-width="0.5"/>
<g clip-path="url(#clip0_2345_107133)">
<path d="M4.92559 13.7179L8.40387 10.2396C8.61269 10.0308 8.7171 9.92635 8.83749 9.88723C8.94339 9.85282 9.05747 9.85282 9.16338 9.88723C9.28377 9.92635 9.38818 10.0308 9.59699 10.2396L13.0521 13.6947M10.055 10.6976L11.5676 9.18499C11.7764 8.97618 11.8808 8.87177 12.0012 8.83265C12.1071 8.79824 12.2212 8.79824 12.3271 8.83265C12.4475 8.87177 12.5519 8.97618 12.7607 9.18499L14.2733 10.6976M7.94585 7.53385C7.94585 8.11628 7.4737 8.58843 6.89128 8.58843C6.30885 8.58843 5.8367 8.11628 5.8367 7.53385C5.8367 6.95143 6.30885 6.47928 6.89128 6.47928C7.4737 6.47928 7.94585 6.95143 7.94585 7.53385ZM6.25853 13.8613H11.7423C12.6283 13.8613 13.0712 13.8613 13.4096 13.6889C13.7073 13.5373 13.9493 13.2953 14.1009 12.9976C14.2733 12.6592 14.2733 12.2163 14.2733 11.3303V6.90111C14.2733 6.01518 14.2733 5.57221 14.1009 5.23383C13.9493 4.93618 13.7073 4.69419 13.4096 4.54253C13.0712 4.37012 12.6283 4.37012 11.7423 4.37012H6.25853C5.3726 4.37012 4.92963 4.37012 4.59125 4.54253C4.29361 4.69419 4.05161 4.93618 3.89995 5.23383C3.72754 5.57221 3.72754 6.01518 3.72754 6.90111V11.3303C3.72754 12.2163 3.72754 12.6592 3.89995 12.9976C4.05161 13.2953 4.29361 13.5373 4.59125 13.6889C4.92963 13.8613 5.3726 13.8613 6.25853 13.8613Z" stroke="white" stroke-width="1.3" stroke-linecap="round" stroke-linejoin="round"/>
</g>
<defs>
<clipPath id="clip0_2345_107133">
<rect width="12" height="12" fill="white" transform="translate(3 3.11572)"/>
</clipPath>
</defs>
</svg>
