<svg width="128" height="36" viewBox="0 0 128 36" fill="none" xmlns="http://www.w3.org/2000/svg">
<mask id="mask0_6704_152541" style="mask-type:luminance" maskUnits="userSpaceOnUse" x="0" y="0" width="31" height="36">
<path d="M0.640625 0.0654297H30.6406V35.935H0.640625V0.0654297Z" fill="white"/>
</mask>
<g mask="url(#mask0_6704_152541)">
<path d="M30.0606 5.879C30.0606 5.879 23.593 0.671387 15.6404 0.671387C7.68713 0.671387 1.22278 5.879 1.22278 5.879C1.19278 13.3275 1.09365 13.6333 1.20126 21.8833C1.318 31.1051 14.8956 34.6712 15.6391 34.8864C16.3734 34.677 29.9615 31.1057 30.0815 21.8833C30.1858 13.6333 30.088 13.3275 30.0606 5.879Z" fill="#4670F9"/>
<path fill-rule="evenodd" clip-rule="evenodd" d="M1.82889 22.0143C1.88106 26.1687 4.9678 29.1883 8.50128 31.2778C11.5261 33.0661 14.6187 34.015 15.6406 34.3091C16.658 34.0176 19.7506 33.068 22.7754 31.2798C26.3108 29.1889 29.4002 26.1687 29.4543 22.0143C29.5085 17.7511 29.5085 13.6156 29.4948 10.5446C29.4882 9.04018 29.4769 7.53583 29.4608 6.03152C29.2377 5.87083 29.0115 5.71428 28.7826 5.56195C27.7919 4.90484 26.7612 4.31021 25.6965 3.78152C23.0774 2.47717 19.5178 1.20413 15.64 1.20413C11.7621 1.20413 8.20323 2.47717 5.5841 3.78086C4.51975 4.30997 3.48948 4.90505 2.49932 5.5626C2.2241 5.74586 1.99649 5.90565 1.82106 6.03217L1.81258 6.85652C1.8041 7.74086 1.79302 9.00934 1.78649 10.5446C1.7728 13.6156 1.7728 17.7511 1.82823 22.0137L1.82889 22.0143ZM0.69019 22.0287C0.578668 13.4859 0.69019 5.45695 0.69019 5.45695C0.69019 5.45695 7.40563 0.0654297 15.64 0.0654297C23.8737 0.0654297 30.5924 5.4576 30.5924 5.4576C30.5924 5.4576 30.7019 13.4859 30.593 22.0287C30.4724 31.3567 17.0441 35.1009 15.7137 35.472L15.64 35.4928C15.6107 35.4842 15.5813 35.4758 15.5519 35.4674C14.1406 35.0715 0.808234 31.3261 0.69019 22.0287Z" fill="#D5D5E3"/>
<path d="M8.84716 25.5588H7.16194V20.8045H8.86085C9.3389 20.8045 9.75042 20.8997 10.0954 21.0901C10.4411 21.2793 10.7059 21.5506 10.8917 21.9053C11.0789 22.2595 11.1722 22.6834 11.1722 23.1771C11.1722 23.6721 11.0789 24.0973 10.8917 24.4534C10.7139 24.8012 10.4346 25.0869 10.0909 25.2725C9.74455 25.463 9.32977 25.5588 8.84716 25.5588ZM8.16694 24.6973H8.80542C9.10216 24.6973 9.35194 24.6451 9.55542 24.5395C9.7589 24.4325 9.91216 24.2675 10.0145 24.0451C10.1182 23.8208 10.1698 23.5312 10.1698 23.1771C10.1698 22.8256 10.1176 22.5386 10.0145 22.3162C9.92303 22.1046 9.76165 21.9308 9.55737 21.8238C9.35455 21.7188 9.10477 21.666 8.80737 21.666H8.16694V24.6973ZM12.3272 25.5588H11.2498L12.8906 20.8045H14.1859L15.8241 25.5588H14.748L13.5565 21.891H13.52L12.3265 25.5582L12.3272 25.5588ZM12.2593 23.6897H14.8028V24.4743H12.2593V23.6897ZM15.4915 20.8045H16.6172L17.7011 22.8523H17.7467L18.8313 20.8045H19.9569L18.2228 23.8782V25.5582H17.225V23.8782L15.4915 20.8045ZM22.9426 22.1721C22.9373 22.0862 22.9131 22.0026 22.8719 21.927C22.8306 21.8515 22.7733 21.786 22.7039 21.7351C22.563 21.6321 22.3713 21.5799 22.13 21.5799C21.9669 21.5799 21.828 21.6034 21.7152 21.6497C21.6126 21.6868 21.5225 21.7519 21.455 21.8375C21.3966 21.9168 21.3657 22.013 21.3669 22.1114C21.3621 22.1895 21.3807 22.2671 21.4204 22.3345C21.463 22.4004 21.519 22.4567 21.5848 22.4995C21.6545 22.5438 21.7348 22.5836 21.8261 22.6175C21.9174 22.6501 22.0152 22.6782 22.1189 22.701L22.5461 22.8034C22.7535 22.8497 22.9439 22.9116 23.1167 22.9893C23.2902 23.0662 23.4402 23.1614 23.5667 23.2743C23.6939 23.3871 23.7924 23.5201 23.8622 23.6734C23.9332 23.8266 23.9698 24.0027 23.9711 24.2003C23.9698 24.4912 23.8954 24.7436 23.748 24.9569C23.6026 25.1688 23.3919 25.3338 23.1167 25.4512C22.8428 25.5673 22.5128 25.6253 22.1254 25.6253C21.7419 25.6253 21.408 25.5666 21.123 25.4493C20.8554 25.3441 20.6246 25.1627 20.4591 24.9275C20.3013 24.6947 20.2185 24.4077 20.2113 24.066H21.183C21.1941 24.2251 21.2398 24.3582 21.32 24.4651C21.4022 24.5701 21.5117 24.6503 21.6474 24.7045C21.7856 24.7566 21.9409 24.7827 22.1143 24.7827C22.2839 24.7827 22.4319 24.7586 22.5578 24.709C22.6843 24.6595 22.7828 24.5903 22.8526 24.5023C22.9214 24.4161 22.9583 24.3087 22.9569 24.1984C22.9599 24.0999 22.9259 24.0038 22.8617 23.929C22.7861 23.8467 22.6923 23.7831 22.5878 23.7432C22.4456 23.6848 22.2988 23.6384 22.1489 23.6043L21.6317 23.4738C21.2306 23.376 20.9143 23.224 20.6822 23.0173C20.45 22.8093 20.3345 22.5301 20.3365 22.1786C20.3294 21.9091 20.41 21.6445 20.5661 21.4247C20.7226 21.2095 20.9365 21.0419 21.2091 20.9212C21.5023 20.7963 21.8185 20.7345 22.1372 20.7399C22.49 20.7399 22.7978 20.8006 23.0613 20.9206C23.3261 21.0419 23.5315 21.2095 23.6782 21.4247C23.8256 21.6399 23.9013 21.889 23.9065 22.1721H22.9426ZM10.5167 18.0895C9.74716 18.0895 9.06107 17.9571 8.45911 17.6923C7.86107 17.4249 7.38824 17.0564 7.04064 16.5888C6.69694 16.118 6.5202 15.5747 6.50977 14.9597H8.75846C8.7715 15.2173 8.85629 15.4443 9.01085 15.6399C9.16933 15.833 9.37868 15.9823 9.6402 16.0886C9.90107 16.1956 10.1952 16.2484 10.5219 16.2484C10.8624 16.2484 11.163 16.1884 11.4245 16.0684C11.6854 15.9477 11.8902 15.7814 12.0376 15.5682C12.1856 15.3549 12.2593 15.109 12.2593 14.8306C12.2593 14.5482 12.1811 14.299 12.0226 14.0825C11.868 13.8627 11.6443 13.6912 11.3522 13.5673C11.0632 13.4434 10.7195 13.3814 10.3211 13.3814H9.33629V11.7412H10.3211C10.6576 11.7412 10.955 11.6825 11.2132 11.5658C11.4741 11.449 11.6769 11.2873 11.8217 11.0812C11.9659 10.8719 12.0382 10.6273 12.0382 10.3488C12.0382 10.084 11.9743 9.85187 11.8472 9.65295C11.7209 9.44768 11.5385 9.28291 11.3215 9.17817C11.0978 9.06469 10.8363 9.00861 10.5376 9.00861C10.235 9.00861 9.95781 9.06339 9.70737 9.17295C9.46892 9.26974 9.26049 9.4282 9.10346 9.63208C8.95124 9.8346 8.86659 10.0799 8.8615 10.3332H6.72107C6.7315 9.72469 6.90498 9.18861 7.24216 8.72426C7.57933 8.26056 8.03259 7.8973 8.60324 7.63643C9.17716 7.37165 9.82542 7.23926 10.5474 7.23926C11.2765 7.23926 11.9143 7.37165 12.4609 7.63643C13.0074 7.90121 13.4326 8.25861 13.7345 8.70926C14.0411 9.156 14.1917 9.65817 14.1885 10.2151C14.1917 10.806 14.0078 11.2997 13.6367 11.6949C13.2689 12.0901 12.7889 12.3412 12.198 12.4475V12.5303C12.9748 12.6301 13.5663 12.9001 13.9719 13.3403C14.3809 13.7766 14.5837 14.3232 14.5804 14.9799C14.5916 15.558 14.4081 16.1231 14.0593 16.5843C13.7124 17.0512 13.233 17.419 12.6206 17.6871C12.0089 17.9558 11.3078 18.0895 10.5167 18.0895ZM20.1852 18.1775C19.2982 18.1743 18.5352 17.9558 17.8954 17.5221C17.2595 17.089 16.7691 16.4616 16.4254 15.6399C16.085 14.8182 15.9167 13.8301 15.92 12.6745C15.92 11.5234 16.0902 10.5419 16.4306 9.72991C16.7743 8.91861 17.2648 8.30165 17.9006 7.87839C18.5398 7.45252 19.3015 7.23926 20.1852 7.23926C21.0689 7.23926 21.8287 7.45252 22.4645 7.87839C23.1037 8.30491 23.5954 8.92382 23.9391 9.73513C24.2835 10.5432 24.453 11.5234 24.4498 12.6745C24.4498 13.8334 24.2782 14.8234 23.9345 15.6451C23.5941 16.4669 23.1056 17.0943 22.4698 17.5273C21.8332 17.961 21.0722 18.1775 20.1852 18.1775ZM20.1852 16.3253C20.7904 16.3253 21.273 16.0214 21.6343 15.413C21.995 14.8045 22.1737 13.8921 22.1704 12.6745C22.1704 11.8736 22.0882 11.2071 21.9226 10.6736C21.7615 10.1408 21.5313 9.741 21.2319 9.4723C20.9478 9.20847 20.5729 9.06434 20.1852 9.06991C19.5832 9.06991 19.1026 9.37056 18.7413 9.97252C18.38 10.5738 18.198 11.4751 18.1948 12.6745C18.1948 13.4864 18.275 14.1634 18.4367 14.7066C18.6017 15.2466 18.8339 15.6523 19.1332 15.9236C19.4319 16.1916 19.7828 16.326 20.1852 16.326V16.3253Z" fill="white"/>
</g>
<path d="M39.7585 5.27273H42.0341L44.4375 11.1364H44.5398L46.9432 5.27273H49.2188V14H47.429V8.3196H47.3565L45.098 13.9574H43.8793L41.6207 8.2983H41.5483V14H39.7585V5.27273ZM58.5189 9.63636C58.5189 10.5881 58.3385 11.3977 57.9777 12.0653C57.6197 12.733 57.1311 13.2429 56.5118 13.5952C55.8953 13.9446 55.2021 14.1193 54.4322 14.1193C53.6567 14.1193 52.9606 13.9432 52.3442 13.5909C51.7277 13.2386 51.2405 12.7287 50.8825 12.0611C50.5246 11.3935 50.3456 10.5852 50.3456 9.63636C50.3456 8.68466 50.5246 7.875 50.8825 7.20739C51.2405 6.53977 51.7277 6.03125 52.3442 5.68182C52.9606 5.32955 53.6567 5.15341 54.4322 5.15341C55.2021 5.15341 55.8953 5.32955 56.5118 5.68182C57.1311 6.03125 57.6197 6.53977 57.9777 7.20739C58.3385 7.875 58.5189 8.68466 58.5189 9.63636ZM56.6481 9.63636C56.6481 9.01989 56.5558 8.5 56.3712 8.0767C56.1893 7.65341 55.9322 7.33239 55.5998 7.11364C55.2675 6.89489 54.8783 6.78551 54.4322 6.78551C53.9862 6.78551 53.597 6.89489 53.2646 7.11364C52.9322 7.33239 52.6737 7.65341 52.489 8.0767C52.3072 8.5 52.2163 9.01989 52.2163 9.63636C52.2163 10.2528 52.3072 10.7727 52.489 11.196C52.6737 11.6193 52.9322 11.9403 53.2646 12.1591C53.597 12.3778 53.9862 12.4872 54.4322 12.4872C54.8783 12.4872 55.2675 12.3778 55.5998 12.1591C55.9322 11.9403 56.1893 11.6193 56.3712 11.196C56.5558 10.7727 56.6481 10.2528 56.6481 9.63636ZM66.9454 5.27273V14H65.3517L61.5548 8.5071H61.4909V14H59.6457V5.27273H61.265L65.0321 10.7614H65.1088V5.27273H66.9454ZM68.2299 14V5.27273H74.1106V6.79403H70.0751V8.87358H73.8081V10.3949H70.0751V12.4787H74.1277V14H68.2299ZM74.8262 5.27273H76.893L78.883 9.03125H78.9683L80.9583 5.27273H83.0251L79.8418 10.9148V14H78.0095V10.9148L74.8262 5.27273ZM87.4619 8.91619V10.3565H83.4818V8.91619H87.4619ZM88.8029 14V5.27273H92.2972C92.9393 5.27273 93.4748 5.3679 93.9038 5.55824C94.3327 5.74858 94.6552 6.01278 94.8711 6.35085C95.087 6.68608 95.1949 7.07244 95.1949 7.50994C95.1949 7.85085 95.1268 8.15057 94.9904 8.40909C94.854 8.66477 94.6665 8.875 94.4279 9.03977C94.1921 9.2017 93.9222 9.31676 93.6182 9.38494V9.47017C93.9506 9.48437 94.2617 9.57812 94.5515 9.75142C94.8441 9.92472 95.0813 10.1676 95.2631 10.4801C95.4449 10.7898 95.5359 11.1591 95.5359 11.5881C95.5359 12.0511 95.4208 12.4645 95.1907 12.8281C94.9634 13.1889 94.6268 13.4744 94.1807 13.6847C93.7347 13.8949 93.185 14 92.5316 14H88.8029ZM90.6481 12.4915H92.1523C92.6665 12.4915 93.0415 12.3935 93.2773 12.1974C93.5131 11.9986 93.631 11.7344 93.631 11.4048C93.631 11.1634 93.5728 10.9503 93.4563 10.7656C93.3398 10.581 93.1736 10.4361 92.9577 10.331C92.7447 10.2259 92.4904 10.1733 92.1949 10.1733H90.6481V12.4915ZM90.6481 8.92472H92.016C92.2688 8.92472 92.4932 8.88068 92.6893 8.79261C92.8881 8.7017 93.0444 8.57386 93.158 8.40909C93.2745 8.24432 93.3327 8.04688 93.3327 7.81676C93.3327 7.50142 93.2205 7.24716 92.9961 7.05398C92.7745 6.8608 92.4591 6.7642 92.0501 6.7642H90.6481V8.92472ZM98.0008 14H96.0235L99.0363 5.27273H101.414L104.423 14H102.445L100.259 7.26705H100.191L98.0008 14ZM97.8772 10.5696H102.548V12.0099H97.8772V10.5696ZM112.523 8.32812H110.657C110.623 8.08665 110.553 7.87216 110.448 7.68466C110.343 7.49432 110.208 7.33239 110.043 7.19886C109.878 7.06534 109.688 6.96307 109.472 6.89205C109.259 6.82102 109.027 6.78551 108.777 6.78551C108.326 6.78551 107.932 6.89773 107.597 7.12216C107.262 7.34375 107.002 7.66761 106.817 8.09375C106.633 8.51705 106.54 9.03125 106.54 9.63636C106.54 10.2585 106.633 10.7812 106.817 11.2045C107.005 11.6278 107.266 11.9474 107.601 12.1634C107.937 12.3793 108.324 12.4872 108.765 12.4872C109.012 12.4872 109.241 12.4545 109.451 12.3892C109.664 12.3239 109.853 12.2287 110.018 12.1037C110.182 11.9759 110.319 11.821 110.427 11.6392C110.537 11.4574 110.614 11.25 110.657 11.017L112.523 11.0256C112.475 11.4261 112.354 11.8125 112.161 12.1847C111.971 12.554 111.714 12.8849 111.39 13.1776C111.069 13.4673 110.685 13.6974 110.239 13.8679C109.796 14.0355 109.294 14.1193 108.735 14.1193C107.956 14.1193 107.26 13.9432 106.647 13.5909C106.036 13.2386 105.553 12.7287 105.198 12.0611C104.846 11.3935 104.669 10.5852 104.669 9.63636C104.669 8.68466 104.848 7.875 105.206 7.20739C105.564 6.53977 106.05 6.03125 106.664 5.68182C107.277 5.32955 107.968 5.15341 108.735 5.15341C109.241 5.15341 109.709 5.22443 110.141 5.36648C110.576 5.50852 110.961 5.71591 111.296 5.98864C111.631 6.25852 111.904 6.58949 112.114 6.98153C112.327 7.37358 112.464 7.82244 112.523 8.32812ZM113.606 14V5.27273H115.452V9.12074H115.567L118.707 5.27273H120.919L117.68 9.1804L120.957 14H118.75L116.359 10.4119L115.452 11.5199V14H113.606ZM45.5455 24.0938C45.4858 23.8864 45.402 23.7031 45.294 23.544C45.1861 23.3821 45.054 23.2457 44.8977 23.1349C44.7443 23.0213 44.5682 22.9347 44.3693 22.875C44.1733 22.8153 43.956 22.7855 43.7173 22.7855C43.2713 22.7855 42.8793 22.8963 42.5412 23.1179C42.206 23.3395 41.9446 23.6619 41.7571 24.0852C41.5696 24.5057 41.4759 25.0199 41.4759 25.6278C41.4759 26.2358 41.5682 26.7528 41.7528 27.179C41.9375 27.6051 42.1989 27.9304 42.5369 28.1548C42.875 28.3764 43.2741 28.4872 43.7344 28.4872C44.152 28.4872 44.5085 28.4134 44.804 28.2656C45.1023 28.1151 45.3295 27.9034 45.4858 27.6307C45.6449 27.358 45.7244 27.0355 45.7244 26.6634L46.0994 26.7188H43.8494V25.3295H47.5014V26.429C47.5014 27.196 47.3395 27.8551 47.0156 28.4062C46.6918 28.9545 46.2457 29.3778 45.6776 29.6761C45.1094 29.9716 44.4588 30.1193 43.7259 30.1193C42.9077 30.1193 42.1889 29.9389 41.5696 29.5781C40.9503 29.2145 40.4673 28.6989 40.1207 28.0312C39.777 27.3608 39.6051 26.5653 39.6051 25.6449C39.6051 24.9375 39.7074 24.3068 39.9119 23.7528C40.1193 23.196 40.4091 22.7244 40.7812 22.3381C41.1534 21.9517 41.5866 21.6577 42.081 21.456C42.5753 21.2543 43.1108 21.1534 43.6875 21.1534C44.1818 21.1534 44.642 21.2259 45.0682 21.3707C45.4943 21.5128 45.8722 21.7145 46.2017 21.9759C46.5341 22.2372 46.8054 22.5483 47.0156 22.9091C47.2259 23.267 47.3608 23.6619 47.4205 24.0938H45.5455ZM54.0381 21.2727H55.8832V26.9403C55.8832 27.5767 55.7312 28.1335 55.4273 28.6108C55.1261 29.0881 54.7042 29.4602 54.1616 29.7273C53.619 29.9915 52.9869 30.1236 52.2653 30.1236C51.5409 30.1236 50.9074 29.9915 50.3648 29.7273C49.8221 29.4602 49.4003 29.0881 49.0991 28.6108C48.798 28.1335 48.6474 27.5767 48.6474 26.9403V21.2727H50.4926V26.7827C50.4926 27.1151 50.565 27.4105 50.7099 27.669C50.8577 27.9276 51.065 28.1307 51.3321 28.2784C51.5991 28.4261 51.9102 28.5 52.2653 28.5C52.6233 28.5 52.9344 28.4261 53.1986 28.2784C53.4656 28.1307 53.6716 27.9276 53.8165 27.669C53.9642 27.4105 54.0381 27.1151 54.0381 26.7827V21.2727ZM58.6656 30H56.6883L59.7011 21.2727H62.0789L65.0875 30H63.1102L60.9241 23.267H60.8559L58.6656 30ZM58.542 26.5696H63.2125V28.0099H58.542V26.5696ZM65.8979 30V21.2727H69.3411C70.0002 21.2727 70.5627 21.3906 71.0286 21.6264C71.4973 21.8594 71.8539 22.1903 72.0982 22.6193C72.3453 23.0455 72.4689 23.5469 72.4689 24.1236C72.4689 24.7031 72.3439 25.2017 72.0939 25.6193C71.8439 26.0341 71.4817 26.3523 71.0073 26.5739C70.5357 26.7955 69.9647 26.9062 69.2942 26.9062H66.9888V25.4233H68.9959C69.3482 25.4233 69.6408 25.375 69.8738 25.2784C70.1067 25.1818 70.28 25.0369 70.3936 24.8438C70.5101 24.6506 70.5684 24.4105 70.5684 24.1236C70.5684 23.8338 70.5101 23.5895 70.3936 23.3906C70.28 23.1918 70.1053 23.0412 69.8695 22.9389C69.6365 22.8338 69.3425 22.7812 68.9874 22.7812H67.7431V30H65.8979ZM70.611 26.0284L72.78 30H70.7431L68.6209 26.0284H70.611ZM75.0372 30H73.0599L76.0727 21.2727H78.4505L81.459 30H79.4818L77.2957 23.267H77.2275L75.0372 30ZM74.9136 26.5696H79.584V28.0099H74.9136V26.5696ZM89.5692 21.2727V30H87.9754L84.1786 24.5071H84.1146V30H82.2695V21.2727H83.8888L87.6558 26.7614H87.7325V21.2727H89.5692ZM90.5213 22.794V21.2727H97.6889V22.794H95.017V30H93.1932V22.794H90.5213ZM98.6293 30V21.2727H104.51V22.794H100.474V24.8736H104.207V26.3949H100.474V28.4787H104.527V30H98.6293ZM105.737 30V21.2727H111.618V22.794H107.582V24.8736H111.315V26.3949H107.582V28.4787H111.635V30H105.737Z" fill="#1C1D1F"/>
</svg>
