<svg width="228" height="32" viewBox="0 0 228 32" fill="none" xmlns="http://www.w3.org/2000/svg">
<g clip-path="url(#clip0_6725_197987)">
<g clip-path="url(#clip1_6725_197987)">
<g clip-path="url(#clip2_6725_197987)">
<g clip-path="url(#clip3_6725_197987)">
<mask id="mask0_6725_197987" style="mask-type:luminance" maskUnits="userSpaceOnUse" x="0" y="4" width="34" height="24">
<path d="M34 4.6665H0V27.3332H34V4.6665Z" fill="white"/>
</mask>
<g mask="url(#mask0_6725_197987)">
<path d="M16.7096 11.5702L14.4826 21.9383H11.7895L14.0173 11.5702H16.7096ZM28.0406 18.2646L29.4582 14.3717L30.274 18.2646H28.0406ZM31.0456 21.9383H33.5365L31.3623 11.5702H29.0632C28.5462 11.5702 28.1103 11.8699 27.9171 12.3309L23.8756 21.9383H26.7036L27.2653 20.3895H30.7204L31.0456 21.9383ZM24.0163 18.5531C24.0277 15.8167 20.2167 15.6659 20.2429 14.4436C20.2511 14.0716 20.6068 13.6761 21.3852 13.575C21.7711 13.5247 22.8344 13.4863 24.0404 14.039L24.5133 11.8405C23.8654 11.6063 23.0317 11.3809 21.9942 11.3809C19.3322 11.3809 17.4588 12.7902 17.443 14.8081C17.4258 16.3007 18.7802 17.1336 19.8005 17.6295C20.8502 18.1375 21.2023 18.4638 21.1984 18.9182C21.1909 19.6137 20.3612 19.9207 19.5858 19.9327C18.2321 19.9535 17.4466 19.568 16.8204 19.278L16.3323 21.5494C16.9616 21.8369 18.123 22.0878 19.3273 22.1003C22.1568 22.1003 24.0075 20.7085 24.0163 18.5531ZM12.8615 11.5702L8.49802 21.9383H5.65119L3.5039 13.6641C3.37348 13.1544 3.26025 12.9678 2.86379 12.7531C2.21652 12.4033 1.14746 12.0753 0.207031 11.8716L0.27093 11.5702H4.85361C5.43774 11.5702 5.9628 11.9575 6.0954 12.6274L7.22947 18.6269L10.0324 11.5702H12.8615Z" fill="#1434CB"/>
</g>
</g>
</g>
</g>
<g clip-path="url(#clip4_6725_197987)">
<g clip-path="url(#clip5_6725_197987)">
<path fill-rule="evenodd" clip-rule="evenodd" d="M50.5282 7.51465C55.1673 7.51465 58.9282 11.3126 58.9282 16.0004C58.9282 20.6868 55.1673 24.4848 50.5282 24.4848C45.8879 24.4848 42.127 20.6868 42.127 16.0004C42.127 11.3126 45.8879 7.51465 50.5282 7.51465Z" fill="#F22F12"/>
<path fill-rule="evenodd" clip-rule="evenodd" d="M61.7281 7.64258C66.3099 7.77115 70.0009 11.4997 69.8736 16.1283C69.7463 20.7569 66.0554 24.4854 61.4736 24.3569C56.8918 24.2283 53.3281 20.6283 53.3281 15.9997C53.3281 11.3711 57.1463 7.64258 61.7281 7.64258Z" fill="#F79F1A"/>
<path fill-rule="evenodd" clip-rule="evenodd" d="M53.3281 16C53.3281 13.5572 54.3463 11.3715 56.1269 9.82861C59.5632 12.7858 59.819 18.0572 56.8918 21.4L56.1269 22.1715C54.3463 20.6286 53.3281 18.4429 53.3281 16Z" fill="#FF5F01"/>
</g>
</g>
<g clip-path="url(#clip6_6725_197987)">
<g clip-path="url(#clip7_6725_197987)">
<path d="M101 5H80V27.048H101V5Z" fill="white"/>
<path fill-rule="evenodd" clip-rule="evenodd" d="M93.1445 15.6404L93.1449 15.6415H91.2264L90.7119 14.4107H87.9218L87.4069 15.6415H85.5349L88.2643 9.49543H90.427L93.1194 15.5837V9.49445L95.7507 9.5035L97.1047 13.2819L98.4674 9.49445H101V15.6404L99.3703 15.6548V11.4331L97.832 15.6404H96.3446L94.7744 11.4187V15.6404H93.1445ZM93.1223 16.5035H95.33L97.0936 18.453L98.8621 16.5035H101V16.5519L98.1753 19.5754L101 22.5673V22.6545H98.8406L97.0458 20.6854L95.2694 22.6545H93.1223H87.9067V16.5034L93.1223 16.5035ZM93.1223 16.5313V17.9204H89.5954V18.8823H93.0382V20.2757H89.5954V21.2205H93.1223V22.6268L95.9823 19.5754L93.1223 16.5313ZM86.9696 16.5219V23.5188L95.6686 23.5372L97.0348 22.0131L98.4107 23.5315H101V21.3078L99.3782 19.5589L101 17.8259V16.5219V8.63902H97.8116L97.0892 10.6598L96.3691 8.63902H92.1938V11.3363L91.0059 8.63902H87.624L84.1504 16.5219H86.9696ZM79 27V5H101V27H79ZM88.4988 13.0314H90.1352L89.3173 11.0749L88.4988 13.0314Z" fill="#006FCF"/>
</g>
</g>
<g clip-path="url(#clip8_6725_197987)">
<g clip-path="url(#clip9_6725_197987)">
<path d="M113.699 18.4561C113.281 18.8574 112.739 19.0325 111.88 19.0325H111.523V14.2369H111.88C112.739 14.2369 113.26 14.4005 113.699 14.8234C114.158 15.2591 114.435 15.9341 114.435 16.6288C114.435 17.325 114.158 18.0206 113.699 18.4561ZM112.146 13.0082H110.195V20.2603H112.136C113.168 20.2603 113.913 20.0011 114.567 19.4231C115.344 18.7384 115.804 17.7066 115.804 16.6393C115.804 14.4991 114.302 13.0082 112.146 13.0082Z" fill="#1C1D1F"/>
<path d="M116.416 20.2607H117.745V13.0087H116.416V20.2607Z" fill="#1C1D1F"/>
<path d="M120.993 15.7914C120.196 15.4773 119.962 15.2701 119.962 14.8783C119.962 14.4216 120.379 14.0745 120.952 14.0745C121.35 14.0745 121.677 14.2486 122.023 14.6618L122.719 13.6926C122.147 13.1606 121.464 12.8886 120.717 12.8886C119.511 12.8886 118.592 13.7797 118.592 14.9666C118.592 15.9657 119.02 16.4772 120.268 16.9554C120.788 17.1507 121.053 17.2808 121.187 17.3684C121.452 17.5529 121.585 17.8142 121.585 18.1188C121.585 18.7064 121.146 19.1417 120.553 19.1417C119.919 19.1417 119.409 18.8043 119.103 18.1745L118.244 19.0544C118.856 20.0111 119.592 20.4351 120.603 20.4351C121.984 20.4351 122.953 19.4576 122.953 18.0537C122.953 16.9015 122.505 16.3799 120.993 15.7914ZM123.372 16.6396C123.372 18.7712 124.945 20.4241 126.969 20.4241C127.541 20.4241 128.031 20.3044 128.635 20.0014V18.3363C128.104 18.9023 127.633 19.1306 127.03 19.1306C125.692 19.1306 124.742 18.0977 124.742 16.6291C124.742 15.2367 125.722 14.1384 126.969 14.1384C127.603 14.1384 128.082 14.3792 128.635 14.9544V13.29C128.052 12.975 127.572 12.8446 127 12.8446C124.987 12.8446 123.372 14.5309 123.372 16.6396Z" fill="#1C1D1F"/>
<path d="M139.173 17.8798L137.356 13.0088H135.904L138.795 20.4468H139.51L142.454 13.0088H141.013L139.173 17.8798Z" fill="#1C1D1F"/>
<path d="M143.055 20.2607H146.824V19.0327H144.383V17.0747H146.734V15.8467H144.383V14.2367H146.824V13.0087H143.055V20.2607Z" fill="#1C1D1F"/>
<path d="M149.421 16.347H149.033V14.1505H149.442C150.269 14.1505 150.719 14.5196 150.719 15.2254C150.719 15.9544 150.269 16.347 149.421 16.347ZM152.087 15.1492C152.087 13.7915 151.208 13.0082 149.676 13.0082H147.705V20.2603H149.033V17.347H149.206L151.045 20.2603H152.68L150.535 17.2051C151.536 16.9885 152.087 16.2596 152.087 15.1492ZM152.851 13.111H152.802V12.8235H152.854C152.995 12.8235 153.068 12.8703 153.068 12.965C153.068 13.0623 152.994 13.111 152.851 13.111ZM153.354 12.9609C153.354 12.7416 153.19 12.6216 152.901 12.6216H152.516V13.7216H152.802V13.295L153.138 13.7216H153.486L153.093 13.268C153.261 13.2263 153.354 13.1136 153.354 12.9609Z" fill="#1C1D1F"/>
<path d="M152.766 13.8582C152.523 13.8582 152.325 13.6555 152.325 13.4026C152.325 13.1487 152.521 12.9461 152.766 12.9461C153.008 12.9461 153.205 13.1534 153.205 13.4026C153.205 13.6534 153.008 13.8582 152.766 13.8582ZM152.768 12.8461C152.46 12.8461 152.215 13.0931 152.215 13.4018C152.215 13.7102 152.463 13.9575 152.768 13.9575C153.069 13.9575 153.315 13.7075 153.315 13.4018C153.315 13.0975 153.069 12.8461 152.768 12.8461Z" fill="#1C1D1F"/>
<path fill-rule="evenodd" clip-rule="evenodd" d="M129.07 16.6612C129.07 16.6612 129.07 16.6612 129.07 16.6589C129.07 14.5294 130.693 12.802 132.694 12.802C134.697 12.802 136.32 14.5294 136.32 16.6589C136.32 16.6612 136.32 16.6612 136.32 16.6612C136.32 18.7907 134.697 20.5181 132.694 20.5181C130.693 20.5181 129.07 18.7907 129.07 16.6612Z" fill="url(#paint0_linear_6725_197987)"/>
</g>
</g>
<g clip-path="url(#clip10_6725_197987)">
<path d="M171.112 12.3721H164.699V19.586H171.112V12.3721Z" fill="white"/>
<path d="M179.127 12.3721H172.715V19.586H179.127V12.3721Z" fill="white"/>
<path d="M187.143 12.3721H180.73V19.586H187.143V12.3721Z" fill="white"/>
<path fill-rule="evenodd" clip-rule="evenodd" d="M187.143 21.1889V7.5625H183.135C181.807 7.5625 180.73 8.63899 180.73 9.96716V13.009H184.268C184.278 13.009 184.289 13.0091 184.3 13.009C184.752 13.0089 185.247 13.0087 185.686 13.268C186.06 13.49 186.26 13.8371 186.26 14.2643C186.26 14.8478 185.854 15.3648 185.043 15.4907V15.5219C185.856 15.5844 186.472 15.9916 186.563 16.6441C186.57 16.6986 186.574 16.7539 186.574 16.8117C186.574 17.6805 185.79 18.1398 184.887 18.147H180.73V23.5935H184.738C186.066 23.5935 187.143 22.5171 187.143 21.1889ZM184.113 14.3075C184.123 14.3548 184.129 14.4053 184.129 14.4574C184.129 14.5103 184.123 14.56 184.113 14.6073C184.033 14.972 183.742 15.1074 183.365 15.1074H182.037V13.8065H183.391C183.815 13.8073 184.048 14.0125 184.113 14.3075ZM182.037 15.9024H183.545C183.976 15.9024 184.223 16.1333 184.293 16.4427C184.305 16.4947 184.312 16.5492 184.312 16.607C184.312 16.6647 184.305 16.7192 184.293 16.7721C184.222 17.0863 183.961 17.3123 183.571 17.3123H182.037V15.9024Z" fill="#269732"/>
<path fill-rule="evenodd" clip-rule="evenodd" d="M164.699 16.8337V9.96764C164.699 8.63947 165.776 7.56299 167.104 7.56299H171.112V21.1894C171.112 22.5175 170.038 23.594 168.71 23.594C167.703 23.594 166.371 23.594 164.699 23.594V17.9631C165.675 18.2316 168.03 18.5307 169.414 18.0048C170.285 17.6753 170.74 17.0533 170.74 16.1099V13.0103H168.442V16.1099C168.442 16.7359 168.097 17.2184 167.483 17.3764C166.691 17.5808 165.53 17.2353 164.699 16.8337Z" fill="#034D9B"/>
<path fill-rule="evenodd" clip-rule="evenodd" d="M172.715 13.7329V9.96716C172.715 8.63899 173.791 7.5625 175.12 7.5625H179.127V21.1889C179.127 22.5171 178.052 23.5935 176.724 23.5935C175.734 23.5935 174.412 23.5935 172.715 23.5935V17.4248C173.354 17.9731 174.255 18.1806 175.087 18.2592C176.16 18.3538 177.321 18.2704 178.562 17.9635V16.8333C177.837 17.194 176.934 17.5185 175.911 17.4159C174.787 17.2853 174.227 16.5824 174.227 15.5789C174.227 14.5232 174.848 13.8475 175.936 13.7377C176.809 13.6511 177.741 13.9116 178.562 14.3236V13.1926C177.413 12.9089 176.415 12.8335 175.473 12.872C174.514 12.9185 173.441 13.1092 172.715 13.7329Z" fill="#AD1031"/>
</g>
<g clip-path="url(#clip11_6725_197987)">
<g clip-path="url(#clip12_6725_197987)">
<path d="M226.161 6.04985L218.616 6.04785H218.614L218.597 6.04885C217.561 6.08185 216.27 6.92585 216.035 7.96585L212.467 23.9939C212.232 25.0438 212.871 25.8989 213.9 25.9139H221.826C222.84 25.8639 223.824 25.0289 224.056 24.0009L227.623 7.97285C227.863 6.91185 227.207 6.04985 226.161 6.04985Z" fill="#01798A"/>
<path d="M212.467 23.9939L216.035 7.96585C216.269 6.92585 217.561 6.08185 218.597 6.04985L215.597 6.04785H210.193C209.153 6.06785 207.846 6.91785 207.611 7.96785L204.041 23.9949C203.806 25.0449 204.446 25.8999 205.474 25.9149H213.9C212.871 25.8999 212.232 25.0449 212.467 23.9949" fill="#024381"/>
<path d="M204.042 23.9939L207.611 7.96595C207.846 6.91795 209.153 6.06795 210.193 6.04595L203.269 6.04395C202.224 6.04395 200.884 6.90395 200.645 7.96595L197.075 23.9939C197.055 24.0885 197.042 24.1845 197.035 24.2809V24.5789C197.105 25.3439 197.681 25.9019 198.509 25.9149H205.474C204.446 25.8989 203.806 25.0449 204.042 23.9939Z" fill="#DD0228"/>
<path d="M210.339 17.7248H210.469C210.59 17.7248 210.671 17.6848 210.709 17.6028L211.049 17.0858H211.961L211.771 17.4258H212.865L212.725 17.9468H211.425C211.275 18.1758 211.091 18.2838 210.869 18.2708H210.191L210.339 17.7248ZM210.189 18.4718H212.584L212.431 19.0388H211.468L211.321 19.5848H212.259L212.106 20.1508H211.169L210.951 20.9588C210.897 21.0938 210.968 21.1548 211.162 21.1408H211.926L211.785 21.6668H210.318C210.04 21.6668 209.945 21.5058 210.032 21.1818L210.31 20.1518H209.711L209.863 19.5848H210.463L210.609 19.0388H210.037L210.189 18.4718ZM214.012 17.0818L213.974 17.4128C213.974 17.4128 214.426 17.0688 214.836 17.0688H216.353L215.773 19.1988C215.725 19.4428 215.519 19.5648 215.154 19.5648H213.436L213.033 21.0608C213.01 21.1408 213.043 21.1818 213.129 21.1818H213.468L213.343 21.6468H212.483C212.153 21.6468 212.016 21.5458 212.071 21.3438L213.208 17.0818H214.012ZM215.296 17.6838H213.943L213.781 18.2588C213.781 18.2588 214.006 18.0938 214.383 18.0878C214.758 18.0818 215.187 18.0878 215.187 18.0878L215.296 17.6838ZM214.806 19.0178C214.906 19.0318 214.962 18.9918 214.968 18.8968L215.051 18.5938H213.696L213.582 19.0178H214.806ZM213.891 19.7058H214.673L214.658 20.0498H214.866C214.971 20.0498 215.023 20.0148 215.023 19.9478L215.085 19.7258H215.735L215.648 20.0498C215.574 20.3198 215.38 20.4598 215.064 20.4738H214.648L214.646 21.0608C214.638 21.1548 214.722 21.2028 214.894 21.2028H215.285L215.159 21.6668H214.221C213.958 21.6798 213.829 21.5528 213.831 21.2828L213.891 19.7058ZM204.424 14.2428C204.318 14.7698 204.072 15.1748 203.691 15.4628C203.314 15.7448 202.827 15.8868 202.231 15.8868C201.669 15.8868 201.258 15.7418 200.996 15.4508C200.814 15.2448 200.723 14.9828 200.723 14.6658C200.723 14.5348 200.738 14.3938 200.769 14.2428L201.405 11.1328H202.364L201.737 14.2068C201.718 14.2918 201.71 14.3718 201.711 14.4428C201.704 14.5813 201.745 14.7178 201.827 14.8298C201.941 14.9798 202.125 15.0538 202.382 15.0538C202.677 15.0538 202.92 14.9808 203.109 14.8338C203.298 14.6868 203.421 14.4778 203.477 14.2068L204.105 11.1328H205.06L204.424 14.2428ZM208.454 13.0198H209.204L208.616 15.7948H207.866L208.454 13.0198ZM208.69 12.0078H209.448L209.307 12.6818H208.548L208.69 12.0078ZM209.87 15.5828C209.674 15.3928 209.574 15.1348 209.573 14.8088C209.574 14.6775 209.587 14.5466 209.613 14.4178C209.703 13.9668 209.893 13.6078 210.185 13.3448C210.472 13.0813 210.851 12.9387 211.241 12.9468C211.579 12.9468 211.846 13.0428 212.042 13.2338C212.238 13.4268 212.337 13.6868 212.337 14.0178C212.337 14.0738 212.332 14.1398 212.325 14.2098C212.316 14.2818 212.305 14.3498 212.294 14.4178C212.207 14.8618 212.017 15.2158 211.725 15.4748C211.436 15.7339 211.059 15.8734 210.672 15.8648C210.333 15.8648 210.066 15.7718 209.87 15.5828ZM211.302 15.0328C211.435 14.8878 211.529 14.6668 211.587 14.3728C211.604 14.2827 211.613 14.1914 211.615 14.0998C211.615 13.9288 211.572 13.7958 211.486 13.7018C211.4 13.6068 211.279 13.5598 211.121 13.5598C210.926 13.5543 210.739 13.6361 210.611 13.7828C210.476 13.9318 210.381 14.1568 210.321 14.4558C210.313 14.5013 210.306 14.547 210.301 14.5928C210.296 14.6353 210.294 14.6781 210.295 14.7208C210.295 14.8908 210.338 15.0218 210.425 15.1148C210.51 15.2078 210.631 15.2538 210.791 15.2538C211.001 15.2538 211.17 15.1798 211.302 15.0338V15.0328Z" fill="white"/>
<path d="M218.615 6.05188L215.598 6.04688L218.598 6.05688C218.604 6.05688 218.61 6.05188 218.615 6.05188Z" fill="#E02F41"/>
<path d="M215.597 6.05895L210.234 6.04395C210.22 6.04516 210.206 6.04853 210.193 6.05395L215.597 6.05895Z" fill="#2E4F7D"/>
<path d="M217.213 17.7489L217.394 17.1009H218.31L218.27 17.3389C218.27 17.3389 218.739 17.1009 219.076 17.1009H220.209L220.029 17.7489H219.851L218.996 20.8019H219.174L219.004 21.4079H218.826L218.752 21.6709H217.865L217.939 21.4079H216.189L216.359 20.8019H216.535L217.39 17.7489H217.213ZM218.201 17.7489L217.968 18.5749C217.968 18.5749 218.368 18.4189 218.711 18.3749C218.787 18.0869 218.886 17.7489 218.886 17.7489H218.201ZM217.861 18.9619L217.626 19.8279C217.626 19.8279 218.068 19.6069 218.372 19.5879C218.459 19.2539 218.547 18.9619 218.547 18.9619H217.861ZM218.031 20.8019L218.207 20.1739H217.523L217.347 20.8019H218.031ZM220.247 17.0619H221.109L221.145 17.3839C221.139 17.4659 221.188 17.5049 221.29 17.5049H221.442L221.288 18.0519H220.655C220.413 18.0639 220.289 17.9709 220.277 17.7679L220.247 17.0609V17.0619ZM219.995 18.2339H222.785L222.621 18.8199H221.733L221.581 19.3659H222.468L222.303 19.9519H221.315L221.091 20.2949H221.575L221.687 20.9829C221.7 21.0509 221.76 21.0839 221.862 21.0839H222.012L221.854 21.6509H221.322C221.047 21.6639 220.904 21.5709 220.892 21.3679L220.765 20.7399L220.325 21.4079C220.236 21.5882 220.044 21.6935 219.845 21.6709H219.033L219.191 21.1049H219.444C219.548 21.1049 219.634 21.0579 219.713 20.9629L220.402 19.9519H219.513L219.678 19.3659H220.641L220.795 18.8199H219.83L219.995 18.2339ZM205.309 13.0179H205.987L205.909 13.4189L206.006 13.3049C206.226 13.0659 206.493 12.9479 206.808 12.9479C207.093 12.9479 207.298 13.0319 207.428 13.2009C207.555 13.3709 207.589 13.6039 207.529 13.9039L207.156 15.7959H206.46L206.797 14.0809C206.831 13.9039 206.822 13.7719 206.768 13.6869C206.715 13.6019 206.614 13.5599 206.468 13.5599C206.289 13.5599 206.138 13.6169 206.015 13.7299C205.885 13.8563 205.799 14.0211 205.771 14.1999L205.461 15.7959H204.762L205.309 13.0179ZM213.08 13.0179H213.759L213.682 13.4189L213.778 13.3049C213.98 13.0747 214.272 12.9443 214.579 12.9479C214.864 12.9479 215.071 13.0319 215.199 13.2009C215.325 13.3709 215.362 13.6039 215.299 13.9039L214.928 15.7959H214.231L214.568 14.0809C214.602 13.9039 214.593 13.7719 214.54 13.6869C214.485 13.6019 214.386 13.5599 214.24 13.5599C214.072 13.5561 213.91 13.617 213.787 13.7299C213.656 13.8558 213.571 14.0208 213.543 14.1999L213.231 15.7959H212.534L213.08 13.0179ZM216.433 11.2969H218.402C218.78 11.2969 219.073 11.3839 219.274 11.5549C219.474 11.7279 219.575 11.9769 219.575 12.2999V12.3099C219.575 12.3719 219.571 12.4409 219.565 12.5159C219.555 12.5909 219.543 12.6659 219.527 12.7439C219.453 13.1479 219.241 13.5136 218.927 13.7779C218.615 14.0379 218.246 14.1689 217.82 14.1689H216.764L216.438 15.7959H215.523L216.433 11.2969ZM216.925 13.3869H217.801C218.029 13.3869 218.21 13.3329 218.342 13.2269C218.473 13.1189 218.56 12.9549 218.608 12.7319L218.626 12.6189C218.629 12.5869 218.633 12.5549 218.633 12.5229C218.633 12.3629 218.577 12.2489 218.465 12.1759C218.354 12.1029 218.178 12.0679 217.935 12.0679H217.192L216.925 13.3869ZM223.667 16.3329C223.378 16.9559 223.103 17.3199 222.941 17.4889C222.779 17.6569 222.458 18.0459 221.686 18.0169L221.752 17.5399C222.402 17.3369 222.754 16.4199 222.954 16.0149L222.715 13.0259L223.218 13.0189H223.64L223.686 14.8939L224.476 13.0189H225.276L223.667 16.3329ZM221.429 13.2449L221.11 13.4669C220.778 13.2029 220.475 13.0399 219.89 13.3149C219.091 13.6909 218.425 16.5709 220.621 15.6219L220.746 15.7729L221.61 15.7959L222.178 13.1789L221.429 13.2449ZM220.938 14.6749C220.798 15.0909 220.488 15.3659 220.246 15.2879C220.003 15.2119 219.916 14.8109 220.056 14.3939C220.196 13.9779 220.508 13.7039 220.748 13.7819C220.991 13.8579 221.078 14.2579 220.938 14.6749Z" fill="white"/>
</g>
</g>
</g>
<defs>
<linearGradient id="paint0_linear_6725_197987" x1="491.538" y1="20.5181" x2="491.538" y2="-751.091" gradientUnits="userSpaceOnUse">
<stop stop-color="#E0481E"/>
<stop offset="1" stop-color="#F59314"/>
</linearGradient>
<clipPath id="clip0_6725_197987">
<rect width="228" height="24" fill="white" transform="translate(0 4)"/>
</clipPath>
<clipPath id="clip1_6725_197987">
<rect width="34" height="24" fill="white" transform="translate(0 4)"/>
</clipPath>
<clipPath id="clip2_6725_197987">
<rect width="34" height="24" fill="white" transform="translate(0 4)"/>
</clipPath>
<clipPath id="clip3_6725_197987">
<rect width="34" height="22.6667" fill="white" transform="translate(0 4.6665)"/>
</clipPath>
<clipPath id="clip4_6725_197987">
<rect width="28" height="24" fill="white" transform="translate(42 4)"/>
</clipPath>
<clipPath id="clip5_6725_197987">
<rect width="28" height="24" fill="white" transform="translate(42 4)"/>
</clipPath>
<clipPath id="clip6_6725_197987">
<rect width="24" height="24" fill="white" transform="translate(78 4)"/>
</clipPath>
<clipPath id="clip7_6725_197987">
<rect width="24" height="24" fill="white" transform="translate(78 4)"/>
</clipPath>
<clipPath id="clip8_6725_197987">
<rect width="44" height="24" fill="white" transform="translate(110 4)"/>
</clipPath>
<clipPath id="clip9_6725_197987">
<rect width="44" height="24" fill="white" transform="translate(110 4)"/>
</clipPath>
<clipPath id="clip10_6725_197987">
<rect width="27" height="24" fill="white" transform="translate(162 4)"/>
</clipPath>
<clipPath id="clip11_6725_197987">
<rect width="31" height="24" fill="white" transform="translate(197 4)"/>
</clipPath>
<clipPath id="clip12_6725_197987">
<rect width="31" height="24" fill="white" transform="translate(197 4)"/>
</clipPath>
</defs>
</svg>
