<svg width="20" height="20" viewBox="0 0 20 20" fill="none" xmlns="http://www.w3.org/2000/svg">
<g clip-path="url(#clip0_6791_81550)">
<path d="M7.52867 2.34307C8.91433 1.02933 11.0857 1.02933 12.4713 2.34307C13.0143 2.85789 13.7045 3.19028 14.4456 3.29382C16.3367 3.55807 17.6905 5.25569 17.5273 7.15815C17.4633 7.90366 17.6338 8.65053 18.0149 9.29446C18.9873 10.9377 18.5042 13.0546 16.915 14.1132C16.2923 14.528 15.8147 15.127 15.5488 15.8264C14.8704 17.6112 12.9141 18.5534 11.0956 17.9709C10.383 17.7427 9.61696 17.7427 8.90437 17.9709C7.08593 18.5534 5.12962 17.6112 4.4512 15.8264C4.18535 15.127 3.70771 14.528 3.08497 14.1132C1.49583 13.0546 1.01266 10.9377 1.98513 9.29446C2.36621 8.65053 2.53668 7.90366 2.47273 7.15815C2.30954 5.25569 3.66335 3.55807 5.55442 3.29382C6.29547 3.19028 6.98568 2.85789 7.52867 2.34307Z" fill="#4670F9"/>
<path d="M6.36914 9.78977L8.80574 12.2265L13.2588 7.77344" stroke="white" stroke-width="1.5" stroke-miterlimit="10" stroke-linecap="round" stroke-linejoin="round"/>
</g>
<defs>
<clipPath id="clip0_6791_81550">
<rect width="20" height="20" fill="white"/>
</clipPath>
</defs>
</svg>

