<svg width="24" height="25" viewBox="0 0 24 25" fill="none" xmlns="http://www.w3.org/2000/svg">
<g clip-path="url(#clip0_8523_85480)">
<path d="M11.4141 2.24834C11.7891 2.08896 12.211 2.08896 12.586 2.24834L20.8688 5.76397C21.3985 5.98897 21.7547 6.49053 21.75 7.05771C21.7266 11.464 19.9031 19.2358 12.586 22.7374C12.2156 22.9155 11.7797 22.9155 11.4094 22.7374C4.09221 19.2312 2.27346 11.4593 2.25002 7.05303C2.24533 6.48584 2.60158 5.98428 3.13127 5.75928L11.4141 2.24365V2.24834ZM13.1719 0.865527C12.4219 0.546777 11.5781 0.546777 10.8281 0.865527L2.54533 4.38115C1.51408 4.81709 0.745334 5.83428 0.750021 7.0624C0.773459 11.7124 2.68596 20.2202 10.7625 24.0874C11.5453 24.4624 12.4547 24.4624 13.2375 24.0874C21.3141 20.2202 23.2266 11.7124 23.25 7.0624C23.2547 5.83428 22.486 4.81709 21.4547 4.38115L13.1719 0.865527ZM17.0297 10.0296C17.3203 9.73897 17.3203 9.26084 17.0297 8.97021C16.7391 8.67959 16.261 8.67959 15.9703 8.97021L10.5 14.4405L8.02971 11.9702C7.73908 11.6796 7.26096 11.6796 6.97033 11.9702C6.67971 12.2608 6.67971 12.739 6.97033 13.0296L9.97033 16.0296C10.261 16.3202 10.7391 16.3202 11.0297 16.0296L17.0297 10.0296Z" fill="#1C1D1F"/>
</g>
<defs>
<clipPath id="clip0_8523_85480">
<rect width="24" height="24" fill="white" transform="translate(0 0.5)"/>
</clipPath>
</defs>
</svg>
