<svg width="20" height="20" viewBox="0 0 20 20" fill="none" xmlns="http://www.w3.org/2000/svg">
<path d="M17.486 8.59636H10.1566V11.4813H14.4451C14.3671 12.1831 13.8993 13.2747 12.8856 13.9764C12.2618 14.4443 11.3262 14.7562 10.1566 14.7562C8.12932 14.7562 6.33596 13.4306 5.71218 11.4813C5.55624 11.0135 5.47826 10.4677 5.47826 9.92189C5.47826 9.37608 5.55624 8.83027 5.71218 8.36244C5.79015 8.2065 5.79015 8.05055 5.86812 7.97258C6.56987 6.33516 8.20729 5.16558 10.1566 5.16558C11.6381 5.16558 12.5737 5.78936 13.1975 6.33516L15.3807 4.15194C14.0552 2.98236 12.2618 2.20264 10.1566 2.20264C7.11568 2.20264 4.46462 3.91803 3.21707 6.49111C2.67126 7.58272 2.35938 8.7523 2.35938 9.99986C2.35938 11.2474 2.67126 12.417 3.21707 13.5086C4.46462 16.0817 7.11568 17.7971 10.1566 17.7971C12.2618 17.7971 14.0552 17.0953 15.3028 15.9257C16.7842 14.6002 17.6419 12.5729 17.6419 10.1558C17.6419 9.53202 17.564 9.06419 17.486 8.59636Z" stroke="#1C1D1F" stroke-linecap="round" stroke-linejoin="round"/>
</svg>

