<svg width="20" height="20" viewBox="0 0 20 20" fill="none" xmlns="http://www.w3.org/2000/svg">
<path d="M6.62875 17.0936V9.29084M3.08203 10.7095V15.6749C3.08203 16.4585 3.7172 17.0936 4.50072 17.0936H14.0246C15.0749 17.0936 15.9681 16.3273 16.1278 15.2892L16.8918 10.3238C17.0901 9.03469 16.0927 7.87215 14.7885 7.87215H12.3035C11.9118 7.87215 11.5942 7.55457 11.5942 7.16281V4.65587C11.5942 3.68985 10.8111 2.90674 9.84504 2.90674C9.61462 2.90674 9.40582 3.04243 9.31224 3.25299L6.81598 8.86959C6.70213 9.12575 6.44809 9.29084 6.16777 9.29084H4.50072C3.7172 9.29084 3.08203 9.92601 3.08203 10.7095Z" stroke="#1C1D1F" stroke-linecap="round" stroke-linejoin="round"/>
</svg>
