<svg width="20" height="21" viewBox="0 0 20 21" fill="none" xmlns="http://www.w3.org/2000/svg">
<path d="M17.8493 15.4585L12.361 10.5013M7.63977 10.5013L2.15141 15.4585M1.73828 6.37022L8.4842 11.0924C9.03047 11.4748 9.3036 11.6659 9.60069 11.74C9.86312 11.8054 10.1376 11.8054 10.4 11.74C10.6971 11.6659 10.9703 11.4748 11.5165 11.0924L18.2624 6.37022M5.70408 17.1109H14.2966C15.6848 17.1109 16.3789 17.1109 16.9091 16.8408C17.3755 16.6031 17.7546 16.224 17.9923 15.7576C18.2624 15.2274 18.2624 14.5333 18.2624 13.1451V7.8574C18.2624 6.46924 18.2624 5.77516 17.9923 5.24495C17.7546 4.77857 17.3755 4.39939 16.9091 4.16176C16.3789 3.8916 15.6848 3.8916 14.2966 3.8916H5.70408C4.31592 3.8916 3.62184 3.8916 3.09163 4.16176C2.62525 4.39939 2.24607 4.77857 2.00844 5.24495C1.73828 5.77516 1.73828 6.46924 1.73828 7.8574V13.1451C1.73828 14.5333 1.73828 15.2274 2.00844 15.7576C2.24607 16.224 2.62525 16.6031 3.09163 16.8408C3.62184 17.1109 4.31592 17.1109 5.70408 17.1109Z" stroke="#1C1D1F" stroke-linecap="round" stroke-linejoin="round"/>
</svg>

