<svg width="20" height="20" viewBox="0 0 20 20" fill="none" xmlns="http://www.w3.org/2000/svg">
<path d="M2.58398 17.4151L6.91999 15.7474C7.19733 15.6407 7.336 15.5874 7.46573 15.5177C7.58097 15.4559 7.69083 15.3845 7.79416 15.3043C7.91049 15.214 8.01555 15.109 8.22566 14.8988L17.0393 6.08527C17.9023 5.22219 17.9023 3.82288 17.0393 2.9598C16.1762 2.09673 14.7769 2.09673 13.9138 2.9598L5.1002 11.7734C4.89009 11.9835 4.78503 12.0886 4.69476 12.2049C4.61457 12.3082 4.54318 12.4181 4.48132 12.5333C4.41168 12.663 4.35835 12.8017 4.25168 13.0791L2.58398 17.4151ZM2.58398 17.4151L4.19213 13.2339C4.3072 12.9347 4.36474 12.7851 4.46343 12.7166C4.54968 12.6567 4.6564 12.6341 4.75954 12.6538C4.87755 12.6763 4.99089 12.7897 5.21756 13.0163L6.98274 14.7815C7.20941 15.0082 7.32275 15.1215 7.34528 15.2395C7.36498 15.3427 7.34233 15.4494 7.28245 15.5356C7.21392 15.6343 7.06432 15.6919 6.76512 15.8069L2.58398 17.4151Z" stroke="#1C1D1F" stroke-linecap="round" stroke-linejoin="round"/>
</svg>

