<svg width="20" height="20" viewBox="0 0 20 20" fill="none" xmlns="http://www.w3.org/2000/svg">
<path d="M7.38815 2.16846L6.51797 6.51937M13.4794 2.16846L12.6092 6.51937M18.7005 6.51937H1.29688M5.47375 17.8317H14.5236C15.9857 17.8317 16.7167 17.8317 17.2751 17.5472C17.7663 17.2969 18.1657 16.8976 18.416 16.4064C18.7005 15.8479 18.7005 15.1169 18.7005 13.6549V6.34533C18.7005 4.88329 18.7005 4.15227 18.416 3.59384C18.1657 3.10263 17.7663 2.70327 17.2751 2.45299C16.7167 2.16846 15.9857 2.16846 14.5236 2.16846H5.47375C4.01171 2.16846 3.28069 2.16846 2.72226 2.45299C2.23105 2.70327 1.83169 3.10263 1.58141 3.59384C1.29688 4.15227 1.29688 4.88329 1.29688 6.34533V13.6549C1.29688 15.1169 1.29688 15.8479 1.58141 16.4064C1.83169 16.8976 2.23105 17.2969 2.72226 17.5472C3.28069 17.8317 4.01171 17.8317 5.47375 17.8317Z" stroke="#1C1D1F" stroke-linecap="round" stroke-linejoin="round"/>
<path d="M11.4866 11.3307C11.7702 11.4944 11.9119 11.5762 11.9595 11.6831C12.001 11.7763 12.001 11.8827 11.9595 11.9759C11.9119 12.0828 11.7702 12.1647 11.4866 12.3283L8.94212 13.7974C8.65859 13.9611 8.51683 14.043 8.40049 14.0307C8.29903 14.0201 8.20685 13.9668 8.14688 13.8843C8.07813 13.7897 8.07813 13.626 8.07813 13.2986L8.07813 10.3605C8.07813 10.0331 8.07813 9.86936 8.14688 9.77473C8.20685 9.69219 8.29903 9.63897 8.40049 9.6283C8.51683 9.61608 8.65859 9.69793 8.94213 9.86162L11.4866 11.3307Z" fill="#1C1D1F"/>
</svg>


