<svg width="13" height="12" viewBox="0 0 13 12" fill="none" xmlns="http://www.w3.org/2000/svg">
<path d="M3 4.50001V8.50001M5.25 4.50001V8.50001M7.75 4.50001V8.50001M10 4.50001V8.50001M2 9.30001L2 9.70001C2 9.98004 2 10.12 2.0545 10.227C2.10243 10.3211 2.17892 10.3976 2.273 10.4455C2.37996 10.5 2.51997 10.5 2.8 10.5H10.2C10.48 10.5 10.62 10.5 10.727 10.4455C10.8211 10.3976 10.8976 10.3211 10.9455 10.227C11 10.12 11 9.98004 11 9.70001V9.30001C11 9.01998 11 8.87997 10.9455 8.77302C10.8976 8.67893 10.8211 8.60244 10.727 8.55451C10.62 8.50001 10.48 8.50001 10.2 8.50001H2.8C2.51997 8.50001 2.37996 8.50001 2.273 8.55451C2.17892 8.60244 2.10243 8.67893 2.0545 8.77301C2 8.87997 2 9.01998 2 9.30001ZM6.32646 1.53858L2.62646 2.3608C2.40293 2.41047 2.29116 2.43531 2.20773 2.49541C2.13415 2.54843 2.07636 2.62046 2.04057 2.70379C2 2.79827 2 2.91276 2 3.14175L2 3.70001C2 3.98004 2 4.12005 2.0545 4.22701C2.10243 4.32109 2.17892 4.39758 2.273 4.44551C2.37996 4.50001 2.51997 4.50001 2.8 4.50001H10.2C10.48 4.50001 10.62 4.50001 10.727 4.44551C10.8211 4.39758 10.8976 4.32109 10.9455 4.22701C11 4.12005 11 3.98004 11 3.70001V3.14175C11 2.91276 11 2.79827 10.9594 2.70379C10.9236 2.62046 10.8659 2.54843 10.7923 2.49541C10.7088 2.43531 10.5971 2.41047 10.3735 2.3608L6.67354 1.53858C6.60878 1.52418 6.5764 1.51699 6.54368 1.51412C6.51461 1.51157 6.48538 1.51157 6.45632 1.51412C6.4236 1.51699 6.39122 1.52418 6.32646 1.53858Z" stroke="white" stroke-linecap="round" stroke-linejoin="round"/>
</svg>
