<svg width="16" height="6" viewBox="0 0 16 6" fill="none" xmlns="http://www.w3.org/2000/svg">
<path fill-rule="evenodd" clip-rule="evenodd" d="M4.33463 5.48028H3.00723L2.01185 1.57113C1.9646 1.39131 1.86429 1.23234 1.71673 1.15741C1.34847 0.969124 0.942681 0.819274 0.5 0.743697V0.593195H2.63833C2.93345 0.593195 3.15479 0.819274 3.19168 1.08184L3.70815 3.90163L5.0349 0.593195H6.3254L4.33463 5.48028ZM7.06327 5.48028H5.80965L6.84193 0.593195H8.09554L7.06327 5.48028ZM9.71724 1.94705C9.75413 1.68383 9.97547 1.53333 10.2337 1.53333C10.6395 1.49554 11.0815 1.57112 11.4504 1.75876L11.6718 0.706548C11.3029 0.556046 10.8971 0.480469 10.5288 0.480469C9.3121 0.480469 8.42673 1.1574 8.42673 2.0969C8.42673 2.81162 9.05387 3.1869 9.49655 3.41298C9.97547 3.6384 10.1599 3.78891 10.123 4.01433C10.123 4.35248 9.75413 4.50298 9.38588 4.50298C8.9432 4.50298 8.50051 4.39026 8.09537 4.20197L7.87403 5.25484C8.31671 5.44247 8.79564 5.51805 9.23832 5.51805C10.6026 5.55519 11.4504 4.87891 11.4504 3.86383C11.4504 2.58554 9.71724 2.51062 9.71724 1.94705ZM15.8378 5.48028L14.8424 0.593195H13.7733C13.5519 0.593195 13.3306 0.743697 13.2568 0.969124L11.4136 5.48028H12.7041L12.9617 4.7662H14.5473L14.6949 5.48028H15.8378ZM13.9579 1.90928L14.3262 3.75113H13.2939L13.9579 1.90928Z" fill="white"/>
</svg>
