<svg width="14" height="14" viewBox="0 0 14 14" fill="none" xmlns="http://www.w3.org/2000/svg">
<g clip-path="url(#clip0_703_21645)">
<path d="M7.00043 12.6572L7.00043 1.3429M1.34326 9.64007L1.34326 4.36005C1.34326 3.30395 1.34326 2.7759 1.54879 2.37252C1.72958 2.0177 2.01806 1.72922 2.37288 1.54843C2.77626 1.3429 3.30431 1.3429 4.36042 1.3429L9.64044 1.3429C10.6965 1.3429 11.2246 1.3429 11.628 1.54843C11.9828 1.72922 12.2713 2.0177 12.4521 2.37252C12.6576 2.7759 12.6576 3.30395 12.6576 4.36005L12.6576 9.64007C12.6576 10.6962 12.6576 11.2242 12.4521 11.6276C12.2713 11.9824 11.9828 12.2709 11.628 12.4517C11.2246 12.6572 10.6965 12.6572 9.64044 12.6572L4.36042 12.6572C3.30431 12.6572 2.77626 12.6572 2.37288 12.4517C2.01806 12.2709 1.72958 11.9824 1.54879 11.6276C1.34326 11.2242 1.34326 10.6962 1.34326 9.64007Z" stroke="#9099A6" stroke-width="1.3" stroke-linecap="round" stroke-linejoin="round"/>
</g>
<defs>
<clipPath id="clip0_703_21645">
<rect width="14" height="14" fill="white"/>
</clipPath>
</defs>
</svg>
