<svg width="12" height="12" viewBox="0 0 12 12" fill="none" xmlns="http://www.w3.org/2000/svg">
<g clip-path="url(#clip0_2356_91600)">
<path d="M6.00134 10.8491L6.00134 1.15112M1.15234 8.26299L1.15234 3.73726C1.15234 2.83203 1.15234 2.37941 1.32851 2.03366C1.48348 1.72952 1.73074 1.48226 2.03488 1.32729C2.38063 1.15112 2.83324 1.15112 3.73848 1.15112L8.26421 1.15112C9.16944 1.15112 9.62205 1.15112 9.96781 1.32729C10.2719 1.48226 10.5192 1.72952 10.6742 2.03366C10.8503 2.37941 10.8503 2.83203 10.8503 3.73726L10.8503 8.26299C10.8503 9.16822 10.8503 9.62084 10.6742 9.96659C10.5192 10.2707 10.2719 10.518 9.96781 10.673C9.62206 10.8491 9.16944 10.8491 8.26421 10.8491L3.73848 10.8491C2.83324 10.8491 2.38063 10.8491 2.03488 10.673C1.73074 10.518 1.48348 10.2707 1.32851 9.96659C1.15234 9.62084 1.15234 9.16822 1.15234 8.26299Z" stroke="#838488" stroke-width="1.3" stroke-linecap="round" stroke-linejoin="round"/>
</g>
<defs>
<clipPath id="clip0_2356_91600">
<rect width="12" height="12" fill="white"/>
</clipPath>
</defs>
</svg>
