<svg width="12" height="12" viewBox="0 0 12 12" fill="none" xmlns="http://www.w3.org/2000/svg">
<path d="M5 9V3C5 2.53406 5 2.30109 4.92388 2.11732C4.82239 1.87229 4.62771 1.67761 4.38268 1.57612C4.19891 1.5 3.96594 1.5 3.5 1.5C3.03406 1.5 2.80109 1.5 2.61732 1.57612C2.37229 1.67761 2.17761 1.87229 2.07612 2.11732C2 2.30109 2 2.53406 2 3V9C2 9.46594 2 9.69891 2.07612 9.88268C2.17761 10.1277 2.37229 10.3224 2.61732 10.4239C2.80109 10.5 3.03406 10.5 3.5 10.5C3.96594 10.5 4.19891 10.5 4.38268 10.4239C4.62771 10.3224 4.82239 10.1277 4.92388 9.88268C5 9.69891 5 9.46594 5 9Z" stroke="#838488" stroke-width="1.3" stroke-linecap="round" stroke-linejoin="round"/>
<path d="M10 8V4C10 3.53406 10 3.30109 9.92388 3.11732C9.82239 2.87229 9.62771 2.67761 9.38268 2.57612C9.19891 2.5 8.96594 2.5 8.5 2.5C8.03406 2.5 7.80109 2.5 7.61732 2.57612C7.37229 2.67761 7.17761 2.87229 7.07612 3.11732C7 3.30109 7 3.53406 7 4V8C7 8.46594 7 8.69891 7.07612 8.88268C7.17761 9.12771 7.37229 9.32239 7.61732 9.42388C7.80109 9.5 8.03406 9.5 8.5 9.5C8.96594 9.5 9.19891 9.5 9.38268 9.42388C9.62771 9.32239 9.82239 9.12771 9.92388 8.88268C10 8.69891 10 8.46594 10 8Z" stroke="#838488" stroke-width="1.3" stroke-linecap="round" stroke-linejoin="round"/>
</svg>
