<svg width="14" height="14" viewBox="0 0 14 14" fill="none" xmlns="http://www.w3.org/2000/svg">
<g clip-path="url(#clip0_703_21657)">
<path d="M8.40386 5.59635C9.05798 5.59635 9.38504 5.59635 9.64303 5.48949C9.98702 5.34701 10.2603 5.07371 10.4028 4.72973C10.5097 4.47174 10.5097 4.14468 10.5097 3.49056C10.5097 2.83644 10.5097 2.50938 10.4028 2.25139C10.2603 1.90741 9.98702 1.63411 9.64303 1.49163C9.38504 1.38477 9.05798 1.38477 8.40386 1.38477L2.78841 1.38477C2.13429 1.38477 1.80723 1.38477 1.54925 1.49163C1.20526 1.63411 0.931964 1.90741 0.78948 2.25139C0.682617 2.50938 0.682617 2.83644 0.682617 3.49056C0.682617 4.14468 0.682617 4.47174 0.78948 4.72973C0.931964 5.07371 1.20526 5.34701 1.54925 5.48949C1.80723 5.59635 2.13429 5.59635 2.78841 5.59635L8.40386 5.59635Z" stroke="#9099A6" stroke-width="1.3" stroke-linecap="round" stroke-linejoin="round"/>
<path d="M11.2116 12.6157C11.8657 12.6157 12.1928 12.6157 12.4508 12.5088C12.7947 12.3663 13.068 12.093 13.2105 11.749C13.3174 11.4911 13.3174 11.164 13.3174 10.5099C13.3174 9.85576 13.3174 9.5287 13.2105 9.27071C13.068 8.92672 12.7947 8.65343 12.4508 8.51094C12.1928 8.40408 11.8657 8.40408 11.2116 8.40408H2.78841C2.13429 8.40408 1.80723 8.40408 1.54925 8.51094C1.20526 8.65343 0.931964 8.92672 0.78948 9.27071C0.682617 9.5287 0.682617 9.85575 0.682617 10.5099C0.682617 11.164 0.682617 11.491 0.78948 11.749C0.931963 12.093 1.20526 12.3663 1.54924 12.5088C1.80723 12.6157 2.13429 12.6157 2.78841 12.6157L11.2116 12.6157Z" stroke="#9099A6" stroke-width="1.3" stroke-linecap="round" stroke-linejoin="round"/>
</g>
<defs>
<clipPath id="clip0_703_21657">
<rect width="14" height="14" fill="white"/>
</clipPath>
</defs>
</svg>
