<svg width="14" height="14" viewBox="0 0 14 14" fill="none" xmlns="http://www.w3.org/2000/svg">
<path d="M9.24415 4.63966C10.0079 4.63966 10.627 4.02055 10.627 3.25684C10.627 2.49313 10.0079 1.87402 9.24415 1.87402C8.48044 1.87402 7.86133 2.49313 7.86133 3.25684C7.86133 4.02055 8.48044 4.63966 9.24415 4.63966Z" fill="#9099A6"/>
<path d="M1.75 3.25684H12.2498" stroke="#9099A6" stroke-width="1.3" stroke-linecap="round" stroke-linejoin="round"/>
<path d="M4.86939 8.38307C5.6331 8.38307 6.25221 7.76396 6.25221 7.00025C6.25221 6.23654 5.6331 5.61743 4.86939 5.61743C4.10568 5.61743 3.48657 6.23654 3.48657 7.00025C3.48657 7.76396 4.10568 8.38307 4.86939 8.38307Z" fill="#9099A6"/>
<path d="M1.75 7L12.25 7" stroke="#9099A6" stroke-width="1.3" stroke-linecap="round" stroke-linejoin="round"/>
<path d="M9.24415 12.1262C10.0079 12.1262 10.627 11.5071 10.627 10.7434C10.627 9.9797 10.0079 9.3606 9.24415 9.3606C8.48044 9.3606 7.86133 9.9797 7.86133 10.7434C7.86133 11.5071 8.48044 12.1262 9.24415 12.1262Z" fill="#9099A6"/>
<path d="M1.75 10.7434H12.2498" stroke="#9099A6" stroke-width="1.3" stroke-linecap="round" stroke-linejoin="round"/>
</svg>
