<svg width="20" height="20" viewBox="0 0 20 20" fill="none" xmlns="http://www.w3.org/2000/svg">
<path d="M15.0007 1.66699H5.00065C4.08018 1.66699 3.33398 2.41318 3.33398 3.33366V16.667C3.33398 17.5875 4.08018 18.3337 5.00065 18.3337H15.0007C15.9211 18.3337 16.6673 17.5875 16.6673 16.667V3.33366C16.6673 2.41318 15.9211 1.66699 15.0007 1.66699Z" stroke="#838488" stroke-linecap="round" stroke-linejoin="round"/>
<path d="M7.5 18.3333V15H12.5V18.3333" stroke="#838488" stroke-linecap="round" stroke-linejoin="round"/>
<path d="M6.66602 5H6.67435" stroke="#838488" stroke-width="1.5" stroke-linecap="round" stroke-linejoin="round"/>
<path d="M13.334 5H13.3423" stroke="#838488" stroke-width="1.5" stroke-linecap="round" stroke-linejoin="round"/>
<path d="M10 5H10.0083" stroke="#838488" stroke-width="1.5" stroke-linecap="round" stroke-linejoin="round"/>
<path d="M10 8.33301H10.0083" stroke="#838488" stroke-width="1.5" stroke-linecap="round" stroke-linejoin="round"/>
<path d="M10 11.667H10.0083" stroke="#838488" stroke-width="1.5" stroke-linecap="round" stroke-linejoin="round"/>
<path d="M13.334 8.33301H13.3423" stroke="#838488" stroke-width="1.5" stroke-linecap="round" stroke-linejoin="round"/>
<path d="M13.334 11.667H13.3423" stroke="#838488" stroke-width="1.5" stroke-linecap="round" stroke-linejoin="round"/>
<path d="M6.66602 8.33301H6.67435" stroke="#838488" stroke-width="1.5" stroke-linecap="round" stroke-linejoin="round"/>
<path d="M6.66602 11.667H6.67435" stroke="#838488" stroke-width="1.5" stroke-linecap="round" stroke-linejoin="round"/>
</svg>
