<svg width="57" height="57" viewBox="0 0 57 57" fill="none" xmlns="http://www.w3.org/2000/svg">
<rect x="0.5" y="0.5" width="56" height="56" rx="28" fill="white"/>
<path d="M29.6666 33.75C29.6666 37.2938 26.8625 40.1666 23.4034 40.1666C22.6889 40.1666 22.0023 40.0441 21.3626 39.8183C21.1198 39.7326 20.9984 39.6897 20.9167 39.6735C20.8307 39.6563 20.7842 39.6516 20.6965 39.651C20.6132 39.6504 20.5179 39.6634 20.3272 39.6895L16.8333 40.1666L17.5465 36.9447C17.5932 36.7335 17.6166 36.6279 17.622 36.5345C17.6277 36.437 17.625 36.3828 17.6099 36.2862C17.5953 36.1938 17.5511 36.0585 17.4627 35.7878C17.2536 35.1476 17.1403 34.4623 17.1403 33.75C17.1403 30.2062 19.9444 27.3333 23.4034 27.3333C26.8625 27.3333 29.6666 30.2062 29.6666 33.75Z" fill="#D0D4DA"/>
<path d="M21.61 27.6002C21.5375 27.1329 21.4999 26.6541 21.4999 26.1666C21.4999 21.012 25.706 16.8333 30.8946 16.8333C36.0832 16.8333 40.2893 21.012 40.2893 26.1666C40.2893 27.3311 40.0747 28.4457 39.6826 29.4736C39.6012 29.687 39.5604 29.7938 39.542 29.8771C39.5236 29.9597 39.5166 30.0178 39.5146 30.1023C39.5126 30.1877 39.5241 30.2817 39.5473 30.4697L40.017 34.2849C40.0678 34.6979 40.0932 34.9044 40.0245 35.0546C39.9643 35.1861 39.8574 35.2906 39.7245 35.3477C39.5728 35.413 39.367 35.3828 38.9553 35.3224L35.2391 34.7777C35.0451 34.7493 34.9481 34.735 34.8597 34.7355C34.7723 34.736 34.7118 34.7425 34.6263 34.7605C34.5398 34.7787 34.4293 34.82 34.2084 34.9028C33.1779 35.2888 32.0611 35.5 30.8946 35.5C30.4067 35.5 29.9275 35.463 29.4597 35.3918M23.4034 40.1666C26.8625 40.1666 29.6666 37.2938 29.6666 33.75C29.6666 30.2062 26.8625 27.3333 23.4034 27.3333C19.9444 27.3333 17.1403 30.2062 17.1403 33.75C17.1403 34.4623 17.2536 35.1476 17.4627 35.7878C17.5511 36.0585 17.5953 36.1938 17.6099 36.2862C17.625 36.3828 17.6277 36.437 17.622 36.5345C17.6166 36.6279 17.5932 36.7335 17.5465 36.9447L16.8333 40.1666L20.3272 39.6895C20.5179 39.6634 20.6132 39.6504 20.6965 39.651C20.7842 39.6516 20.8307 39.6563 20.9167 39.6735C20.9984 39.6897 21.1198 39.7326 21.3626 39.8183C22.0023 40.0441 22.6889 40.1666 23.4034 40.1666Z" stroke="#475467" stroke-width="1.5" stroke-linecap="round" stroke-linejoin="round"/>
</svg>
