<svg width="14" height="14" viewBox="0 0 14 14" fill="none" xmlns="http://www.w3.org/2000/svg">
<path d="M0 3C0 1.34315 1.34315 0 3 0H11C12.6569 0 14 1.34315 14 3V11C14 12.6569 12.6569 14 11 14H3C1.34315 14 0 12.6569 0 11V3Z" fill="#EC5050"/>
<path d="M3.26953 11.144L5.41146 10.3202C5.54846 10.2675 5.61696 10.2412 5.68105 10.2068C5.73797 10.1762 5.79224 10.141 5.84328 10.1014C5.90075 10.0568 5.95264 10.0049 6.05644 9.90107L10.4102 5.54729C10.8366 5.12094 10.8366 4.4297 10.4102 4.00335C9.98388 3.57701 9.29264 3.57701 8.8663 4.00335L4.51251 8.35714C4.40871 8.46093 4.35682 8.51283 4.31222 8.57029C4.27261 8.62133 4.23735 8.6756 4.20679 8.73253C4.17239 8.79662 4.14604 8.86512 4.09335 9.00212L3.26953 11.144ZM3.26953 11.144L4.06393 9.07863C4.12078 8.93083 4.1492 8.85693 4.19795 8.82308C4.24056 8.7935 4.29328 8.78231 4.34422 8.79204C4.40252 8.80317 4.45851 8.85916 4.57048 8.97113L5.44245 9.8431C5.55443 9.95508 5.61041 10.0111 5.62154 10.0694C5.63127 10.1203 5.62009 10.173 5.5905 10.2156C5.55665 10.2644 5.48275 10.2928 5.33495 10.3497L3.26953 11.144Z" stroke="white" stroke-width="1.2" stroke-linecap="round" stroke-linejoin="round"/>
</svg>
