<svg width="14" height="14" viewBox="0 0 14 14" fill="none" xmlns="http://www.w3.org/2000/svg">
<rect width="14" height="14" rx="3" fill="#326FFF"/>
<path d="M6.17802 7.82198L10.9717 3.02828M6.23627 7.97175L7.43611 11.0571C7.54181 11.3289 7.59466 11.4648 7.67082 11.5044C7.73683 11.5388 7.81547 11.5389 7.88153 11.5046C7.95773 11.465 8.01074 11.3291 8.11676 11.0575L11.1255 3.3475C11.2212 3.10225 11.2691 2.97963 11.2429 2.90127C11.2202 2.83323 11.1668 2.77983 11.0987 2.75709C11.0204 2.73092 10.8977 2.77877 10.6525 2.87448L2.94253 5.88324C2.67086 5.98926 2.53502 6.04227 2.49543 6.11847C2.46111 6.18453 2.46116 6.26317 2.49556 6.32918C2.53523 6.40534 2.67113 6.45819 2.94293 6.56389L6.02825 7.76373C6.08342 7.78519 6.11101 7.79592 6.13423 7.81249C6.15482 7.82717 6.17283 7.84518 6.18752 7.86577C6.20408 7.88899 6.21481 7.91658 6.23627 7.97175Z" stroke="white" stroke-width="1.2" stroke-linecap="round" stroke-linejoin="round"/>
</svg>
