<svg width="14" height="14" viewBox="0 0 14 14" fill="none" xmlns="http://www.w3.org/2000/svg">
<rect width="14" height="14" rx="3" fill="#686A7C"/>
<path d="M11.0027 6.11073H2.99725M8.779 2.55273V3.44223M5.221 2.55273V3.44223M5.13205 11.4477H8.86794C9.61519 11.4477 9.98882 11.4477 10.2742 11.3023C10.5253 11.1744 10.7294 10.9703 10.8573 10.7192C11.0027 10.4338 11.0027 10.0602 11.0027 9.31293V5.57703C11.0027 4.82978 11.0027 4.45616 10.8573 4.17075C10.7294 3.91969 10.5253 3.71558 10.2742 3.58766C9.98882 3.44223 9.61519 3.44223 8.86795 3.44223H5.13205C4.3848 3.44223 4.01118 3.44223 3.72577 3.58766C3.47471 3.71558 3.2706 3.91969 3.14268 4.17075C2.99725 4.45616 2.99725 4.82978 2.99725 5.57703V9.31293C2.99725 10.0602 2.99725 10.4338 3.14268 10.7192C3.2706 10.9703 3.47471 11.1744 3.72577 11.3023C4.01118 11.4477 4.3848 11.4477 5.13205 11.4477Z" stroke="white" stroke-width="1.2" stroke-linecap="round" stroke-linejoin="round"/>
</svg>
