<svg width="14" height="14" viewBox="0 0 14 14" fill="none" xmlns="http://www.w3.org/2000/svg">
<path d="M8.87357 8.8726C8.67831 9.06786 8.36173 9.06786 8.16647 8.8726C7.9712 8.67733 7.9712 8.36075 8.16647 8.16549L8.52002 8.51904L8.87357 8.8726ZM11.5586 5.48047L11.9121 5.12692C12.1074 5.32218 12.1074 5.63876 11.9121 5.83402L11.5586 5.48047ZM8.16647 2.79545C7.9712 2.60019 7.9712 2.2836 8.16647 2.08834C8.36173 1.89308 8.67831 1.89308 8.87357 2.08834L8.52002 2.44189L8.16647 2.79545ZM7.00073 11.0576C7.27688 11.0576 7.50073 11.2815 7.50073 11.5576C7.50073 11.8338 7.27688 12.0576 7.00073 12.0576V11.5576V11.0576ZM8.52002 8.51904L8.16647 8.16549L11.205 5.12692L11.5586 5.48047L11.9121 5.83402L8.87357 8.8726L8.52002 8.51904ZM11.5586 5.48047L11.205 5.83402L8.16647 2.79545L8.52002 2.44189L8.87357 2.08834L11.9121 5.12692L11.5586 5.48047ZM2.44287 8.51904H2.94287C2.94287 9.92106 4.07943 11.0576 5.48145 11.0576V11.5576V12.0576C3.52714 12.0576 1.94287 10.4733 1.94287 8.51904H2.44287ZM5.48145 5.48047V5.98047C4.07943 5.98047 2.94287 7.11703 2.94287 8.51904H2.44287H1.94287C1.94287 6.56474 3.52714 4.98047 5.48145 4.98047V5.48047ZM5.48145 5.48047V4.98047H11.5586V5.48047V5.98047H5.48145V5.48047ZM5.48145 11.5576V11.0576H7.00073V11.5576V12.0576H5.48145V11.5576Z" fill="#838488"/>
</svg>
