<svg width="14" height="14" viewBox="0 0 14 14" fill="none" xmlns="http://www.w3.org/2000/svg">
<path d="M12.3867 6.98827C12.3867 9.95572 9.98111 12.3613 7.01366 12.3613C4.04622 12.3613 1.64062 9.95572 1.64062 6.98827C1.64062 4.02082 4.04622 1.61523 7.01366 1.61523M4.86445 8.06288C4.86445 8.06288 5.6704 9.13749 7.01366 9.13749C8.35692 9.13749 9.16288 8.06288 9.16288 8.06288M8.62557 5.37636H8.63095M5.40175 5.37636H5.40712M8.89422 5.37636C8.89422 5.52473 8.77394 5.64501 8.62557 5.64501C8.4772 5.64501 8.35692 5.52473 8.35692 5.37636C8.35692 5.22799 8.4772 5.10771 8.62557 5.10771C8.77394 5.10771 8.89422 5.22799 8.89422 5.37636ZM5.6704 5.37636C5.6704 5.52473 5.55012 5.64501 5.40175 5.64501C5.25338 5.64501 5.1331 5.52473 5.1331 5.37636C5.1331 5.22799 5.25338 5.10771 5.40175 5.10771C5.55012 5.10771 5.6704 5.22799 5.6704 5.37636Z" stroke="#838488" stroke-linecap="round" stroke-linejoin="round"/>
<path d="M11.0416 1.34668V4.5705M9.42969 2.95859H12.6535" stroke="#838488" stroke-linecap="round" stroke-linejoin="round"/>
</svg>
